#N canvas 384 384 3840 2106 12;
#X floatatom 732 565 5 0 0 0 - - - 0;
#X msg 904 264 crackle;
#X msg 1005 268 stretch;
#X text 729 312 random-position;
#X text 920 311 grain-size;
#X text 1127 308 ran-pitch-am;
#X text 1207 288 grain-type;
#X obj 736 334 hsl 136 16 0 127 0 0 empty empty empty -2 -8 0 10 #fcfcfc #000000 #000000 0 1;
#X msg 826 399 0;
#X msg 859 398 13;
#X obj 928 335 hsl 136 16 0 127 0 0 empty empty empty -2 -8 0 10 #fcfcfc #000000 #000000 0 1;
#X obj 737 430 maxlib/scale 0 127 0 127;
#X obj 915 428 maxlib/scale 0 127 0 127;
#X msg 1004 397 1;
#X msg 1037 396 500;
#X obj 1143 332 hsl 136 16 0 127 0 0 empty empty empty -2 -8 0 10 #fcfcfc #000000 #000000 0 1;
#X obj 1130 425 maxlib/scale 0 127 0 127;
#X msg 1219 394 0;
#X msg 1252 393 3;
#X connect 1 0 8 0;
#X connect 1 0 9 0;
#X connect 1 0 13 0;
#X connect 1 0 14 0;
#X connect 1 0 17 0;
#X connect 7 0 11 0;
#X connect 8 0 11 3;
#X connect 9 0 11 4;
#X connect 10 0 12 0;
#X connect 11 0 0 0;
#X connect 13 0 12 3;
#X connect 14 0 12 4;
#X connect 15 0 16 0;
#X connect 17 0 16 3;
#X connect 18 0 16 4;
