#N canvas 180 38 1365 967 12;
#X msg 132 178 listen 9000;
#X obj 132 203 netreceive -u -b;
#X obj 132 231 oscparse;
#X floatatom 367 387 5 0 0 0 - - - 0;
#X floatatom 250 374 5 0 0 0 - - - 0;
#X floatatom 307 386 5 0 0 0 - - - 0;
#X obj 132 17 loadbang;
#X msg 153 92 \; pd dsp 1;
#X text 209 19 Onload Turn on Audio and start OSC listening;
#X obj 1181 387 phasor~;
#X obj 1181 476 *~ 0.5;
#X obj 1172 531 *~;
#X obj 1135 681 *~;
#X obj 1168 653 *~;
#X obj 1217 653 *~;
#X obj 1352 468 *~;
#X obj 1357 545 *~;
#X obj 1325 817 delread~ audio-buffer 0;
#X floatatom 1325 773 5 0 0 0 - - - 0;
#X obj 1320 889 *~;
#X obj 1379 898 *~;
#X obj 1386 483 receive~ feedback_sig;
#X obj 1369 512 delwrite~ audio-buffer 5000;
#X obj 1378 938 send~ feedback_sig;
#X obj 1329 727 hsl 162 19 0 1000 0 0 empty empty Delay\ Time -2 -10 0 12 #fcfcfc #000000 #000000 0 1;
#X obj 1498 808 hsl 150 19 0 10 0 0 empty empty Delay\ Vol -2 -10 0 12 #ffffff #000000 #000000 0 1;
#X obj 1529 903 hsl 162 19 0 1 0 0 empty empty Feedback\ amt -2 -10 0 12 #fcfcfc #000000 #000000 0 1;
#X obj 1421 607 hsl 150 19 0 10 0 0 empty empty Output -2 -10 0 12 #fcfcfc #000000 #000000 0 1;
#X obj 1410 443 hsl 162 19 0 10 0 0 empty empty Gain -2 -10 0 12 #fcfcfc #000000 #000000 0 1;
#X obj 1312 386 phasor~;
#X obj 1184 234 hsl 162 19 0 1 0 0 empty empty empty -2 -10 0 12 #fcfcfc #000000 #000000 0 1;
#X floatatom 1217 255 5 0 0 0 - - - 0;
#X obj 1181 212 line;
#X obj 158 62 send load;
#X obj 1317 662 receive load;
#X obj 1521 735 receive load;
#X msg 1521 758 6;
#X obj 1569 841 receive load;
#X msg 1568 863 0.6;
#X obj 1231 512 receive load;
#X obj 1084 572 receive load;
#X obj 1455 387 receive load;
#X obj 1417 543 receive load;
#X msg 1417 566 3;
#X obj 1181 302 mtof;
#X obj 1181 256 * 63;
#X obj 1181 325 +~;
#X obj 1355 305 *~;
#X floatatom 1416 282 5 0 0 0 - - - 0;
#X floatatom 1355 258 5 0 0 0 - - - 0;
#X obj 1181 442 lop~ 300;
#X msg 1181 190 \$1 1000;
#X obj 1241 385 phasor~;
#X obj 1181 279 + 12;
#X obj 1241 362 *~ 1.01;
#X obj 1312 363 *~ 1.21;
#X obj 1181 167 receive frequency;
#X msg 1317 686 1000;
#X obj 1416 190 receive mod_depth;
#X obj 1416 258 * 10;
#X obj 1356 162 receive mod_freq;
#X obj 1356 234 * 5;
#X obj 1177 571 rev2~ 100 90 5000 20;
#X obj 1356 209 line;
#X msg 1356 185 \$1 2000;
#X obj 1416 235 line;
#X msg 1416 213 \$1 2000;
#X obj 1355 282 phasor~;
#X msg 1439 405 2;
#X msg 1256 618 2;
#X msg 1084 628 1;
#X obj 170 773 osc~ 440;
#X obj 61 681 line;
#X obj 59 714 hsl 162 19 0 127 0 0 empty empty empty -2 -10 0 12 #fcfcfc #000000 #000000 0 1;
#X floatatom 60 566 5 0 0 0 - - - 0;
#X obj 328 943 dac~;
#X obj 565 462 line;
#X obj 568 492 hsl 162 19 0 127 0 0 empty empty empty -2 -10 0 12 #fcfcfc #000000 #000000 0 1;
#X floatatom 565 331 5 0 0 0 - - - 0;
#X obj 250 397 bng 19 250 50 0 empty empty empty 0 -10 0 12 #fcfcfc #000000 #000000;
#X listbox 106 319 20 0 0 0 - - - 0;
#X msg 357 64 listen 10000;
#X obj 357 97 netreceive -u -b;
#X obj 357 125 oscparse;
#X floatatom 474 204 5 0 0 0 - - - 0;
#X floatatom 519 204 5 0 0 0 - - - 0;
#X floatatom 567 203 5 0 0 0 - - - 0;
#X floatatom 613 201 5 0 0 0 - - - 0;
#X obj 379 158 unpack string float float float float;
#X text 487 114 NEGATIVE;
#X msg 1226 535 5;
#X obj 1110 838 // dac~;
#X obj 1202 760 // dac~;
#X msg 565 433 \$1 1000;
#X msg 61 657 \$1 1000;
#X obj 61 634 mtof;
#X obj -10 870 *~;
#X obj 35 870 *~;
#X obj 96 906 *~;
#X obj 641 720 *~;
#X obj 677 722 *~;
#X obj 633 760 *~;
#X msg 718 703 1;
#X msg 725 745 1;
#X obj -10 838 rev2~ 100 90 5000 20;
#X obj 748 524 *~;
#X floatatom 809 501 5 0 0 0 - - - 0;
#X floatatom 748 477 5 0 0 0 - - - 0;
#X obj 809 409 receive mod_depth;
#X obj 809 477 * 10;
#X obj 749 381 receive mod_freq;
#X obj 749 453 * 5;
#X obj 749 428 line;
#X obj 809 454 line;
#X obj 748 501 phasor~;
#X obj 640 577 +~;
#X obj 549 295 send mod_freq;
#X obj 607 253 send mod_depth;
#X obj 637 679 rev2~ 100 90 5000 80;
#X obj 188 669 *~;
#X floatatom 249 646 5 0 0 0 - - - 0;
#X floatatom 188 622 5 0 0 0 - - - 0;
#X obj 249 622 * 10;
#X obj 189 598 * 5;
#X obj 189 573 line;
#X obj 249 599 line;
#X obj 188 646 phasor~;
#X obj 170 746 +~;
#X obj 189 526 receive pmod_freq;
#X obj 249 554 receive pmod_depth;
#X obj 251 448 send pmod_depth;
#X obj 199 473 send pmod_freq;
#X msg 140 864 2;
#X msg 141 840 2;
#X msg 189 549 \$1 1000;
#X msg 749 404 \$1 1000;
#X msg 809 432 \$1 1000;
#X obj 508 676 receive load;
#X obj 132 264 unpack string float float float float;
#X obj 634 788 *~ 0.3;
#X msg 249 577 \$1 100;
#X obj 277 897 *~ 0.5;
#X obj 379 897 *~ 0.5;
#X obj 634 625 phasor~ 440;
#X obj 565 381 + 12;
#X obj 565 409 mtof;
#X obj 61 610 + 0;
#X obj 565 356 * 50;
#X obj 61 587 * 75;
#X connect 0 0 1 0;
#X connect 1 0 2 0;
#X connect 2 0 138 0;
#X connect 3 0 130 0;
#X connect 4 0 79 0;
#X connect 4 0 74 0;
#X connect 5 0 131 0;
#X connect 6 0 0 0;
#X connect 6 0 7 0;
#X connect 6 0 33 0;
#X connect 6 0 81 0;
#X connect 9 0 50 0;
#X connect 10 0 15 0;
#X connect 10 0 11 0;
#X connect 11 0 12 0;
#X connect 11 0 62 0;
#X connect 12 0 91 0;
#X connect 12 0 91 1;
#X connect 13 0 91 0;
#X connect 14 0 91 1;
#X connect 15 0 16 0;
#X connect 15 0 22 0;
#X connect 16 0 92 0;
#X connect 16 0 92 1;
#X connect 17 0 19 0;
#X connect 17 0 20 0;
#X connect 18 0 17 0;
#X connect 20 0 23 0;
#X connect 21 0 22 0;
#X connect 24 0 18 0;
#X connect 25 0 19 1;
#X connect 26 0 20 1;
#X connect 27 0 16 1;
#X connect 28 0 15 1;
#X connect 29 0 50 0;
#X connect 30 0 31 0;
#X connect 30 0 45 0;
#X connect 32 0 30 0;
#X connect 34 0 57 0;
#X connect 35 0 36 0;
#X connect 36 0 25 0;
#X connect 37 0 38 0;
#X connect 38 0 26 0;
#X connect 39 0 90 0;
#X connect 40 0 70 0;
#X connect 41 0 68 0;
#X connect 42 0 43 0;
#X connect 43 0 27 0;
#X connect 44 0 46 0;
#X connect 45 0 53 0;
#X connect 46 0 9 0;
#X connect 46 0 54 0;
#X connect 46 0 55 0;
#X connect 47 0 46 1;
#X connect 48 0 47 1;
#X connect 49 0 67 0;
#X connect 50 0 10 0;
#X connect 51 0 32 0;
#X connect 52 0 50 0;
#X connect 53 0 44 0;
#X connect 54 0 52 0;
#X connect 55 0 29 0;
#X connect 56 0 51 0;
#X connect 57 0 24 0;
#X connect 58 0 66 0;
#X connect 59 0 48 0;
#X connect 60 0 64 0;
#X connect 61 0 49 0;
#X connect 62 0 13 0;
#X connect 62 1 14 0;
#X connect 63 0 61 0;
#X connect 64 0 63 0;
#X connect 65 0 59 0;
#X connect 66 0 65 0;
#X connect 67 0 47 0;
#X connect 68 0 28 0;
#X connect 69 0 14 1;
#X connect 70 0 13 1;
#X connect 70 0 12 1;
#X connect 71 0 104 0;
#X connect 71 0 141 0;
#X connect 72 0 73 0;
#X connect 73 0 127 0;
#X connect 74 0 148 0;
#X connect 76 0 77 0;
#X connect 77 0 115 0;
#X connect 78 0 147 0;
#X connect 81 0 82 0;
#X connect 82 0 83 0;
#X connect 83 0 88 0;
#X connect 84 0 78 0;
#X connect 85 0 116 0;
#X connect 86 0 117 0;
#X connect 88 1 84 0;
#X connect 88 2 85 0;
#X connect 88 3 86 0;
#X connect 88 4 87 0;
#X connect 90 0 11 1;
#X connect 93 0 76 0;
#X connect 94 0 72 0;
#X connect 95 0 94 0;
#X connect 96 0 98 0;
#X connect 97 0 98 1;
#X connect 99 0 101 0;
#X connect 100 0 101 1;
#X connect 101 0 139 0;
#X connect 102 0 99 1;
#X connect 103 0 100 1;
#X connect 104 0 96 0;
#X connect 104 1 97 0;
#X connect 105 0 115 1;
#X connect 106 0 105 1;
#X connect 107 0 114 0;
#X connect 108 0 136 0;
#X connect 109 0 106 0;
#X connect 110 0 135 0;
#X connect 111 0 107 0;
#X connect 112 0 111 0;
#X connect 113 0 109 0;
#X connect 114 0 105 0;
#X connect 115 0 143 0;
#X connect 118 0 99 0;
#X connect 118 1 100 0;
#X connect 119 0 127 1;
#X connect 120 0 119 1;
#X connect 121 0 126 0;
#X connect 122 0 120 0;
#X connect 123 0 121 0;
#X connect 124 0 123 0;
#X connect 125 0 122 0;
#X connect 126 0 119 0;
#X connect 127 0 71 0;
#X connect 128 0 134 0;
#X connect 129 0 140 0;
#X connect 132 0 96 1;
#X connect 133 0 97 1;
#X connect 134 0 124 0;
#X connect 135 0 112 0;
#X connect 136 0 113 0;
#X connect 137 0 133 0;
#X connect 137 0 132 0;
#X connect 137 0 102 0;
#X connect 137 0 103 0;
#X connect 138 0 80 0;
#X connect 138 2 4 0;
#X connect 138 3 5 0;
#X connect 138 4 3 0;
#X connect 140 0 125 0;
#X connect 141 0 75 0;
#X connect 142 0 75 1;
#X connect 143 0 118 0;
#X connect 143 0 142 0;
#X connect 144 0 145 0;
#X connect 145 0 93 0;
#X connect 146 0 95 0;
#X connect 147 0 144 0;
#X connect 148 0 146 0;
