#N canvas 928 122 450 300 12;
#X obj 146 258 dac~;
#X floatatom 221 95 5 0 0 0 - - - 0;
#X obj 224 128 osc~;
#X floatatom 306 128 5 0 0 0 - - - 0;
#X obj 225 157 *~;
#X obj 146 214 *~ 0.5;
#X obj 145 180 *~;
#X obj 145 146 osc~ 400;
#X obj 74 11 loadbang;
#X msg 74 43 \; pd dsp 1;
#X msg 307 92 1;
#X msg 220 67 0.5;
#X obj 209 29 bng 19 250 50 0 empty empty empty 0 -10 0 12 #fcfcfc #000000 #000000;
#X connect 1 0 2 0;
#X connect 2 0 4 0;
#X connect 3 0 4 1;
#X connect 4 0 6 1;
#X connect 5 0 0 0;
#X connect 5 0 0 1;
#X connect 6 0 5 0;
#X connect 7 0 6 0;
#X connect 8 0 9 0;
#X connect 8 0 12 0;
#X connect 10 0 3 0;
#X connect 11 0 1 0;
#X connect 12 0 11 0;
#X connect 12 0 10 0;
