#N canvas 0 1 3840 2106 12;
#X obj 50 143 nn~ semantic-model-1.ts encode, f 52;
#X obj 51 380 nn~ semantic-model-1.ts decode, f 53;
#X obj 51 311 +~;
#X obj 80 311 +~;
#X obj 107 311 +~;
#X obj 136 311 +~;
#X obj 163 311 +~;
#X obj 192 311 +~;
#X obj 219 311 +~;
#X obj 246 312 +~;
#X obj 273 313 +~;
#X obj 302 313 +~;
#X obj 329 313 +~;
#X obj 358 313 +~;
#X obj 385 313 +~;
#X obj 414 313 +~;
#X obj 441 313 +~;
#X obj 468 314 +~;
#X obj 457 131 vsl 19 80 -5 5 0 0 empty empty empty 0 -9 0 12 #ff0400 #ffffff #000000 0 1;
#X obj 483 131 vsl 19 80 -5 5 0 0 empty empty empty 0 -9 0 12 #ff0400 #ffffff #000000 0 1;
#X obj 507 132 vsl 19 80 -5 5 0 0 empty empty empty 0 -9 0 12 #ff0400 #ffffff #000000 0 1;
#X obj 533 132 vsl 19 80 -5 5 0 0 empty empty empty 0 -9 0 12 #ff0400 #ffffff #000000 0 1;
#X obj 559 133 vsl 19 80 -5 5 0 0 empty empty empty 0 -9 0 12 #fcfcfc #000000 #000000 0 1;
#X obj 585 133 vsl 19 80 -5 5 0 0 empty empty empty 0 -9 0 12 #fcfcfc #000000 #000000 0 1;
#X obj 609 134 vsl 19 80 -5 5 0 0 empty empty empty 0 -9 0 12 #fcfcfc #000000 #000000 0 1;
#X obj 635 134 vsl 19 80 -5 5 0 0 empty empty empty 0 -9 0 12 #fcfcfc #000000 #000000 0 1;
#X obj 657 134 vsl 19 80 -5 5 0 0 empty empty empty 0 -9 0 12 #fcfcfc #000000 #000000 0 1;
#X obj 683 134 vsl 19 80 -5 5 0 0 empty empty empty 0 -9 0 12 #fcfcfc #000000 #000000 0 1;
#X obj 707 135 vsl 19 80 -5 5 0 0 empty empty empty 0 -9 0 12 #fcfcfc #000000 #000000 0 1;
#X obj 733 135 vsl 19 80 -5 5 0 0 empty empty empty 0 -9 0 12 #fcfcfc #000000 #000000 0 1;
#X obj 759 136 vsl 19 80 -5 5 0 0 empty empty empty 0 -9 0 12 #fcfcfc #000000 #000000 0 1;
#X obj 785 136 vsl 19 80 -5 5 0 0 empty empty empty 0 -9 0 12 #fcfcfc #000000 #000000 0 1;
#X obj 809 137 vsl 19 80 -5 5 0 0 empty empty empty 0 -9 0 12 #fcfcfc #000000 #000000 0 1;
#X obj 835 137 vsl 19 80 -5 5 0 0 empty empty empty 0 -9 0 12 #fcfcfc #000000 #000000 0 1;
#X floatatom 789 253 5 0 0 0 - - - 0;
#X floatatom 831 254 5 0 0 0 - - - 0;
#X floatatom 872 254 5 0 0 0 - - - 0;
#X floatatom 914 255 5 0 0 0 - - - 0;
#X msg 324 45 0;
#X obj 81 526 dac~;
#N canvas -8 0 1918 2096 scaleFunction 0;
#X obj 105 122 inlet;
#X obj 252 62 inlet;
#X obj 296 62 inlet;
#X obj 343 62 inlet;
#X obj 388 61 inlet;
#X obj 105 145 expr ((($f1-$f2)/($f3-$f2))*(-($f4-$f5))) + $f4;
#X obj 105 168 outlet;
#X connect 0 0 5 0;
#X connect 1 0 5 1;
#X connect 2 0 5 2;
#X connect 3 0 5 3;
#X connect 4 0 5 4;
#X connect 5 0 6 0;
#X restore 641 850 pd scaleFunction;
#X msg 312 783 0;
#X obj 622 31 r latentDimension1;
#X obj 755 31 r latentDimension2;
#X obj 888 31 r latentDimension3;
#X obj 1021 31 r latentDimension4;
#X msg 347 783 1;
#N canvas -8 0 1918 2096 scaleFunction 0;
#X obj 105 122 inlet;
#X obj 252 62 inlet;
#X obj 296 62 inlet;
#X obj 343 62 inlet;
#X obj 388 61 inlet;
#X obj 105 145 expr ((($f1-$f2)/($f3-$f2))*(-($f4-$f5))) + $f4;
#X obj 105 168 outlet;
#X connect 0 0 5 0;
#X connect 1 0 5 1;
#X connect 2 0 5 2;
#X connect 3 0 5 3;
#X connect 4 0 5 4;
#X connect 5 0 6 0;
#X restore 792 850 pd scaleFunction;
#X msg 516 784 0;
#X msg 551 784 1;
#N canvas -8 0 1918 2096 scaleFunction 0;
#X obj 105 122 inlet;
#X obj 252 62 inlet;
#X obj 296 62 inlet;
#X obj 343 62 inlet;
#X obj 388 61 inlet;
#X obj 105 145 expr ((($f1-$f2)/($f3-$f2))*(-($f4-$f5))) + $f4;
#X obj 105 168 outlet;
#X connect 0 0 5 0;
#X connect 1 0 5 1;
#X connect 2 0 5 2;
#X connect 3 0 5 3;
#X connect 4 0 5 4;
#X connect 5 0 6 0;
#X restore 946 850 pd scaleFunction;
#X msg 670 783 0;
#X msg 705 783 1;
#N canvas -8 0 1918 2096 scaleFunction 0;
#X obj 105 122 inlet;
#X obj 252 62 inlet;
#X obj 296 62 inlet;
#X obj 343 62 inlet;
#X obj 388 61 inlet;
#X obj 105 145 expr ((($f1-$f2)/($f3-$f2))*(-($f4-$f5))) + $f4;
#X obj 105 168 outlet;
#X connect 0 0 5 0;
#X connect 1 0 5 1;
#X connect 2 0 5 2;
#X connect 3 0 5 3;
#X connect 4 0 5 4;
#X connect 5 0 6 0;
#X restore 1097 850 pd scaleFunction;
#X msg 802 777 0;
#X msg 837 777 1;
#X obj 641 874 s latentDimension1;
#X obj 792 874 s latentDimension2;
#X obj 946 874 s latentDimension3;
#X obj 1097 873 s latentDimension4;
#X obj 324 19 loadbang;
#X obj 1235 637 hsl 162 19 0 1 0 0 empty empty empty -2 -10 0 12 #fcfcfc #000000 #000000 0 1;
#X msg 247 644 3.481;
#X msg 301 645 3.481;
#X msg 405 632 0;
#X msg 465 632 4;
#X msg 604 605 -3.86;
#X msg 651 605 -3.86;
#X msg 791 612 -3.98;
#X msg 841 611 -3.98;
#X msg 247 669 1.582;
#X msg 301 670 1.582;
#X msg 406 654 -1.5;
#X msg 456 655 2.7;
#X msg 604 630 -2.84;
#X msg 652 630 -2.84;
#X msg 791 637 -3.73;
#X msg 848 636 -3.73;
#X msg 246 692 -0.56;
#X msg 300 693 -0.56;
#X msg 405 677 0;
#X msg 455 677 3;
#X msg 603 653 -3.6;
#X msg 663 654 -3.6;
#X msg 790 660 -3.98;
#X msg 847 658 -3.98;
#X msg 247 715 -4;
#X msg 306 719 0;
#X msg 406 708 3.227;
#X msg 458 709 3.227;
#X msg 603 680 -3.86;
#X msg 654 679 -3.86;
#X msg 790 687 1.835;
#X msg 845 685 1.835;
#X msg 247 739 2.974;
#X msg 306 742 2.974;
#X msg 404 731 -1;
#X msg 469 731 1;
#X msg 602 706 -2.97;
#X msg 662 708 -2.97;
#X msg 789 713 -5;
#X msg 827 710 -5;
#X obj 1003 247 bng 19 250 50 0 empty empty empty 0 -10 0 12 #fcfcfc #000000 #000000;
#X obj 1005 417 bng 19 250 50 0 empty empty empty 0 -10 0 12 #fcfcfc #000000 #000000;
#X obj 1026 417 bng 19 250 50 0 empty empty empty 0 -10 0 12 #fcfcfc #000000 #000000;
#X obj 1048 417 bng 19 250 50 0 empty empty empty 0 -10 0 12 #fcfcfc #000000 #000000;
#X obj 1069 417 bng 19 250 50 0 empty empty empty 0 -10 0 12 #fcfcfc #000000 #000000;
#X obj 1003 369 random 5;
#X obj 1003 393 sel 1 2 3 4;
#X obj 1090 417 bng 19 250 50 0 empty empty empty 0 -10 0 12 #fcfcfc #000000 #000000;
#X obj 1003 272 f;
#X obj 1045 272 + 1;
#X msg 969 225 0;
#X obj 969 171 loadbang;
#X floatatom 1003 320 5 0 0 0 - - - 0;
#X obj 1003 296 % 10;
#X obj 969 200 del 100;
#X obj 1003 344 sel 0;
#X connect 0 0 2 0;
#X connect 0 1 3 0;
#X connect 0 2 4 0;
#X connect 0 3 5 0;
#X connect 0 4 6 0;
#X connect 0 5 7 0;
#X connect 0 6 8 0;
#X connect 0 7 9 0;
#X connect 0 8 10 0;
#X connect 0 9 11 0;
#X connect 0 10 12 0;
#X connect 0 11 13 0;
#X connect 0 12 14 0;
#X connect 0 13 15 0;
#X connect 0 14 16 0;
#X connect 0 15 17 0;
#X connect 1 0 39 0;
#X connect 1 1 39 1;
#X connect 2 0 1 0;
#X connect 3 0 1 1;
#X connect 4 0 1 2;
#X connect 5 0 1 3;
#X connect 6 0 1 4;
#X connect 7 0 1 5;
#X connect 8 0 1 6;
#X connect 9 0 1 7;
#X connect 10 0 1 8;
#X connect 11 0 1 9;
#X connect 12 0 1 10;
#X connect 13 0 1 11;
#X connect 14 0 1 12;
#X connect 15 0 1 13;
#X connect 16 0 1 14;
#X connect 17 0 1 15;
#X connect 18 0 34 0;
#X connect 18 0 2 1;
#X connect 19 0 35 0;
#X connect 19 0 3 1;
#X connect 20 0 36 0;
#X connect 20 0 4 1;
#X connect 21 0 37 0;
#X connect 21 0 5 1;
#X connect 22 0 6 1;
#X connect 23 0 7 1;
#X connect 24 0 8 1;
#X connect 25 0 9 1;
#X connect 26 0 10 1;
#X connect 27 0 11 1;
#X connect 28 0 12 1;
#X connect 29 0 13 1;
#X connect 30 0 14 1;
#X connect 31 0 15 1;
#X connect 32 0 16 1;
#X connect 33 0 17 1;
#X connect 38 0 18 0;
#X connect 38 0 19 0;
#X connect 38 0 20 0;
#X connect 38 0 22 0;
#X connect 38 0 23 0;
#X connect 38 0 24 0;
#X connect 38 0 25 0;
#X connect 38 0 26 0;
#X connect 38 0 27 0;
#X connect 38 0 28 0;
#X connect 38 0 29 0;
#X connect 38 0 30 0;
#X connect 38 0 31 0;
#X connect 38 0 32 0;
#X connect 38 0 33 0;
#X connect 38 0 21 0;
#X connect 40 0 56 0;
#X connect 41 0 40 1;
#X connect 42 0 18 0;
#X connect 43 0 19 0;
#X connect 44 0 20 0;
#X connect 45 0 21 0;
#X connect 46 0 40 2;
#X connect 47 0 57 0;
#X connect 48 0 47 1;
#X connect 49 0 47 2;
#X connect 50 0 58 0;
#X connect 51 0 50 1;
#X connect 52 0 50 2;
#X connect 53 0 59 0;
#X connect 54 0 53 1;
#X connect 55 0 53 2;
#X connect 60 0 38 0;
#X connect 61 0 40 0;
#X connect 61 0 47 0;
#X connect 61 0 50 0;
#X connect 61 0 53 0;
#X connect 62 0 40 3;
#X connect 63 0 40 4;
#X connect 64 0 47 3;
#X connect 65 0 47 4;
#X connect 66 0 50 3;
#X connect 67 0 50 4;
#X connect 68 0 53 3;
#X connect 69 0 53 4;
#X connect 70 0 40 3;
#X connect 71 0 40 4;
#X connect 72 0 47 3;
#X connect 73 0 47 4;
#X connect 74 0 50 3;
#X connect 75 0 50 4;
#X connect 76 0 53 3;
#X connect 77 0 53 4;
#X connect 78 0 40 3;
#X connect 79 0 40 4;
#X connect 80 0 47 3;
#X connect 81 0 47 4;
#X connect 82 0 50 3;
#X connect 83 0 50 4;
#X connect 84 0 53 3;
#X connect 85 0 53 4;
#X connect 86 0 40 3;
#X connect 87 0 40 4;
#X connect 88 0 47 3;
#X connect 89 0 47 4;
#X connect 90 0 50 3;
#X connect 91 0 50 4;
#X connect 92 0 53 3;
#X connect 93 0 53 4;
#X connect 94 0 40 3;
#X connect 95 0 40 4;
#X connect 96 0 47 3;
#X connect 97 0 47 4;
#X connect 98 0 50 3;
#X connect 99 0 50 4;
#X connect 100 0 53 3;
#X connect 101 0 53 4;
#X connect 102 0 110 0;
#X connect 103 0 62 0;
#X connect 103 0 63 0;
#X connect 103 0 64 0;
#X connect 103 0 65 0;
#X connect 103 0 66 0;
#X connect 103 0 67 0;
#X connect 103 0 68 0;
#X connect 103 0 69 0;
#X connect 103 0 41 0;
#X connect 103 0 46 0;
#X connect 103 0 48 0;
#X connect 103 0 49 0;
#X connect 103 0 51 0;
#X connect 103 0 52 0;
#X connect 103 0 54 0;
#X connect 103 0 55 0;
#X connect 104 0 70 0;
#X connect 104 0 71 0;
#X connect 104 0 72 0;
#X connect 104 0 73 0;
#X connect 104 0 74 0;
#X connect 104 0 75 0;
#X connect 104 0 76 0;
#X connect 104 0 77 0;
#X connect 104 0 41 0;
#X connect 104 0 46 0;
#X connect 104 0 48 0;
#X connect 104 0 49 0;
#X connect 104 0 51 0;
#X connect 104 0 52 0;
#X connect 104 0 54 0;
#X connect 104 0 55 0;
#X connect 105 0 78 0;
#X connect 105 0 79 0;
#X connect 105 0 80 0;
#X connect 105 0 81 0;
#X connect 105 0 82 0;
#X connect 105 0 83 0;
#X connect 105 0 84 0;
#X connect 105 0 85 0;
#X connect 105 0 41 0;
#X connect 105 0 46 0;
#X connect 105 0 48 0;
#X connect 105 0 49 0;
#X connect 105 0 51 0;
#X connect 105 0 52 0;
#X connect 105 0 54 0;
#X connect 105 0 55 0;
#X connect 106 0 86 0;
#X connect 106 0 87 0;
#X connect 106 0 88 0;
#X connect 106 0 89 0;
#X connect 106 0 90 0;
#X connect 106 0 91 0;
#X connect 106 0 92 0;
#X connect 106 0 93 0;
#X connect 106 0 41 0;
#X connect 106 0 46 0;
#X connect 106 0 48 0;
#X connect 106 0 49 0;
#X connect 106 0 51 0;
#X connect 106 0 52 0;
#X connect 106 0 54 0;
#X connect 106 0 55 0;
#X connect 107 0 108 0;
#X connect 108 0 103 0;
#X connect 108 1 104 0;
#X connect 108 2 105 0;
#X connect 108 3 106 0;
#X connect 108 4 109 0;
#X connect 109 0 94 0;
#X connect 109 0 95 0;
#X connect 109 0 98 0;
#X connect 109 0 99 0;
#X connect 109 0 96 0;
#X connect 109 0 97 0;
#X connect 109 0 100 0;
#X connect 109 0 101 0;
#X connect 109 0 41 0;
#X connect 109 0 46 0;
#X connect 109 0 48 0;
#X connect 109 0 49 0;
#X connect 109 0 51 0;
#X connect 109 0 52 0;
#X connect 109 0 54 0;
#X connect 109 0 55 0;
#X connect 110 0 111 0;
#X connect 110 0 115 0;
#X connect 111 0 110 1;
#X connect 112 0 110 0;
#X connect 113 0 116 0;
#X connect 114 0 117 0;
#X connect 115 0 114 0;
#X connect 116 0 112 0;
#X connect 117 0 107 0;
