#N canvas -158 -1052 1920 1080 12;
#X msg 132 178 listen 9000;
#X obj 132 203 netreceive -u -b;
#X obj 132 231 oscparse;
#X obj 132 17 loadbang;
#X msg 153 92 \; pd dsp 1;
#X text 209 19 Onload Turn on Audio and start OSC listening;
#X obj 158 62 send load;
#X msg 357 64 listen 10000;
#X obj 357 97 netreceive -u -b;
#X obj 357 125 oscparse;
#X floatatom 942 115 5 0 0 0 - - - 0;
#X floatatom 990 106 5 0 0 0 - - - 0;
#X floatatom 1036 109 5 0 0 0 - - - 0;
#X floatatom 1085 109 5 0 0 0 - - - 0;
#X obj 357 165 unpack string float float float float;
#X text 487 114 NEGATIVE;
#X obj 135 315 unpack string float float float float;
#X floatatom 167 387 5 0 0 0 - - - 0;
#X floatatom 223 397 5 0 0 0 - - - 0;
#X floatatom 309 398 5 0 0 0 - - - 0;
#X floatatom 378 400 5 0 0 0 - - - 0;
#N canvas 515 182 944 544 player 0;
#X obj 36 90 loadbang;
#X obj 14 185 openpanel;
#X obj 11 235 symbol;
#X obj 163 142 bng 15 250 50 0 empty empty File 17 7 0 10 #fcfcfc #000000 #000000;
#X obj 163 164 bng 15 250 50 0 empty empty play 17 7 0 10 #00fc04 #000000 #000000;
#X msg 1 134 symbol;
#X msg 10 263 open \$1 \, 1;
#X obj 10 298 readsf~ 2;
#X obj 11 341 outlet~;
#X obj 163 187 bng 15 250 50 0 empty empty stop 17 7 0 10 #fc0400 #000000 #000000;
#X msg 145 261 0;
#X obj 141 295 spigot;
#X obj 186 259 r \$0-loop;
#X obj 163 209 tgl 15 0 empty empty loop 17 7 0 10 #fcfcfc #000000 #000000 0 1;
#X obj 82 342 outlet~;
#X connect 0 0 5 0;
#X connect 1 0 2 1;
#X connect 2 0 6 0;
#X connect 3 0 1 0;
#X connect 4 0 2 0;
#X connect 6 0 7 0;
#X connect 7 0 8 0;
#X connect 7 1 14 0;
#X connect 7 2 11 0;
#X connect 9 0 10 0;
#X connect 10 0 7 0;
#X connect 11 0 2 0;
#X connect 12 0 11 1;
#X coords 0 -1 1 1 150 150 1 100 100;
#X restore 67 679 pd player;
#X obj 893 983 dac~;
#N canvas 792 -1055 958 999 POSITIVE 0;
#X msg 273 184 param_set 0 \$1;
#X obj 279 151 hsl 128 15 0 1 0 0 empty empty empty -2 -8 0 10 #fcfcfc #000000 #000000 0 1;
#X msg 86 253 param_set 3 \$1;
#X obj 101 221 hsl 128 15 0 1 0 0 empty empty empty -2 -8 0 10 #fcfcfc #000000 #000000 0 1;
#X obj 522 80 inlet~;
#X obj 585 80 inlet~;
#X obj 459 677 outlet~;
#X obj 539 678 outlet~;
#X text 526 46 Audio In;
#X text 361 689 Audio out;
#X text 145 29 Vectors In;
#X obj 104 91 inlet;
#X obj 206 90 inlet;
#X obj 156 90 inlet;
#X obj 257 89 inlet;
#N canvas -158 -1052 958 999 ValhallaFreqEcho 0;
#X obj 453 309 vstplugin~;
#X msg 690 246 open -e ValhallaFreqEcho.vst;
#X obj 76 69 inlet~;
#X obj 139 69 inlet~;
#X obj 897 148 loadbang;
#X text 99 36 Audio In;
#X obj 66 704 outlet~;
#X obj 129 704 outlet~;
#X text 89 737 Audio out;
#X msg 26 232 param_list;
#N canvas 101 355 608 488 message-out 0;
#X obj 20 17 inlet;
#X obj 20 83 s \$0-program-data;
#X obj 20 50 route program_data bank_data, f 39;
#X obj 155 83 s \$0-bank-data;
#X obj 342 132 print;
#X obj 342 105 spigot 1;
#X obj 411 105 tgl 19 0 empty empty empty 17 7 0 10 #fcfcfc #000000 #000000 0 1;
#X text 437 104 print messages;
#X obj 310 77 s \$0-out;
#X obj 310 50 t a a;
#X msg 28 188 param_automated <index> <value>;
#X msg 28 224 latency <numsamples>;
#X msg 30 287 midi <bytes...>;
#X msg 29 324 sysex <bytes...>;
#X text 263 182 a parameter has been changed in the GUI (or by changing a linked parameter)., f 40;
#X text 182 224 the plugin's internal processing latency has changed;
#X text 159 287 a MIDI message sent by the plugin;
#X text 159 324 a SysEx message sent by the plugin;
#X text 183 242 NOTE: the value includes the additional latency caused by multithreading (see the "-t" flag for "open"), f 55;
#X msg 29 397 crash;
#X text 381 76 goes to vstpresetbrowser;
#X text 21 111 see [pd preset];
#X text 93 398 the plugin subprocess has crashed.;
#X text 94 416 This is only sent for bridged or sandboxed plugins \, because normal plugins would simply crash Pd., f 52;
#X msg 29 361 update;
#X text 97 362 multiple parameters have changed internally;
#X obj 25 153 cnv 15 70 20 empty empty empty 20 12 0 14 #dcdcdc #404040 0;
#X text 31 154 events:;
#X connect 0 0 2 0;
#X connect 2 0 1 0;
#X connect 2 1 3 0;
#X connect 2 2 9 0;
#X connect 5 0 4 0;
#X connect 6 0 5 1;
#X connect 9 0 8 0;
#X connect 9 1 5 0;
#X restore 713 406 pd message-out;
#X connect 0 0 6 0;
#X connect 0 1 7 0;
#X connect 0 2 10 0;
#X connect 1 0 0 0;
#X connect 2 0 0 0;
#X connect 3 0 0 1;
#X connect 4 0 1 0;
#X connect 9 0 0 0;
#X restore 782 318 pd ValhallaFreqEcho;
#N canvas 89 38 1406 862 MCompressor 0;
#X obj 453 309 vstplugin~;
#X obj 76 69 inlet~;
#X obj 139 69 inlet~;
#X obj 897 148 loadbang;
#X text 99 36 Audio In;
#X obj 66 704 outlet~;
#X obj 129 704 outlet~;
#X text 89 737 Audio out;
#X msg 26 232 param_list;
#N canvas 101 355 608 488 message-out 0;
#X obj 20 17 inlet;
#X obj 20 83 s \$0-program-data;
#X obj 20 50 route program_data bank_data, f 39;
#X obj 155 83 s \$0-bank-data;
#X obj 342 132 print;
#X obj 342 105 spigot 1;
#X obj 411 105 tgl 19 0 empty empty empty 17 7 0 10 #fcfcfc #000000 #000000 0 1;
#X text 437 104 print messages;
#X obj 310 77 s \$0-out;
#X obj 310 50 t a a;
#X msg 28 188 param_automated <index> <value>;
#X msg 28 224 latency <numsamples>;
#X msg 30 287 midi <bytes...>;
#X msg 29 324 sysex <bytes...>;
#X text 263 182 a parameter has been changed in the GUI (or by changing a linked parameter)., f 40;
#X text 182 224 the plugin's internal processing latency has changed;
#X text 159 287 a MIDI message sent by the plugin;
#X text 159 324 a SysEx message sent by the plugin;
#X text 183 242 NOTE: the value includes the additional latency caused by multithreading (see the "-t" flag for "open"), f 55;
#X msg 29 397 crash;
#X text 381 76 goes to vstpresetbrowser;
#X text 21 111 see [pd preset];
#X text 93 398 the plugin subprocess has crashed.;
#X text 94 416 This is only sent for bridged or sandboxed plugins \, because normal plugins would simply crash Pd., f 52;
#X msg 29 361 update;
#X text 97 362 multiple parameters have changed internally;
#X obj 25 153 cnv 15 70 20 empty empty empty 20 12 0 14 #dcdcdc #404040 0;
#X text 31 154 events:;
#X connect 0 0 2 0;
#X connect 2 0 1 0;
#X connect 2 1 3 0;
#X connect 2 2 9 0;
#X connect 5 0 4 0;
#X connect 6 0 5 1;
#X connect 9 0 8 0;
#X connect 9 1 5 0;
#X restore 713 406 pd message-out;
#X msg 690 246 open -e MCompressor.vst3;
#X connect 0 0 5 0;
#X connect 0 1 6 0;
#X connect 0 2 9 0;
#X connect 1 0 0 0;
#X connect 2 0 0 1;
#X connect 3 0 10 0;
#X connect 8 0 0 0;
#X connect 10 0 0 0;
#X restore 1424 218 pd MCompressor;
#N canvas 125 -1045 1512 982 ValhallaSpaceModulator 0;
#X obj 453 309 vstplugin~;
#X obj 76 69 inlet~;
#X obj 139 69 inlet~;
#X obj 897 148 loadbang;
#X text 99 36 Audio In;
#X obj 66 704 outlet~;
#X obj 129 704 outlet~;
#X text 89 737 Audio out;
#X msg 26 232 param_list;
#N canvas 101 355 608 488 message-out 0;
#X obj 20 17 inlet;
#X obj 20 83 s \$0-program-data;
#X obj 20 50 route program_data bank_data, f 39;
#X obj 155 83 s \$0-bank-data;
#X obj 342 132 print;
#X obj 342 105 spigot 1;
#X obj 411 105 tgl 19 0 empty empty empty 17 7 0 10 #fcfcfc #000000 #000000 0 1;
#X text 437 104 print messages;
#X obj 310 77 s \$0-out;
#X obj 310 50 t a a;
#X msg 28 188 param_automated <index> <value>;
#X msg 28 224 latency <numsamples>;
#X msg 30 287 midi <bytes...>;
#X msg 29 324 sysex <bytes...>;
#X text 263 182 a parameter has been changed in the GUI (or by changing a linked parameter)., f 40;
#X text 182 224 the plugin's internal processing latency has changed;
#X text 159 287 a MIDI message sent by the plugin;
#X text 159 324 a SysEx message sent by the plugin;
#X text 183 242 NOTE: the value includes the additional latency caused by multithreading (see the "-t" flag for "open"), f 55;
#X msg 29 397 crash;
#X text 381 76 goes to vstpresetbrowser;
#X text 21 111 see [pd preset];
#X text 93 398 the plugin subprocess has crashed.;
#X text 94 416 This is only sent for bridged or sandboxed plugins \, because normal plugins would simply crash Pd., f 52;
#X msg 29 361 update;
#X text 97 362 multiple parameters have changed internally;
#X obj 25 153 cnv 15 70 20 empty empty empty 20 12 0 14 #dcdcdc #404040 0;
#X text 31 154 events:;
#X connect 0 0 2 0;
#X connect 2 0 1 0;
#X connect 2 1 3 0;
#X connect 2 2 9 0;
#X connect 5 0 4 0;
#X connect 6 0 5 1;
#X connect 9 0 8 0;
#X connect 9 1 5 0;
#X restore 713 406 pd message-out;
#X msg 690 246 open -e ValhallaSpaceModulator.vst;
#X connect 0 0 5 0;
#X connect 0 1 6 0;
#X connect 0 2 9 0;
#X connect 1 0 0 0;
#X connect 2 0 0 1;
#X connect 3 0 10 0;
#X connect 8 0 0 0;
#X connect 10 0 0 0;
#X restore 736 380 pd ValhallaSpaceModulator;
#N canvas -158 -1055 1920 1027 ValhallaSuperMassive 0;
#X obj 453 309 vstplugin~;
#X obj 76 69 inlet~;
#X obj 139 69 inlet~;
#X obj 897 148 loadbang;
#X text 99 36 Audio In;
#X obj 66 704 outlet~;
#X obj 129 704 outlet~;
#X text 89 737 Audio out;
#X msg 26 232 param_list;
#N canvas 101 355 608 488 message-out 0;
#X obj 20 17 inlet;
#X obj 20 83 s \$0-program-data;
#X obj 20 50 route program_data bank_data, f 39;
#X obj 155 83 s \$0-bank-data;
#X obj 342 132 print;
#X obj 342 105 spigot 1;
#X obj 411 105 tgl 19 0 empty empty empty 17 7 0 10 #fcfcfc #000000 #000000 0 1;
#X text 437 104 print messages;
#X obj 310 77 s \$0-out;
#X obj 310 50 t a a;
#X msg 28 188 param_automated <index> <value>;
#X msg 28 224 latency <numsamples>;
#X msg 30 287 midi <bytes...>;
#X msg 29 324 sysex <bytes...>;
#X text 263 182 a parameter has been changed in the GUI (or by changing a linked parameter)., f 40;
#X text 182 224 the plugin's internal processing latency has changed;
#X text 159 287 a MIDI message sent by the plugin;
#X text 159 324 a SysEx message sent by the plugin;
#X text 183 242 NOTE: the value includes the additional latency caused by multithreading (see the "-t" flag for "open"), f 55;
#X msg 29 397 crash;
#X text 381 76 goes to vstpresetbrowser;
#X text 21 111 see [pd preset];
#X text 93 398 the plugin subprocess has crashed.;
#X text 94 416 This is only sent for bridged or sandboxed plugins \, because normal plugins would simply crash Pd., f 52;
#X msg 29 361 update;
#X text 97 362 multiple parameters have changed internally;
#X obj 25 153 cnv 15 70 20 empty empty empty 20 12 0 14 #dcdcdc #404040 0;
#X text 31 154 events:;
#X connect 0 0 2 0;
#X connect 2 0 1 0;
#X connect 2 1 3 0;
#X connect 2 2 9 0;
#X connect 5 0 4 0;
#X connect 6 0 5 1;
#X connect 9 0 8 0;
#X connect 9 1 5 0;
#X restore 713 406 pd message-out;
#X msg 690 246 open -e ValhallaSuperMassive.vst;
#X connect 0 0 5 0;
#X connect 0 1 6 0;
#X connect 0 2 9 0;
#X connect 1 0 0 0;
#X connect 2 0 0 1;
#X connect 3 0 10 0;
#X connect 8 0 0 0;
#X connect 10 0 0 0;
#X restore 728 442 pd ValhallaSuperMassive;
#N canvas 804 -1055 958 999 PaulXStretch 0;
#X obj 453 309 vstplugin~;
#X obj 76 69 inlet~;
#X obj 139 69 inlet~;
#X obj 897 148 loadbang;
#X text 99 36 Audio In;
#X obj 66 704 outlet~;
#X obj 129 704 outlet~;
#X text 89 737 Audio out;
#X msg 26 232 param_list;
#N canvas 101 355 608 488 message-out 0;
#X obj 20 17 inlet;
#X obj 20 83 s \$0-program-data;
#X obj 20 50 route program_data bank_data, f 39;
#X obj 155 83 s \$0-bank-data;
#X obj 342 132 print;
#X obj 342 105 spigot 1;
#X obj 411 105 tgl 19 0 empty empty empty 17 7 0 10 #fcfcfc #000000 #000000 0 1;
#X text 437 104 print messages;
#X obj 310 77 s \$0-out;
#X obj 310 50 t a a;
#X msg 28 188 param_automated <index> <value>;
#X msg 28 224 latency <numsamples>;
#X msg 30 287 midi <bytes...>;
#X msg 29 324 sysex <bytes...>;
#X text 263 182 a parameter has been changed in the GUI (or by changing a linked parameter)., f 40;
#X text 182 224 the plugin's internal processing latency has changed;
#X text 159 287 a MIDI message sent by the plugin;
#X text 159 324 a SysEx message sent by the plugin;
#X text 183 242 NOTE: the value includes the additional latency caused by multithreading (see the "-t" flag for "open"), f 55;
#X msg 29 397 crash;
#X text 381 76 goes to vstpresetbrowser;
#X text 21 111 see [pd preset];
#X text 93 398 the plugin subprocess has crashed.;
#X text 94 416 This is only sent for bridged or sandboxed plugins \, because normal plugins would simply crash Pd., f 52;
#X msg 29 361 update;
#X text 97 362 multiple parameters have changed internally;
#X obj 25 153 cnv 15 70 20 empty empty empty 20 12 0 14 #dcdcdc #404040 0;
#X text 31 154 events:;
#X connect 0 0 2 0;
#X connect 2 0 1 0;
#X connect 2 1 3 0;
#X connect 2 2 9 0;
#X connect 5 0 4 0;
#X connect 6 0 5 1;
#X connect 9 0 8 0;
#X connect 9 1 5 0;
#X restore 713 406 pd message-out;
#X msg 690 246 open -e PaulXStretch.vst3;
#X obj 418 64 inlet;
#X connect 0 0 5 0;
#X connect 0 1 6 0;
#X connect 0 2 9 0;
#X connect 1 0 0 0;
#X connect 2 0 0 1;
#X connect 3 0 10 0;
#X connect 8 0 0 0;
#X connect 10 0 0 0;
#X connect 11 0 0 0;
#X restore 534 179 pd PaulXStretch;
#N canvas 1052 -933 450 300 mSpectralExpander 1;
#X restore 1357 419 pd mSpectralExpander;
#N canvas -158 -1055 1920 1027 Scatter 0;
#X obj 453 309 vstplugin~;
#X obj 76 69 inlet~;
#X obj 139 69 inlet~;
#X obj 897 148 loadbang;
#X text 99 36 Audio In;
#X obj 66 704 outlet~;
#X obj 129 704 outlet~;
#X text 89 737 Audio out;
#X msg 26 232 param_list;
#N canvas 101 355 608 488 message-out 0;
#X obj 20 17 inlet;
#X obj 20 83 s \$0-program-data;
#X obj 20 50 route program_data bank_data, f 39;
#X obj 155 83 s \$0-bank-data;
#X obj 342 132 print;
#X obj 342 105 spigot 1;
#X obj 411 105 tgl 19 0 empty empty empty 17 7 0 10 #fcfcfc #000000 #000000 0 1;
#X text 437 104 print messages;
#X obj 310 77 s \$0-out;
#X obj 310 50 t a a;
#X msg 28 188 param_automated <index> <value>;
#X msg 28 224 latency <numsamples>;
#X msg 30 287 midi <bytes...>;
#X msg 29 324 sysex <bytes...>;
#X text 263 182 a parameter has been changed in the GUI (or by changing a linked parameter)., f 40;
#X text 182 224 the plugin's internal processing latency has changed;
#X text 159 287 a MIDI message sent by the plugin;
#X text 159 324 a SysEx message sent by the plugin;
#X text 183 242 NOTE: the value includes the additional latency caused by multithreading (see the "-t" flag for "open"), f 55;
#X msg 29 397 crash;
#X text 381 76 goes to vstpresetbrowser;
#X text 21 111 see [pd preset];
#X text 93 398 the plugin subprocess has crashed.;
#X text 94 416 This is only sent for bridged or sandboxed plugins \, because normal plugins would simply crash Pd., f 52;
#X msg 29 361 update;
#X text 97 362 multiple parameters have changed internally;
#X obj 25 153 cnv 15 70 20 empty empty empty 20 12 0 14 #dcdcdc #404040 0;
#X text 31 154 events:;
#X connect 0 0 2 0;
#X connect 2 0 1 0;
#X connect 2 1 3 0;
#X connect 2 2 9 0;
#X connect 5 0 4 0;
#X connect 6 0 5 1;
#X connect 9 0 8 0;
#X connect 9 1 5 0;
#X restore 713 406 pd message-out;
#X msg 690 246 open -e Scatter_Demo.vst3;
#X connect 0 0 5 0;
#X connect 0 1 6 0;
#X connect 0 2 9 0;
#X connect 1 0 0 0;
#X connect 2 0 0 1;
#X connect 3 0 10 0;
#X connect 8 0 0 0;
#X connect 10 0 0 0;
#X restore 800 263 pd Scatter;
#X connect 1 0 0 0;
#X connect 2 0 19 2;
#X connect 3 0 2 0;
#X connect 11 0 3 0;
#X restore 416 590 pd POSITIVE;
#X f 27;
#X msg 724 42 open drone.wav;
#X obj 724 89 readsf~ 2;
#X obj 1220 181 *~;
#X obj 1256 184 *~;
#X obj 1617 404 vu 15 120 empty empty -1 -8 0 10 #404040 #000000 1 0;
#N canvas 94 261 626 477 vu 0;
#X obj 59 129 env~ 1024;
#X obj 161 111 abs~;
#X obj 161 213 snapshot~;
#X obj 161 256 rmstodb;
#X obj 161 21 inlet~;
#X obj 161 288 - 100;
#X obj 59 287 - 100;
#X obj 59 361 outlet;
#X obj 161 361 outlet;
#X obj 239 89 expr 1000 / $f1;
#X floatatom 239 117 5 0 0 0 - - - 0;
#X obj 161 146 slop~ 0 0 0 0 1e+09;
#X obj 239 18 inlet;
#X floatatom 239 57 5 0 0 0 - - - 0;
#X text 282 118 hz;
#X text 284 57 peak decay time in ms;
#X obj 59 171 t f b;
#X connect 0 0 16 0;
#X connect 1 0 11 0;
#X connect 2 0 3 0;
#X connect 3 0 5 0;
#X connect 4 0 0 0;
#X connect 4 0 1 0;
#X connect 5 0 8 0;
#X connect 6 0 7 0;
#X connect 9 0 10 0;
#X connect 10 0 11 3;
#X connect 11 0 2 0;
#X connect 12 0 13 0;
#X connect 13 0 9 0;
#X connect 16 0 6 0;
#X connect 16 1 2 0;
#X restore 1610 356 pd vu;
#X msg 1653 577 0;
#X msg 1656 559 0;
#X msg 1710 322 500;
#X text 1714 581 RMS;
#X text 1708 562 Peak, f 7;
#X text 1752 322 peak decay;
#X obj 1485 749 vu 15 120 empty empty -1 -8 0 10 #404040 #000000 1 0;
#N canvas 94 261 626 477 vu 0;
#X obj 59 129 env~ 1024;
#X obj 161 111 abs~;
#X obj 161 213 snapshot~;
#X obj 161 256 rmstodb;
#X obj 161 21 inlet~;
#X obj 161 288 - 100;
#X obj 59 287 - 100;
#X obj 59 361 outlet;
#X obj 161 361 outlet;
#X obj 239 89 expr 1000 / $f1;
#X floatatom 239 117 5 0 0 0 - - - 0;
#X obj 161 146 slop~ 0 0 0 0 1e+09;
#X obj 239 18 inlet;
#X floatatom 239 57 5 0 0 0 - - - 0;
#X text 282 118 hz;
#X text 284 57 peak decay time in ms;
#X obj 59 171 t f b;
#X connect 0 0 16 0;
#X connect 1 0 11 0;
#X connect 2 0 3 0;
#X connect 3 0 5 0;
#X connect 4 0 0 0;
#X connect 4 0 1 0;
#X connect 5 0 8 0;
#X connect 6 0 7 0;
#X connect 9 0 10 0;
#X connect 10 0 11 3;
#X connect 11 0 2 0;
#X connect 12 0 13 0;
#X connect 13 0 9 0;
#X connect 16 0 6 0;
#X connect 16 1 2 0;
#X restore 1478 701 pd vu;
#X msg 1506 938 0;
#X msg 1524 904 0;
#X msg 1578 667 500;
#X text 1567 942 RMS;
#X text 1576 907 Peak, f 7;
#X text 1620 667 peak decay;
#N canvas 1029 159 320 331 open 0;
#X obj 37 301 outlet~;
#X obj 99 301 outlet~;
#X obj 108 124 bng 19 250 50 0 empty empty file 23 11 0 12 #fcfcfc #000000 #000000;
#X msg 25 121 symbol;
#X obj 25 97 loadbang;
#X obj 28 165 openpanel;
#X obj 108 147 bng 19 250 50 0 empty empty play 23 11 0 12 #00fc04 #000000 #000000;
#X obj 108 170 bng 19 250 50 0 empty empty stop 23 11 0 12 #fc0400 #000000 #000000;
#X obj 36 204 symbol;
#X obj 36 262 readsf~ 2;
#X obj 108 194 tgl 19 0 \$0-loop \$0-loop loop 23 11 0 12 #fcfcfc #000000 #000000 0 1;
#X msg 121 232 0;
#X obj 113 263 spigot;
#X msg 36 232 open \$1 \, 1;
#X text 107 104 Player;
#X obj 152 235 r \$0-loop;
#X connect 2 0 5 0;
#X connect 4 0 3 0;
#X connect 5 0 8 1;
#X connect 6 0 8 0;
#X connect 7 0 11 0;
#X connect 8 0 13 0;
#X connect 9 0 0 0;
#X connect 9 1 1 0;
#X connect 9 2 12 0;
#X connect 11 0 9 0;
#X connect 12 0 8 0;
#X connect 13 0 9 0;
#X connect 15 0 12 1;
#X coords 0 -1 1 1 76 120 2 100 100;
#X restore 1337 91 pd open;
#N canvas -54 -1021 1453 837 RAVE 0;
#X obj 635 49 nn~ semantic-model-1.ts encode;
#X obj 709 608 nn~ semantic-model-1.ts decode;
#X obj 91 251 hsl 128 15 -10 10 0 0 empty empty empty -2 -8 0 10 #fcfcfc #000000 #000000 0 1;
#X obj 84 211 line;
#X msg 85 191 \$1 1000;
#X obj 118 58 inlet;
#X obj 273 50 inlet;
#X obj 499 51 inlet;
#X obj 949 46 inlet;
#X obj 737 666 outlet~;
#X obj 806 672 outlet~;
#X obj 278 189 hsl 128 15 -10 10 0 0 empty empty empty -2 -8 0 10 #fcfcfc #000000 #000000 0 1;
#X obj 260 120 line;
#X msg 261 100 \$1 1000;
#X obj 428 315 hsl 128 15 -5 5 0 0 empty empty empty -2 -8 0 10 #fcfcfc #000000 #000000 0 1;
#X obj 262 352 line;
#X msg 271 276 \$1 1000;
#X obj 993 239 hsl 128 15 -5 5 0 0 empty empty empty -2 -8 0 10 #fcfcfc #000000 #000000 0 1;
#X obj 988 206 line;
#X msg 989 186 \$1 1000;
#X obj 596 94 snapshot~;
#X obj 541 219 nbx 5 17 -5 5 0 0 empty empty empty 0 -10 0 12 #fcfcfc #000000 #000000 0 256;
#X obj 542 259 sig~;
#X obj 616 179 snapshot~;
#X obj 617 222 nbx 5 17 -5 5 0 0 empty empty empty 0 -10 0 12 #fcfcfc #000000 #000000 0 256;
#X obj 612 258 sig~;
#X obj 697 162 snapshot~;
#X obj 698 205 nbx 5 17 -5 5 0 0 empty empty empty 0 -10 0 12 #fcfcfc #000000 #000000 0 256;
#X obj 773 165 snapshot~;
#X obj 774 208 nbx 5 17 -5 5 0 0 empty empty empty 0 -10 0 12 #fcfcfc #000000 #000000 0 256;
#X obj 698 261 sig~;
#X obj 657 256 sig~;
#X obj 847 167 snapshot~;
#X obj 848 210 nbx 5 17 -5 5 0 0 empty empty empty 0 -10 0 12 #fcfcfc #000000 #000000 0 256;
#X obj 773 255 sig~;
#X floatatom 578 135 5 0 0 0 - - - 0;
#X floatatom 427 367 5 0 0 0 - - - 0;
#X obj 485 340 hsl 128 15 -5 5 0 0 empty empty empty -2 -8 0 10 #fcfcfc #000000 #000000 0 1;
#X floatatom 484 392 5 0 0 0 - - - 0;
#X obj 542 359 hsl 128 15 -5 5 0 0 empty empty empty -2 -8 0 10 #fcfcfc #000000 #000000 0 1;
#X floatatom 541 411 5 0 0 0 - - - 0;
#X obj 602 381 hsl 128 15 -5 5 0 0 empty empty empty -2 -8 0 10 #fcfcfc #000000 #000000 0 1;
#X floatatom 601 433 5 0 0 0 - - - 0;
#X obj 653 404 hsl 128 15 -5 5 0 0 empty empty empty -2 -8 0 10 #fcfcfc #000000 #000000 0 1;
#X floatatom 652 456 5 0 0 0 - - - 0;
#X obj 695 426 hsl 128 15 -5 5 0 0 empty empty empty -2 -8 0 10 #fcfcfc #000000 #000000 0 1;
#X floatatom 694 478 5 0 0 0 - - - 0;
#X obj 858 372 hsl 128 15 -5 5 0 0 empty empty empty -2 -8 0 10 #fcfcfc #000000 #000000 0 1;
#X floatatom 857 424 5 0 0 0 - - - 0;
#X obj 904 394 hsl 128 15 -5 5 0 0 empty empty empty -2 -8 0 10 #fcfcfc #000000 #000000 0 1;
#X floatatom 903 446 5 0 0 0 - - - 0;
#X obj 952 417 hsl 128 15 -5 5 0 0 empty empty empty -2 -8 0 10 #fcfcfc #000000 #000000 0 1;
#X floatatom 951 469 5 0 0 0 - - - 0;
#X obj 995 435 hsl 128 15 -5 5 0 0 empty empty empty -2 -8 0 10 #fcfcfc #000000 #000000 0 1;
#X floatatom 994 487 5 0 0 0 - - - 0;
#X obj 1036 452 hsl 128 15 -5 5 0 0 empty empty empty -2 -8 0 10 #fcfcfc #000000 #000000 0 1;
#X floatatom 1035 504 5 0 0 0 - - - 0;
#X obj 1077 471 hsl 128 15 -5 5 0 0 empty empty empty -2 -8 0 10 #fcfcfc #000000 #000000 0 1;
#X floatatom 1076 523 5 0 0 0 - - - 0;
#X obj 918 681 hsl 128 15 -5 5 0 0 empty empty empty -2 -8 0 10 #fcfcfc #000000 #000000 0 1;
#X floatatom 917 733 5 0 0 0 - - - 0;
#X obj 1066 621 hsl 128 15 -5 5 0 0 empty empty empty -2 -8 0 10 #fcfcfc #000000 #000000 0 1;
#X floatatom 1064 639 5 0 0 0 - - - 0;
#X obj 1104 662 hsl 128 15 -5 5 0 0 empty empty empty -2 -8 0 10 #fcfcfc #000000 #000000 0 1;
#X floatatom 1103 714 5 0 0 0 - - - 0;
#X obj 1120 569 hsl 128 15 -5 5 0 0 empty empty empty -2 -8 0 10 #fcfcfc #000000 #000000 0 1;
#X floatatom 1118 587 5 0 0 0 - - - 0;
#X connect 0 0 20 0;
#X connect 4 0 3 0;
#X connect 5 0 4 0;
#X connect 6 0 13 0;
#X connect 7 0 16 0;
#X connect 8 0 19 0;
#X connect 13 0 12 0;
#X connect 14 0 36 0;
#X connect 16 0 15 0;
#X connect 19 0 18 0;
#X connect 20 0 35 0;
#X connect 21 0 22 0;
#X connect 23 0 24 0;
#X connect 24 0 25 0;
#X connect 26 0 27 0;
#X connect 27 0 31 0;
#X connect 28 0 29 0;
#X connect 29 0 30 0;
#X connect 32 0 33 0;
#X connect 33 0 34 0;
#X connect 36 0 1 0;
#X connect 37 0 38 0;
#X connect 38 0 1 1;
#X connect 39 0 40 0;
#X connect 40 0 1 2;
#X connect 41 0 42 0;
#X connect 42 0 1 3;
#X connect 43 0 44 0;
#X connect 44 0 1 4;
#X connect 45 0 46 0;
#X connect 46 0 1 5;
#X connect 47 0 48 0;
#X connect 48 0 1 6;
#X connect 49 0 50 0;
#X connect 50 0 1 7;
#X connect 51 0 52 0;
#X connect 52 0 1 8;
#X connect 53 0 54 0;
#X connect 54 0 1 9;
#X connect 55 0 56 0;
#X connect 56 0 1 10;
#X connect 57 0 58 0;
#X connect 58 0 1 11;
#X connect 59 0 60 0;
#X connect 60 0 1 12;
#X connect 61 0 62 0;
#X connect 62 0 1 13;
#X connect 63 0 64 0;
#X connect 64 0 1 14;
#X connect 65 0 66 0;
#X connect 66 0 1 15;
#X restore 1136 265 pd RAVE;
#N canvas -127 -995 1046 860 NEGATIVE_Drone 0;
#X msg 273 184 param_set 0 \$1;
#X obj 288 150 hsl 128 15 0 1 0 0 empty empty empty -2 -8 0 10 #fcfcfc #000000 #000000 0 1;
#X msg 71 321 param_set 3 \$1;
#X obj 76 303 hsl 128 15 0 1 0 0 empty empty empty -2 -8 0 10 #fcfcfc #000000 #000000 0 1;
#X obj 517 79 inlet~;
#X obj 574 77 inlet~;
#X obj 459 677 outlet~;
#X obj 539 678 outlet~;
#X text 526 46 Audio In;
#X text 361 689 Audio out;
#N canvas 1089 360 753 829 MConvolution 0;
#X obj 276 318 vstplugin~;
#X msg 512 200 open -e MConvolutionEZ.vst3;
#N canvas 101 355 608 488 message-out 0;
#X obj 20 17 inlet;
#X obj 20 83 s \$0-program-data;
#X obj 20 50 route program_data bank_data, f 39;
#X obj 155 83 s \$0-bank-data;
#X obj 342 132 print;
#X obj 342 105 spigot 1;
#X obj 411 105 tgl 19 0 empty empty empty 17 7 0 10 #fcfcfc #000000 #000000 0 1;
#X text 437 104 print messages;
#X obj 310 77 s \$0-out;
#X obj 310 50 t a a;
#X msg 28 188 param_automated <index> <value>;
#X msg 28 224 latency <numsamples>;
#X msg 30 287 midi <bytes...>;
#X msg 29 324 sysex <bytes...>;
#X text 263 182 a parameter has been changed in the GUI (or by changing a linked parameter)., f 40;
#X text 182 224 the plugin's internal processing latency has changed;
#X text 159 287 a MIDI message sent by the plugin;
#X text 159 324 a SysEx message sent by the plugin;
#X text 183 242 NOTE: the value includes the additional latency caused by multithreading (see the "-t" flag for "open"), f 55;
#X msg 29 397 crash;
#X text 381 76 goes to vstpresetbrowser;
#X text 21 111 see [pd preset];
#X text 93 398 the plugin subprocess has crashed.;
#X text 94 416 This is only sent for bridged or sandboxed plugins \, because normal plugins would simply crash Pd., f 52;
#X msg 29 361 update;
#X text 97 362 multiple parameters have changed internally;
#X obj 25 153 cnv 15 70 20 empty empty empty 20 12 0 14 #dcdcdc #404040 0;
#X text 31 154 events:;
#X connect 0 0 2 0;
#X connect 2 0 1 0;
#X connect 2 1 3 0;
#X connect 2 2 9 0;
#X connect 5 0 4 0;
#X connect 6 0 5 1;
#X connect 9 0 8 0;
#X connect 9 1 5 0;
#X restore 568 374 pd message-out;
#X obj 76 69 inlet~;
#X obj 139 69 inlet~;
#X obj 545 122 loadbang;
#X obj 66 704 outlet~;
#X obj 129 704 outlet~;
#X text 99 36 Audio In;
#X text 99 749 Audio out;
#X msg 26 232 param_list;
#X obj 345 42 inlet;
#X obj 401 43 inlet;
#X connect 0 0 6 0;
#X connect 0 1 7 0;
#X connect 0 2 2 0;
#X connect 1 0 0 0;
#X connect 3 0 0 0;
#X connect 4 0 0 1;
#X connect 5 0 1 0;
#X connect 10 0 0 0;
#X connect 11 0 0 0;
#X connect 12 0 0 0;
#X restore 470 387 pd MConvolution;
#X text 145 29 Vectors In;
#N canvas 515 147 987 753 MWaveFolder 0;
#X obj 346 331 vstplugin~;
#X msg 723 123 open -e MWaveFolder.vst3;
#N canvas 101 355 608 488 message-out 0;
#X obj 20 17 inlet;
#X obj 20 83 s \$0-program-data;
#X obj 20 50 route program_data bank_data, f 39;
#X obj 155 83 s \$0-bank-data;
#X obj 342 132 print;
#X obj 342 105 spigot 1;
#X obj 411 105 tgl 19 0 empty empty empty 17 7 0 10 #fcfcfc #000000 #000000 0 1;
#X text 437 104 print messages;
#X obj 310 77 s \$0-out;
#X obj 310 50 t a a;
#X msg 28 188 param_automated <index> <value>;
#X msg 28 224 latency <numsamples>;
#X msg 30 287 midi <bytes...>;
#X msg 29 324 sysex <bytes...>;
#X text 263 182 a parameter has been changed in the GUI (or by changing a linked parameter)., f 40;
#X text 182 224 the plugin's internal processing latency has changed;
#X text 159 287 a MIDI message sent by the plugin;
#X text 159 324 a SysEx message sent by the plugin;
#X text 183 242 NOTE: the value includes the additional latency caused by multithreading (see the "-t" flag for "open"), f 55;
#X msg 29 397 crash;
#X text 381 76 goes to vstpresetbrowser;
#X text 21 111 see [pd preset];
#X text 93 398 the plugin subprocess has crashed.;
#X text 94 416 This is only sent for bridged or sandboxed plugins \, because normal plugins would simply crash Pd., f 52;
#X msg 29 361 update;
#X text 97 362 multiple parameters have changed internally;
#X obj 25 153 cnv 15 70 20 empty empty empty 20 12 0 14 #dcdcdc #404040 0;
#X text 31 154 events:;
#X connect 0 0 2 0;
#X connect 2 0 1 0;
#X connect 2 1 3 0;
#X connect 2 2 9 0;
#X connect 5 0 4 0;
#X connect 6 0 5 1;
#X connect 9 0 8 0;
#X connect 9 1 5 0;
#X restore 446 402 pd message-out;
#X obj 67 53 inlet~;
#X obj 130 53 inlet~;
#X obj 723 76 loadbang;
#X msg 23 208 param_list;
#X obj 153 614 outlet~;
#X obj 216 614 outlet~;
#X text 167 653 Audio out;
#X text 76 22 Audio In;
#X connect 0 0 7 0;
#X connect 0 1 8 0;
#X connect 0 2 2 0;
#X connect 1 0 0 0;
#X connect 3 0 0 0;
#X connect 4 0 0 1;
#X connect 5 0 1 0;
#X connect 6 0 0 0;
#X restore 753 280 pd MWaveFolder;
#X obj 98 95 inlet;
#X obj 206 90 inlet;
#X obj 156 91 inlet;
#X obj 257 89 inlet;
#N canvas 490 188 1022 713 ValhallaFreqEcho 0;
#X obj 453 309 vstplugin~;
#X msg 690 246 open -e ValhallaFreqEcho.vst;
#X obj 76 69 inlet~;
#X obj 139 69 inlet~;
#X obj 897 148 loadbang;
#X text 99 36 Audio In;
#X obj 66 704 outlet~;
#X obj 129 704 outlet~;
#X text 89 737 Audio out;
#X msg 26 232 param_list;
#N canvas 101 355 608 488 message-out 0;
#X obj 20 17 inlet;
#X obj 20 83 s \$0-program-data;
#X obj 20 50 route program_data bank_data, f 39;
#X obj 155 83 s \$0-bank-data;
#X obj 342 132 print;
#X obj 342 105 spigot 1;
#X obj 411 105 tgl 19 0 empty empty empty 17 7 0 10 #fcfcfc #000000 #000000 0 1;
#X text 437 104 print messages;
#X obj 310 77 s \$0-out;
#X obj 310 50 t a a;
#X msg 28 188 param_automated <index> <value>;
#X msg 28 224 latency <numsamples>;
#X msg 30 287 midi <bytes...>;
#X msg 29 324 sysex <bytes...>;
#X text 263 182 a parameter has been changed in the GUI (or by changing a linked parameter)., f 40;
#X text 182 224 the plugin's internal processing latency has changed;
#X text 159 287 a MIDI message sent by the plugin;
#X text 159 324 a SysEx message sent by the plugin;
#X text 183 242 NOTE: the value includes the additional latency caused by multithreading (see the "-t" flag for "open"), f 55;
#X msg 29 397 crash;
#X text 381 76 goes to vstpresetbrowser;
#X text 21 111 see [pd preset];
#X text 93 398 the plugin subprocess has crashed.;
#X text 94 416 This is only sent for bridged or sandboxed plugins \, because normal plugins would simply crash Pd., f 52;
#X msg 29 361 update;
#X text 97 362 multiple parameters have changed internally;
#X obj 25 153 cnv 15 70 20 empty empty empty 20 12 0 14 #dcdcdc #404040 0;
#X text 31 154 events:;
#X connect 0 0 2 0;
#X connect 2 0 1 0;
#X connect 2 1 3 0;
#X connect 2 2 9 0;
#X connect 5 0 4 0;
#X connect 6 0 5 1;
#X connect 9 0 8 0;
#X connect 9 1 5 0;
#X restore 713 406 pd message-out;
#X obj 345 70 inlet;
#X obj 452 71 inlet;
#X connect 0 0 6 0;
#X connect 0 1 7 0;
#X connect 0 2 10 0;
#X connect 1 0 0 0;
#X connect 2 0 0 0;
#X connect 3 0 0 1;
#X connect 4 0 1 0;
#X connect 9 0 0 0;
#X connect 11 0 0 0;
#X connect 12 0 0 0;
#X restore 467 276 pd ValhallaFreqEcho;
#N canvas 618 196 1225 795 MBitFun 0;
#X obj 453 309 vstplugin~;
#X obj 76 69 inlet~;
#X obj 139 69 inlet~;
#X obj 897 148 loadbang;
#X text 99 36 Audio In;
#X obj 66 704 outlet~;
#X obj 129 704 outlet~;
#X text 89 737 Audio out;
#X msg 26 232 param_list;
#N canvas 101 355 608 488 message-out 0;
#X obj 20 17 inlet;
#X obj 20 83 s \$0-program-data;
#X obj 20 50 route program_data bank_data, f 39;
#X obj 155 83 s \$0-bank-data;
#X obj 342 132 print;
#X obj 342 105 spigot 1;
#X obj 411 105 tgl 19 0 empty empty empty 17 7 0 10 #fcfcfc #000000 #000000 0 1;
#X text 437 104 print messages;
#X obj 310 77 s \$0-out;
#X obj 310 50 t a a;
#X msg 28 188 param_automated <index> <value>;
#X msg 28 224 latency <numsamples>;
#X msg 30 287 midi <bytes...>;
#X msg 29 324 sysex <bytes...>;
#X text 263 182 a parameter has been changed in the GUI (or by changing a linked parameter)., f 40;
#X text 182 224 the plugin's internal processing latency has changed;
#X text 159 287 a MIDI message sent by the plugin;
#X text 159 324 a SysEx message sent by the plugin;
#X text 183 242 NOTE: the value includes the additional latency caused by multithreading (see the "-t" flag for "open"), f 55;
#X msg 29 397 crash;
#X text 381 76 goes to vstpresetbrowser;
#X text 21 111 see [pd preset];
#X text 93 398 the plugin subprocess has crashed.;
#X text 94 416 This is only sent for bridged or sandboxed plugins \, because normal plugins would simply crash Pd., f 52;
#X msg 29 361 update;
#X text 97 362 multiple parameters have changed internally;
#X obj 25 153 cnv 15 70 20 empty empty empty 20 12 0 14 #dcdcdc #404040 0;
#X text 31 154 events:;
#X connect 0 0 2 0;
#X connect 2 0 1 0;
#X connect 2 1 3 0;
#X connect 2 2 9 0;
#X connect 5 0 4 0;
#X connect 6 0 5 1;
#X connect 9 0 8 0;
#X connect 9 1 5 0;
#X restore 713 406 pd message-out;
#X msg 690 246 open -e MBitFun.vst3;
#X connect 0 0 5 0;
#X connect 0 1 6 0;
#X connect 0 2 9 0;
#X connect 1 0 0 0;
#X connect 2 0 0 1;
#X connect 3 0 10 0;
#X connect 8 0 0 0;
#X connect 10 0 0 0;
#X restore 752 347 pd MBitFun;
#N canvas 204 148 665 395 Emergence 0;
#X obj 254 82 inlet~;
#X obj 317 82 inlet~;
#X obj 274 216 vstplugin~;
#X msg 480 144 open -e Emergence.vst3;
#X obj 491 86 loadbang;
#N canvas 101 355 608 488 message-out 0;
#X obj 20 17 inlet;
#X obj 20 83 s \$0-program-data;
#X obj 20 50 route program_data bank_data, f 39;
#X obj 155 83 s \$0-bank-data;
#X obj 342 132 print;
#X obj 342 105 spigot 1;
#X obj 411 105 tgl 19 0 empty empty empty 17 7 0 10 #fcfcfc #000000 #000000 0 1;
#X text 437 104 print messages;
#X obj 310 77 s \$0-out;
#X obj 310 50 t a a;
#X msg 28 188 param_automated <index> <value>;
#X msg 28 224 latency <numsamples>;
#X msg 30 287 midi <bytes...>;
#X msg 29 324 sysex <bytes...>;
#X text 263 182 a parameter has been changed in the GUI (or by changing a linked parameter)., f 40;
#X text 182 224 the plugin's internal processing latency has changed;
#X text 159 287 a MIDI message sent by the plugin;
#X text 159 324 a SysEx message sent by the plugin;
#X text 183 242 NOTE: the value includes the additional latency caused by multithreading (see the "-t" flag for "open"), f 55;
#X msg 29 397 crash;
#X text 381 76 goes to vstpresetbrowser;
#X text 21 111 see [pd preset];
#X text 93 398 the plugin subprocess has crashed.;
#X text 94 416 This is only sent for bridged or sandboxed plugins \, because normal plugins would simply crash Pd., f 52;
#X msg 29 361 update;
#X text 97 362 multiple parameters have changed internally;
#X obj 25 153 cnv 15 70 20 empty empty empty 20 12 0 14 #dcdcdc #404040 0;
#X text 31 154 events:;
#X connect 0 0 2 0;
#X connect 2 0 1 0;
#X connect 2 1 3 0;
#X connect 2 2 9 0;
#X connect 5 0 4 0;
#X connect 6 0 5 1;
#X connect 9 0 8 0;
#X connect 9 1 5 0;
#X restore 446 280 pd message-out;
#X obj 234 319 outlet~;
#X obj 314 320 outlet~;
#X msg 60 242 param_list;
#X text 10 269 click to see parameters in console, f 27;
#X connect 0 0 2 0;
#X connect 1 0 2 1;
#X connect 2 0 6 0;
#X connect 2 1 7 0;
#X connect 2 2 5 0;
#X connect 3 0 2 0;
#X connect 4 0 3 0;
#X connect 8 0 2 0;
#X restore 756 502 pd Emergence Granular;
#N canvas 89 65 1406 929 MCompressor 0;
#X obj 453 309 vstplugin~;
#X obj 76 69 inlet~;
#X obj 139 69 inlet~;
#X obj 897 148 loadbang;
#X text 99 36 Audio In;
#X obj 66 704 outlet~;
#X obj 129 704 outlet~;
#X text 89 737 Audio out;
#X msg 26 232 param_list;
#N canvas 101 355 608 488 message-out 0;
#X obj 20 17 inlet;
#X obj 20 83 s \$0-program-data;
#X obj 20 50 route program_data bank_data, f 39;
#X obj 155 83 s \$0-bank-data;
#X obj 342 132 print;
#X obj 342 105 spigot 1;
#X obj 411 105 tgl 19 0 empty empty empty 17 7 0 10 #fcfcfc #000000 #000000 0 1;
#X text 437 104 print messages;
#X obj 310 77 s \$0-out;
#X obj 310 50 t a a;
#X msg 28 188 param_automated <index> <value>;
#X msg 28 224 latency <numsamples>;
#X msg 30 287 midi <bytes...>;
#X msg 29 324 sysex <bytes...>;
#X text 263 182 a parameter has been changed in the GUI (or by changing a linked parameter)., f 40;
#X text 182 224 the plugin's internal processing latency has changed;
#X text 159 287 a MIDI message sent by the plugin;
#X text 159 324 a SysEx message sent by the plugin;
#X text 183 242 NOTE: the value includes the additional latency caused by multithreading (see the "-t" flag for "open"), f 55;
#X msg 29 397 crash;
#X text 381 76 goes to vstpresetbrowser;
#X text 21 111 see [pd preset];
#X text 93 398 the plugin subprocess has crashed.;
#X text 94 416 This is only sent for bridged or sandboxed plugins \, because normal plugins would simply crash Pd., f 52;
#X msg 29 361 update;
#X text 97 362 multiple parameters have changed internally;
#X obj 25 153 cnv 15 70 20 empty empty empty 20 12 0 14 #dcdcdc #404040 0;
#X text 31 154 events:;
#X connect 0 0 2 0;
#X connect 2 0 1 0;
#X connect 2 1 3 0;
#X connect 2 2 9 0;
#X connect 5 0 4 0;
#X connect 6 0 5 1;
#X connect 9 0 8 0;
#X connect 9 1 5 0;
#X restore 713 406 pd message-out;
#X msg 690 246 open -e MCompressor.vst3;
#X connect 0 0 5 0;
#X connect 0 1 6 0;
#X connect 0 2 9 0;
#X connect 1 0 0 0;
#X connect 2 0 0 1;
#X connect 3 0 10 0;
#X connect 8 0 0 0;
#X connect 10 0 0 0;
#X restore 750 380 pd MCompressor;
#N canvas 327 110 1196 822 PaulXStretch 0;
#X obj 453 309 vstplugin~;
#X obj 76 69 inlet~;
#X obj 139 69 inlet~;
#X obj 897 148 loadbang;
#X text 99 36 Audio In;
#X obj 66 704 outlet~;
#X obj 129 704 outlet~;
#X text 89 737 Audio out;
#X msg 26 232 param_list;
#N canvas 101 355 608 488 message-out 0;
#X obj 20 17 inlet;
#X obj 20 83 s \$0-program-data;
#X obj 20 50 route program_data bank_data, f 39;
#X obj 155 83 s \$0-bank-data;
#X obj 342 132 print;
#X obj 342 105 spigot 1;
#X obj 411 105 tgl 19 0 empty empty empty 17 7 0 10 #fcfcfc #000000 #000000 0 1;
#X text 437 104 print messages;
#X obj 310 77 s \$0-out;
#X obj 310 50 t a a;
#X msg 28 188 param_automated <index> <value>;
#X msg 28 224 latency <numsamples>;
#X msg 30 287 midi <bytes...>;
#X msg 29 324 sysex <bytes...>;
#X text 263 182 a parameter has been changed in the GUI (or by changing a linked parameter)., f 40;
#X text 182 224 the plugin's internal processing latency has changed;
#X text 159 287 a MIDI message sent by the plugin;
#X text 159 324 a SysEx message sent by the plugin;
#X text 183 242 NOTE: the value includes the additional latency caused by multithreading (see the "-t" flag for "open"), f 55;
#X msg 29 397 crash;
#X text 381 76 goes to vstpresetbrowser;
#X text 21 111 see [pd preset];
#X text 93 398 the plugin subprocess has crashed.;
#X text 94 416 This is only sent for bridged or sandboxed plugins \, because normal plugins would simply crash Pd., f 52;
#X msg 29 361 update;
#X text 97 362 multiple parameters have changed internally;
#X obj 25 153 cnv 15 70 20 empty empty empty 20 12 0 14 #dcdcdc #404040 0;
#X text 31 154 events:;
#X connect 0 0 2 0;
#X connect 2 0 1 0;
#X connect 2 1 3 0;
#X connect 2 2 9 0;
#X connect 5 0 4 0;
#X connect 6 0 5 1;
#X connect 9 0 8 0;
#X connect 9 1 5 0;
#X restore 713 406 pd message-out;
#X msg 690 246 open -e PaulXStretch.vst3;
#X connect 0 0 5 0;
#X connect 0 1 6 0;
#X connect 0 2 9 0;
#X connect 1 0 0 0;
#X connect 2 0 0 1;
#X connect 3 0 10 0;
#X connect 8 0 0 0;
#X connect 10 0 0 0;
#X restore 727 444 pd PaulXStretch;
#X msg 80 438 param_set 2 \$1;
#X text 78 475 Delay Time;
#X obj 82 400 line;
#X obj 86 420 hsl 128 15 0 1 0 0 empty empty empty -2 -8 0 10 #fcfcfc #000000 #000000 0 1;
#X obj 74 280 line;
#X msg 81 380 \$1 750;
#X msg 74 257 \$1 1000;
#X text 70 235 reverb lp filter;
#X text 311 124 reverb mix;
#X msg 93 711 param_set 1 \$1;
#X text 89 739 freq shift;
#X obj 91 671 line;
#X obj 94 692 hsl 128 15 0 1 0 0 empty empty empty -2 -8 0 10 #fcfcfc #000000 #000000 0 1;
#X msg 91 650 \$1 750;
#X floatatom 197 515 5 0 0 0 - - - 0;
#X connect 0 0 10 2;
#X connect 1 0 0 0;
#X connect 2 0 10 3;
#X connect 3 0 2 0;
#X connect 4 0 17 0;
#X connect 5 0 17 1;
#X connect 10 0 6 0;
#X connect 10 1 7 0;
#X connect 13 0 28 0;
#X connect 14 0 35 0;
#X connect 15 0 27 0;
#X connect 17 0 10 0;
#X connect 17 1 10 1;
#X connect 22 0 17 2;
#X connect 24 0 25 0;
#X connect 25 0 22 0;
#X connect 25 0 36 0;
#X connect 26 0 3 0;
#X connect 27 0 24 0;
#X connect 28 0 26 0;
#X connect 31 0 17 3;
#X connect 33 0 34 0;
#X connect 34 0 31 0;
#X connect 35 0 33 0;
#X restore 949 367 pd NEGATIVE_Drone;
#X f 23;
#N canvas 69 -1024 1610 985 NEGATIVE_MACHINE 0;
#X obj 1245 371 s ran-pitch-am;
#X obj 1246 352 nbx 3 14 0 400 0 1 empty empty empty 0 -8 0 10 #fcfcfc #000000 #000000 0 256;
#X text 1162 23 grain-type;
#X msg 1277 242 0;
#X msg 1306 241 3;
#X msg 1156 243 500;
#X msg 1344 240 0;
#X msg 1372 240 30;
#X obj 22 59 hsl 195 8 0 1 0 0 empty r-grain-1 empty -2 -8 0 10 #fcfcfc #000000 #000000 0 1;
#X obj 675 111 bng 14 250 50 0 empty empty Ph 3 8 0 8 #fcfcfc #000000 #000000;
#X obj 744 111 nbx 4 14 0 100 0 1 empty empty Ph 26 8 0 8 #fcfcfc #000000 #000000 0 256;
#N canvas 14 86 447 598 phasor-main 0;
#X obj 97 369 phasor~;
#X floatatom 248 84 5 0 0 0 - - - 0;
#X obj 201 13 r speed-in-hz;
#X obj 201 52 t b f;
#X obj 136 350 r retrig;
#X text 148 369 <<< Use same phasor for all grains;
#X obj 97 490 *~;
#X obj 253 420 nbx 4 14 0 100 0 1 empty empty empty 0 -8 0 10 #fcfcfc #000000 #000000 0 256;
#X obj 253 436 * 0.01;
#X obj 253 474 vline~;
#X obj 253 455 pack 0 500;
#X text 304 419 Main Phasor multiplyer;
#X obj 97 52 inlet;
#X obj 253 397 inlet;
#N canvas 0 23 450 300 sine/cos 0;
#X obj 127 53 inlet~;
#X obj 128 123 cos~;
#X obj 127 102 wrap~;
#X obj 128 149 *~ 0.5;
#X obj 128 171 +~ 0.5;
#X obj 128 193 outlet~;
#X obj 127 81 +~ 0;
#X connect 0 0 6 0;
#X connect 1 0 3 0;
#X connect 2 0 1 0;
#X connect 3 0 4 0;
#X connect 4 0 5 0;
#X connect 6 0 2 0;
#X restore 125 406 pd sine/cos;
#X obj 51 388 inlet;
#X floatatom 51 410 5 0 0 0 - - - 0;
#X obj 97 539 s~ phasor-main;
#X obj 377 465 * 0.01;
#X obj 377 503 vline~;
#X text 325 464 Position;
#X obj 97 519 +~;
#X obj 377 446 inlet;
#X obj 173 68 +;
#X obj 201 33 ftom;
#X obj 173 90 mtof;
#X floatatom 248 106 10 0 0 0 - - - 0;
#X obj 134 294 * -1;
#X floatatom 144 312 5 0 0 0 - - - 0;
#X obj 134 271 sel 0 1;
#X obj 97 287 f;
#X obj 134 252 t f f;
#X obj 193 236 inlet reverse;
#X obj 97 71 != -64;
#X obj 97 90 t f f;
#X obj 173 125 f;
#X obj 97 109 sel 0 1;
#X msg 97 128 0;
#X text 51 286 Reverse;
#X text 90 145 Stop = -64;
#X obj 377 484 pack 0 10;
#N canvas 515 366 396 291 spigot~ 0;
#X obj 52 40 inlet~;
#X obj 332 62 inlet;
#X obj 146 185 outlet~;
#X obj 52 102 *~;
#X obj 67 78 == 0;
#X obj 112 40 inlet~;
#X obj 112 102 *~;
#X obj 127 78 == 1;
#X connect 0 0 3 0;
#X connect 1 0 4 0;
#X connect 1 0 7 0;
#X connect 3 0 2 0;
#X connect 4 0 3 1;
#X connect 5 0 6 0;
#X connect 6 0 2 0;
#X connect 7 0 6 1;
#X restore 97 458 pd spigot~;
#N canvas 0 23 450 300 mux-spigot 0;
#X obj 126 82 inlet;
#X obj 126 143 spigot;
#X obj 159 119 == 0;
#X obj 206 82 inlet;
#X obj 206 143 spigot;
#X obj 239 119 == 1;
#X obj 276 103 inlet;
#X obj 179 189 outlet;
#X connect 0 0 1 0;
#X connect 1 0 7 0;
#X connect 2 0 1 1;
#X connect 3 0 4 0;
#X connect 4 0 7 0;
#X connect 5 0 4 1;
#X connect 6 0 5 0;
#X connect 6 0 2 0;
#X restore 97 331 pd mux-spigot;
#X floatatom 193 257 5 0 0 0 - - - 0;
#N canvas 0 23 450 300 mux-spigot 0;
#X obj 126 82 inlet;
#X obj 126 143 spigot;
#X obj 159 119 == 0;
#X obj 206 82 inlet;
#X obj 206 143 spigot;
#X obj 239 119 == 1;
#X obj 276 103 inlet;
#X obj 179 189 outlet;
#X connect 0 0 1 0;
#X connect 1 0 7 0;
#X connect 2 0 1 1;
#X connect 3 0 4 0;
#X connect 4 0 7 0;
#X connect 5 0 4 1;
#X connect 6 0 5 0;
#X connect 6 0 2 0;
#X restore 97 188 pd mux-spigot;
#X connect 0 0 14 0;
#X connect 0 0 41 0;
#X connect 2 0 24 0;
#X connect 3 0 23 0;
#X connect 3 1 23 1;
#X connect 4 0 0 1;
#X connect 6 0 21 0;
#X connect 7 0 8 0;
#X connect 8 0 10 0;
#X connect 9 0 6 1;
#X connect 10 0 9 0;
#X connect 12 0 23 0;
#X connect 12 0 33 0;
#X connect 13 0 8 0;
#X connect 14 0 41 1;
#X connect 15 0 16 0;
#X connect 15 0 41 2;
#X connect 18 0 40 0;
#X connect 19 0 21 1;
#X connect 21 0 17 0;
#X connect 22 0 18 0;
#X connect 23 0 25 0;
#X connect 23 0 1 0;
#X connect 24 0 3 0;
#X connect 25 0 26 0;
#X connect 25 0 35 0;
#X connect 27 0 28 0;
#X connect 27 0 42 1;
#X connect 29 0 30 0;
#X connect 29 1 27 0;
#X connect 30 0 42 0;
#X connect 31 0 29 0;
#X connect 31 1 42 2;
#X connect 32 0 31 0;
#X connect 32 0 43 0;
#X connect 33 0 34 0;
#X connect 34 0 36 0;
#X connect 34 1 44 2;
#X connect 35 0 44 1;
#X connect 36 0 37 0;
#X connect 36 1 35 0;
#X connect 37 0 44 0;
#X connect 40 0 19 0;
#X connect 41 0 6 0;
#X connect 42 0 0 0;
#X connect 44 0 27 0;
#X connect 44 0 30 0;
#X restore 458 642 pd phasor-main;
#X obj 495 615 nbx 4 14 -64 128 0 1 empty empty Speed 0 -8 0 10 #fcfcfc #000000 #000000 0 256;
#X obj 542 615 nbx 4 14 0 100 0 1 empty empty Multiply 0 -8 0 10 #fcfcfc #000000 #000000 100 256;
#N canvas 0 23 450 300 phase-rst 0;
#X obj 133 79 t b;
#X obj 133 130 s retrig;
#X msg 133 111 0;
#X msg 167 94 set \$1;
#X obj 167 75 * 0.01;
#X obj 216 94 loadbang;
#X obj 133 22 inlet;
#X obj 167 43 inlet;
#X connect 0 0 2 0;
#X connect 2 0 1 0;
#X connect 3 0 2 0;
#X connect 4 0 3 0;
#X connect 5 0 2 0;
#X connect 6 0 0 0;
#X connect 7 0 4 0;
#X restore 675 127 pd phase-rst;
#N canvas 0 22 450 300 select-wave 0;
#X obj 100 100 hradio 14 1 1 2 empty empty Saw 2 8 0 10 #fcfcfc #fcc4c4 #000000 0;
#X obj 100 119 outlet;
#N canvas 0 22 450 300 select 0;
#X obj 126 67 inlet;
#X obj 126 89 sel 0 1;
#X obj 126 156 outlet;
#X msg 126 111 label Saw;
#X msg 145 133 label Sin;
#X connect 0 0 1 0;
#X connect 1 0 3 0;
#X connect 1 1 4 0;
#X connect 3 0 2 0;
#X connect 4 0 2 0;
#X restore 100 73 pd select;
#X connect 0 0 1 0;
#X connect 0 0 2 0;
#X connect 2 0 0 0;
#X coords 0 -1 1 1 28 14 2 100 100;
#X restore 456 616 pd select-wave;
#X obj 593 615 nbx 4 14 0 100 0 1 empty empty Phase 0 -8 0 10 #fcfcfc #000000 #000000 9 256;
#X msg 473 578 0;
#X obj 674 613 tgl 14 1 empty empty empty 17 7 0 10 #fcfcfc #000000 #000000 0 1;
#X obj 362 228 s note-pitch;
#X obj 22 67 hsl 195 8 0 1 0 0 empty r-grain-2 empty -2 -8 0 10 #fcfcfc #000000 #000000 0 1;
#X obj 869 365 nbx 3 14 0 100 0 1 empty empty empty 0 -8 0 10 #fcfcfc #000000 #000000 0 256;
#X obj 869 382 s random-position;
#X obj 22 75 hsl 195 8 0 1 0 0 empty r-grain-3 empty -2 -8 0 10 #fcfcfc #000000 #000000 0 1;
#X obj 22 83 hsl 195 8 0 1 0 0 empty r-grain-4 empty -2 -8 0 10 #fcfcfc #000000 #000000 0 1;
#X obj 22 91 hsl 195 8 0 1 0 0 empty r-grain-5 empty -2 -8 0 10 #fcfcfc #000000 #000000 0 1;
#X obj 22 99 hsl 195 8 0 1 0 0 empty r-grain-6 empty -2 -8 0 10 #fcfcfc #000000 #000000 0 1;
#X obj 22 107 hsl 195 8 0 1 0 0 empty r-grain-7 empty -2 -8 0 10 #fcfcfc #000000 #000000 0 1;
#X obj 22 115 hsl 195 8 0 1 0 0 empty r-grain-8 empty -2 -8 0 10 #fcfcfc #000000 #000000 0 1;
#X obj 22 123 hsl 195 8 0 1 0 0 empty r-grain-9 empty -2 -8 0 10 #fcfcfc #000000 #000000 0 1;
#X obj 22 131 hsl 195 8 0 1 0 0 empty r-grain-10 empty -2 -8 0 10 #fcfcfc #000000 #000000 0 1;
#X obj 362 166 s grain-on;
#X obj 22 139 hsl 195 8 0 1 0 0 empty r-grain-11 empty -2 -8 0 10 #fcfcfc #000000 #000000 0 1;
#X obj 22 147 hsl 195 8 0 1 0 0 empty r-grain-12 empty -2 -8 0 10 #fcfcfc #000000 #000000 0 1;
#X obj 22 155 hsl 195 8 0 1 0 0 empty r-grain-13 empty -2 -8 0 10 #fcfcfc #000000 #000000 0 1;
#X obj 22 163 hsl 195 8 0 1 0 0 empty r-grain-14 empty -2 -8 0 10 #fcfcfc #000000 #000000 0 1;
#X obj 22 171 hsl 195 8 0 1 0 0 empty r-grain-15 empty -2 -8 0 10 #fcfcfc #000000 #000000 0 1;
#X obj 22 179 hsl 195 8 0 1 0 0 empty r-grain-16 empty -2 -8 0 10 #fcfcfc #000000 #000000 0 1;
#X obj 362 150 nbx 3 14 1 64 0 1 empty empty empty 0 -8 0 10 #fcfcfc #000000 #000000 64 256;
#X obj 362 194 nbx 5 14 -1e+37 1e+37 0 1 empty empty empty 0 -8 0 10 #fcfcfc #000000 #000000 -64 256;
#X obj 704 647 s reverse;
#X obj 22 187 hsl 195 8 0 1 0 0 empty r-grain-17 empty -2 -8 0 10 #fcfcfc #000000 #000000 0 1;
#X obj 22 195 hsl 195 8 0 1 0 0 empty r-grain-18 empty -2 -8 0 10 #fcfcfc #000000 #000000 0 1;
#X obj 22 203 hsl 195 8 0 1 0 0 empty r-grain-19 empty -2 -8 0 10 #fcfcfc #000000 #000000 0 1;
#X obj 22 211 hsl 195 8 0 1 0 0 empty r-grain-20 empty -2 -8 0 10 #fcfcfc #000000 #000000 0 1;
#X obj 22 219 hsl 195 8 0 1 0 0 empty r-grain-21 empty -2 -8 0 10 #fcfcfc #000000 #000000 0 1;
#X obj 22 227 hsl 195 8 0 1 0 0 empty r-grain-22 empty -2 -8 0 10 #fcfcfc #000000 #000000 0 1;
#X obj 22 235 hsl 195 8 0 1 0 0 empty r-grain-23 empty -2 -8 0 10 #fcfcfc #000000 #000000 0 1;
#X obj 22 243 hsl 195 8 0 1 0 0 empty r-grain-24 empty -2 -8 0 10 #fcfcfc #000000 #000000 0 1;
#X obj 22 251 hsl 195 8 0 1 0 0 empty r-grain-25 empty -2 -8 0 10 #fcfcfc #000000 #000000 0 1;
#X obj 22 259 hsl 195 8 0 1 0 0 empty r-grain-26 empty -2 -8 0 10 #fcfcfc #000000 #000000 0 1;
#X obj 22 267 hsl 195 8 0 1 0 0 empty r-grain-27 empty -2 -8 0 10 #fcfcfc #000000 #000000 0 1;
#X obj 22 275 hsl 195 8 0 1 0 0 empty r-grain-28 empty -2 -8 0 10 #fcfcfc #000000 #000000 0 1;
#X obj 22 283 hsl 195 8 0 1 0 0 empty r-grain-29 empty -2 -8 0 10 #fcfcfc #000000 #000000 0 1;
#X obj 22 291 hsl 195 8 0 1 0 0 empty r-grain-30 empty -2 -8 0 10 #fcfcfc #000000 #000000 0 1;
#X obj 22 299 hsl 195 8 0 1 0 0 empty r-grain-31 empty -2 -8 0 10 #fcfcfc #000000 #000000 0 1;
#X obj 22 307 hsl 195 8 0 1 0 0 empty r-grain-32 empty -2 -8 0 10 #fcfcfc #000000 #000000 0 1;
#X obj 446 148 hradio 14 1 1 2 empty empty empty 0 -8 0 10 #fcfcfc #000000 #000000 0;
#X obj 446 164 s saw/sine;
#X obj 1033 381 s grain-size;
#X obj 1033 365 nbx 3 14 1 2048 0 1 empty empty empty 0 -8 0 10 #fcfcfc #000000 #000000 0 256;
#X obj 22 315 hsl 195 8 0 1 0 0 empty r-grain-33 empty -2 -8 0 10 #fcfcfc #000000 #000000 0 1;
#X obj 22 323 hsl 195 8 0 1 0 0 empty r-grain-34 empty -2 -8 0 10 #fcfcfc #000000 #000000 0 1;
#X obj 22 331 hsl 195 8 0 1 0 0 empty r-grain-35 empty -2 -8 0 10 #fcfcfc #000000 #000000 0 1;
#X obj 22 339 hsl 195 8 0 1 0 0 empty r-grain-36 empty -2 -8 0 10 #fcfcfc #000000 #000000 0 1;
#X obj 22 347 hsl 195 8 0 1 0 0 empty r-grain-37 empty -2 -8 0 10 #fcfcfc #000000 #000000 0 1;
#X obj 22 355 hsl 195 8 0 1 0 0 empty r-grain-38 empty -2 -8 0 10 #fcfcfc #000000 #000000 0 1;
#X obj 22 363 hsl 195 8 0 1 0 0 empty r-grain-39 empty -2 -8 0 10 #fcfcfc #000000 #000000 0 1;
#X obj 22 371 hsl 195 8 0 1 0 0 empty r-grain-40 empty -2 -8 0 10 #fcfcfc #000000 #000000 0 1;
#X obj 22 379 hsl 195 8 0 1 0 0 empty r-grain-41 empty -2 -8 0 10 #fcfcfc #000000 #000000 0 1;
#X obj 22 387 hsl 195 8 0 1 0 0 empty r-grain-42 empty -2 -8 0 10 #fcfcfc #000000 #000000 0 1;
#X obj 22 395 hsl 195 8 0 1 0 0 empty r-grain-43 empty -2 -8 0 10 #fcfcfc #000000 #000000 0 1;
#X obj 22 403 hsl 195 8 0 1 0 0 empty r-grain-44 empty -2 -8 0 10 #fcfcfc #000000 #000000 0 1;
#X obj 22 411 hsl 195 8 0 1 0 0 empty r-grain-45 empty -2 -8 0 10 #fcfcfc #000000 #000000 0 1;
#X obj 22 419 hsl 195 8 0 1 0 0 empty r-grain-46 empty -2 -8 0 10 #fcfcfc #000000 #000000 0 1;
#X obj 22 427 hsl 195 8 0 1 0 0 empty r-grain-47 empty -2 -8 0 10 #fcfcfc #000000 #000000 0 1;
#X obj 22 435 hsl 195 8 0 1 0 0 empty r-grain-48 empty -2 -8 0 10 #fcfcfc #000000 #000000 0 1;
#X obj 22 443 hsl 195 8 0 1 0 0 empty r-grain-49 empty -2 -8 0 10 #fcfcfc #000000 #000000 0 1;
#X obj 22 451 hsl 195 8 0 1 0 0 empty r-grain-50 empty -2 -8 0 10 #fcfcfc #000000 #000000 0 1;
#X obj 22 459 hsl 195 8 0 1 0 0 empty r-grain-51 empty -2 -8 0 10 #fcfcfc #000000 #000000 0 1;
#X obj 22 467 hsl 195 8 0 1 0 0 empty r-grain-52 empty -2 -8 0 10 #fcfcfc #000000 #000000 0 1;
#X obj 22 475 hsl 195 8 0 1 0 0 empty r-grain-53 empty -2 -8 0 10 #fcfcfc #000000 #000000 0 1;
#X obj 22 483 hsl 195 8 0 1 0 0 empty r-grain-54 empty -2 -8 0 10 #fcfcfc #000000 #000000 0 0;
#X obj 22 491 hsl 195 8 0 1 0 0 empty r-grain-55 empty -2 -8 0 10 #fcfcfc #000000 #000000 0 1;
#X obj 22 499 hsl 195 8 0 1 0 0 empty r-grain-56 empty -2 -8 0 10 #fcfcfc #000000 #000000 0 1;
#X obj 22 507 hsl 195 8 0 1 0 0 empty r-grain-57 empty -2 -8 0 10 #fcfcfc #000000 #000000 0 1;
#X obj 22 515 hsl 195 8 0 1 0 0 empty r-grain-58 empty -2 -8 0 10 #fcfcfc #000000 #000000 0 1;
#X obj 22 523 hsl 195 8 0 1 0 0 empty r-grain-59 empty -2 -8 0 10 #fcfcfc #000000 #000000 0 1;
#X obj 22 531 hsl 195 8 0 1 0 0 empty r-grain-60 empty -2 -8 0 10 #fcfcfc #000000 #000000 0 1;
#X obj 22 539 hsl 195 8 0 1 0 0 empty r-grain-61 empty -2 -8 0 10 #fcfcfc #000000 #000000 0 1;
#X obj 22 547 hsl 195 8 0 1 0 0 empty r-grain-62 empty -2 -8 0 10 #fcfcfc #000000 #000000 0 1;
#X obj 22 555 hsl 195 8 0 1 0 0 empty r-grain-63 empty -2 -8 0 10 #fcfcfc #000000 #000000 0 1;
#X obj 22 563 hsl 195 8 0 1 0 0 empty r-grain-64 empty -2 -8 0 10 #fcfcfc #000000 #000000 0 1;
#N canvas 0 22 450 278 (subpatch) 0;
#X array grain 1.1809e+06 float 0;
#X coords 0 1 1.1809e+06 -1 200 512 1 0 0;
#X restore 19 59 graph;
#X obj 1245 371 s ran-pitch-am;
#X obj 540 228 s env-am;
#X obj 595 194 nbx 5 14 1 100 1 1 empty empty empty 0 -8 0 10 #fcfcfc #000000 #000000 100 256;
#X obj 595 228 s env-time;
#X obj 540 194 nbx 4 14 0 1000 0 1 empty empty empty 0 -8 0 10 #fcfcfc #000000 #000000 0 256;
#X obj 540 210 * 0.01;
#X obj 595 210 * 0.01;
#X obj 669 194 nbx 5 14 0 100 0 1 empty empty empty 0 -8 0 10 #fcfcfc #000000 #000000 100 256;
#X obj 669 228 s p-env-prob;
#N canvas 517 128 508 652 window-functions 0;
#X obj 182 337 phasor~ 1;
#X obj 329 186 tgl 15 0 empty empty empty 17 7 0 10 #fcfcfc #000000 #000000 0 1;
#X obj 264 220 metro 1000;
#X obj 182 385 expr~ abs((abs($v1-0.5)*2)-1);
#X obj 201 425 expr~ min($v1*2 \, 1);
#X obj 220 525 expr~ pow($v1 \, 8);
#X obj 264 242 +;
#X obj 228 226 + 1;
#X obj 264 261 sel 1;
#X msg 264 280 0;
#X obj 220 505 expr~ abs($v1-0.5)*2;
#X obj 220 545 expr~ abs($v1-1);
#X msg 71 205 normalize 1;
#X obj 210 445 expr~ abs($v1-0.5)*2;
#X obj 210 485 expr~ abs($v1-1);
#X obj 210 465 expr~ pow($v1 \, 0.5);
#X obj 329 154 loadbang;
#X text 130 385 Triangle;
#X text 169 405 Cos;
#N canvas 0 23 450 300 cosinus 0;
#X obj 173 85 inlet~;
#X obj 173 147 cos~;
#X obj 173 166 *~ 0.5;
#X obj 173 185 +~ 0.5;
#X obj 173 128 wrap~;
#X obj 173 109 +~ 0.5;
#X obj 173 207 outlet~;
#X connect 0 0 5 0;
#X connect 1 0 2 0;
#X connect 2 0 3 0;
#X connect 3 0 6 0;
#X connect 4 0 1 0;
#X connect 5 0 4 0;
#X restore 191 405 pd cosinus;
#X text 131 425 Trapazoid 1;
#X text 140 445 Trapazoid 2;
#X text 150 505 Trapazoid 3;
#X obj 200 170 t b b f;
#X obj 182 591 tabwrite~ Window;
#X obj 71 224 s Window;
#X obj 200 100 hradio 14 1 1 5 empty empty Cosinus 2 8 0 10 #fcfcfc #fcc4c4 #000000 1;
#N canvas 936 465 450 300 label 0;
#X obj 129 48 inlet;
#X obj 129 70 sel 0 1 2 3 4;
#X msg 129 92 label Triangle;
#X obj 129 189 outlet;
#X msg 144 112 label Cosinus;
#X msg 159 132 label Trapazoid-1;
#X msg 174 152 label Trapazoid-2;
#X msg 189 172 label Trapazoid-3;
#X connect 0 0 1 0;
#X connect 1 0 2 0;
#X connect 1 1 4 0;
#X connect 1 2 5 0;
#X connect 1 3 6 0;
#X connect 1 4 7 0;
#X connect 2 0 3 0;
#X connect 4 0 3 0;
#X connect 5 0 3 0;
#X connect 6 0 3 0;
#X connect 7 0 3 0;
#X restore 149 58 pd label;
#X obj 71 186 del 1001;
#N canvas 515 366 592 291 spigot~ 0;
#X obj 52 40 inlet~;
#X obj 432 62 inlet;
#X obj 432 118 outlet~;
#X obj 52 102 *~;
#X obj 67 78 == 0;
#X obj 112 40 inlet~;
#X obj 112 102 *~;
#X obj 172 40 inlet~;
#X obj 172 102 *~;
#X obj 232 40 inlet~;
#X obj 232 102 *~;
#X obj 127 78 == 1;
#X obj 187 78 == 2;
#X obj 247 78 == 3;
#X obj 292 40 inlet~;
#X obj 292 102 *~;
#X obj 352 40 inlet~;
#X obj 352 102 *~;
#X obj 307 78 == 4;
#X obj 367 78 == 5;
#X connect 0 0 3 0;
#X connect 1 0 4 0;
#X connect 1 0 11 0;
#X connect 1 0 13 0;
#X connect 1 0 12 0;
#X connect 1 0 18 0;
#X connect 1 0 19 0;
#X connect 3 0 2 0;
#X connect 4 0 3 1;
#X connect 5 0 6 0;
#X connect 6 0 2 0;
#X connect 7 0 8 0;
#X connect 8 0 2 0;
#X connect 9 0 10 0;
#X connect 10 0 2 0;
#X connect 11 0 6 1;
#X connect 12 0 8 1;
#X connect 13 0 10 1;
#X connect 14 0 15 0;
#X connect 15 0 2 0;
#X connect 16 0 17 0;
#X connect 17 0 2 0;
#X connect 18 0 15 1;
#X connect 19 0 17 1;
#X restore 182 566 pd spigot~;
#X obj 315 575 sel 1;
#X obj 315 595 bng 15 250 50 0 empty empty empty 17 7 0 10 #fcfcfc #000000 #000000;
#X obj 264 201 t f f f f;
#X obj 298 300 sel 1;
#X msg 298 321 0;
#X text 112 337 1hz = 1 sec;
#X obj 52 57 inlet;
#X msg 51 85;
#X connect 0 0 3 0;
#X connect 0 0 10 0;
#X connect 0 0 13 0;
#X connect 0 0 19 0;
#X connect 1 0 32 0;
#X connect 2 0 6 0;
#X connect 3 0 4 0;
#X connect 3 0 29 0;
#X connect 4 0 29 2;
#X connect 5 0 11 0;
#X connect 6 0 7 0;
#X connect 6 0 8 0;
#X connect 7 0 6 1;
#X connect 8 0 9 0;
#X connect 9 0 1 0;
#X connect 10 0 5 0;
#X connect 11 0 29 4;
#X connect 12 0 25 0;
#X connect 13 0 15 0;
#X connect 14 0 29 3;
#X connect 15 0 14 0;
#X connect 16 0 1 0;
#X connect 19 0 29 1;
#X connect 23 0 28 0;
#X connect 23 1 1 0;
#X connect 23 2 29 6;
#X connect 26 0 27 0;
#X connect 26 0 23 0;
#X connect 27 0 26 0;
#X connect 28 0 12 0;
#X connect 29 0 24 0;
#X connect 30 0 31 0;
#X connect 30 0 24 0;
#X connect 32 0 2 0;
#X connect 32 1 6 1;
#X connect 32 2 33 0;
#X connect 32 3 30 0;
#X connect 33 0 34 0;
#X connect 34 0 0 1;
#X connect 36 0 37 0;
#X coords 0 -1 1 1 70 14 2 200 100;
#X restore 230 217 pd window-functions;
#N canvas 0 50 450 250 (subpatch) 0;
#X array Window 48000 float 4;
#X coords 0 1 47999 0 70 50 1 0 0;
#X restore 226 158 graph;
#N canvas 0 23 450 300 test-prev 0;
#X obj 135 157 r~ preview-audio;
#X obj 60 242 outlet~;
#X obj 27 180 tgl 15 0 empty empty empty 17 7 0 10 #fcfcfc #000000 #000000 0 1;
#N canvas 146 334 310 265 crossfade~ 0;
#X obj 139 157 *~;
#X obj 209 157 *~;
#X obj 88 118 *~ -1;
#X obj 88 140 +~ 1;
#X obj 88 83 +~;
#X obj 183 193 outlet~;
#X obj 139 103 inlet~;
#X obj 209 103 inlet~;
#X obj 88 59 vline~;
#X obj 88 15 inlet;
#X obj 88 37 pack 0 100;
#X connect 0 0 5 0;
#X connect 1 0 5 0;
#X connect 2 0 3 0;
#X connect 3 0 0 1;
#X connect 4 0 2 0;
#X connect 4 0 1 1;
#X connect 6 0 0 0;
#X connect 7 0 1 0;
#X connect 8 0 4 0;
#X connect 9 0 10 0;
#X connect 10 0 8 0;
#X restore 60 195 pd crossfade~;
#X obj 97 95 inlet~;
#X obj 27 73 r preview-auto;
#X connect 0 0 3 2;
#X connect 2 0 3 0;
#X connect 3 0 1 0;
#X connect 4 0 3 1;
#X connect 5 0 2 0;
#X restore 450 355 pd test-prev;
#N canvas 0 23 450 300 out 0;
#X obj 95 136 *~;
#X obj 160 136 *~;
#X obj 203 100 hsl 100 15 0 1 0 1 empty empty Volume 2 8 0 10 #fcfcfc #000000 #000000 0 1;
#X obj 200 120 sig~;
#X obj 95 57 inlet~;
#X obj 95 157 outlet~;
#X obj 160 157 outlet~;
#X connect 0 0 5 0;
#X connect 1 0 6 0;
#X connect 2 0 3 0;
#X connect 3 0 0 1;
#X connect 3 0 1 1;
#X connect 4 0 0 0;
#X connect 4 0 1 0;
#X coords 0 -1 1 1 105 15 2 200 100;
#X restore 451 391 pd out;
#X obj 226 75 nbx 5 14 1 30 0 1 empty empty Wav-File 0 -8 0 10 #fcfcfc #000000 #000000 2 256;
#N canvas 221 23 433 373 tablemath 0;
#X obj 65 67 soundfiler;
#X obj 65 124 /;
#X obj 139 83 s size-in-samples;
#X obj 65 86 t b f;
#X obj 65 105 samplerate~;
#X obj 139 140 s speed-in-hz;
#X obj 65 25 inlet;
#X obj 14 83 outlet;
#X obj 65 146 outlet;
#X floatatom 14 121 6 0 0 0 - - - 0;
#X obj 198 245 tabplay~ grain;
#X obj 188 186 inlet;
#X obj 198 293 s~ preview-audio;
#X msg 188 312 1;
#X msg 310 312 0;
#X obj 188 338 s preview-auto;
#X obj 198 267 *~ 2;
#X obj 310 176 inlet;
#X obj 139 121 s sample-rate;
#X obj 198 217 delay 500;
#X obj 310 261 delay 500;
#X msg 65 48 read -resize +Sounds+/Audio\$1.wav grain;
#X connect 0 0 2 0;
#X connect 0 0 3 0;
#X connect 0 0 7 0;
#X connect 1 0 5 0;
#X connect 1 0 8 0;
#X connect 3 0 4 0;
#X connect 3 1 1 1;
#X connect 4 0 1 0;
#X connect 4 0 9 0;
#X connect 4 0 18 0;
#X connect 6 0 21 0;
#X connect 10 0 16 0;
#X connect 10 1 20 0;
#X connect 11 0 13 0;
#X connect 11 0 19 0;
#X connect 13 0 15 0;
#X connect 14 0 15 0;
#X connect 16 0 12 0;
#X connect 17 0 20 0;
#X connect 19 0 10 0;
#X connect 20 0 14 0;
#X connect 21 0 0 0;
#X restore 226 91 pd tablemath;
#X floatatom 226 110 10 0 0 3 Samples - - 0;
#X floatatom 308 112 10 0 0 3 Hertz - - 0;
#X obj 305 77 bng 14 250 50 0 empty empty Pr 3 8 0 8 #fcfcfc #000000 #000000;
#X obj 325 77 bng 14 250 50 0 empty empty St 3 8 0 8 #fcfcfc #000000 #000000;
#X text 354 74 Pr - Preview the clean sound \, unchanged and mute granular player., f 65;
#X text 354 86 St - Stop the preview and go back to granular player.;
#N canvas 0 23 450 300 patchstate 0;
#X obj 118 168 cputime;
#X obj 118 28 loadbang;
#X obj 118 112 metro 1000;
#X msg 118 56 1;
#X floatatom 118 84 0 0 0 0 - - - 0;
#X obj 118 140 t b b;
#X obj 118 228 * 0.1;
#X obj 118 197 int;
#X text 163 84 <-- on/off;
#X obj 118 250 outlet;
#X obj 258 207 samplerate~;
#X obj 258 187 r pd-dsp-started;
#X floatatom 209 223 7 0 0 0 - - - 0;
#X obj 258 250 outlet;
#X connect 0 0 7 0;
#X connect 1 0 3 0;
#X connect 2 0 5 0;
#X connect 3 0 4 0;
#X connect 4 0 2 0;
#X connect 5 0 0 0;
#X connect 5 1 0 1;
#X connect 6 0 9 0;
#X connect 7 0 6 0;
#X connect 10 0 12 0;
#X connect 10 0 13 0;
#X connect 11 0 10 0;
#X restore 226 239 pd patchstate;
#X floatatom 226 272 5 0 0 3 Cpu-% - - 0;
#X floatatom 288 272 5 0 0 3 S-Rate - - 0;
#X obj 450 335 *~ 0.25;
#N canvas 0 23 518 322 info 0;
#X text 23 68 I run the patch at 48khz \, but you should be able to run it at any sample rate., f 73;
#X text 23 98 The sample that comes with the patch in the +Sounds+ folder is 48khz!!!!, f 73;
#X text 23 118 So if you want to run it at 44.1khz \, you need to convert the sample!!!!, f 73;
#X text 23 28 Granular21 patch by Jakob Skouborg 3.2.21, f 73;
#X restore 226 555 pd info;
#X obj 450 315 clone grain 64;
#X msg 979 99 crackle;
#X text 1162 23 grain-type;
#X msg 898 246 0;
#X msg 931 245 13;
#X msg 1060 246 1;
#X msg 1093 245 500;
#X msg 1277 242 0;
#X msg 1083 97 stretch;
#X msg 1306 241 3;
#X msg 1123 244 1;
#X msg 1156 243 500;
#X msg 1344 240 0;
#X msg 966 244 30;
#X msg 999 243 100;
#X msg 1372 240 30;
#X obj 902 290 m_scale;
#X obj 1056 287 m_scale;
#X obj 1268 292 m_scale;
#X msg 1159 97 0;
#X msg 1197 97 1;
#X obj 449 433 outlet~;
#X obj 200 21 inlet;
#X text 1419 45 Vectors In;
#X obj 1372 111 inlet;
#X obj 1480 106 inlet;
#X obj 1430 107 inlet;
#X obj 1531 105 inlet;
#X obj 1351 182 line;
#X msg 1351 159 \$1 1000;
#X obj 1414 183 line;
#X msg 1414 160 \$1 1000;
#X obj 1477 184 line;
#X msg 1477 161 \$1 1000;
#X obj 1540 185 line;
#X msg 1540 162 \$1 1000;
#X obj 1281 87 bng 19 250 50 0 empty empty empty 0 -10 0 12 #fcfcfc #000000 #000000;
#X obj 1280 109 random 2;
#X obj 1284 136 sel 0 1;
#X obj 981 71 bng 19 250 50 0 empty empty empty 0 -10 0 12 #fcfcfc #000000 #000000;
#X obj 1066 27 bng 19 250 50 0 empty empty empty 0 -10 0 12 #fcfcfc #000000 #000000;
#X floatatom 514 429 5 0 0 0 - - - 0;
#X msg 370 344 0;
#X connect 1 0 0 0;
#X connect 3 0 138 3;
#X connect 4 0 138 4;
#X connect 5 0 137 4;
#X connect 6 0 138 3;
#X connect 7 0 138 4;
#X connect 9 0 14 0;
#X connect 10 0 14 1;
#X connect 12 0 11 1;
#X connect 13 0 11 3;
#X connect 15 0 11 0;
#X connect 16 0 11 4;
#X connect 17 0 12 0;
#X connect 18 0 11 2;
#X connect 18 0 40 0;
#X connect 21 0 22 0;
#X connect 38 0 31 0;
#X connect 39 0 19 0;
#X connect 57 0 58 0;
#X connect 60 0 59 0;
#X connect 96 0 100 0;
#X connect 98 0 99 0;
#X connect 99 0 95 0;
#X connect 100 0 97 0;
#X connect 101 0 102 0;
#X connect 105 0 106 0;
#X connect 106 0 141 0;
#X connect 107 0 108 0;
#X connect 108 0 109 0;
#X connect 108 1 110 0;
#X connect 111 0 108 1;
#X connect 112 0 108 2;
#X connect 115 0 116 0;
#X connect 115 1 117 0;
#X connect 118 0 105 0;
#X connect 120 0 118 0;
#X connect 121 0 123 0;
#X connect 121 0 124 0;
#X connect 121 0 125 0;
#X connect 121 0 126 0;
#X connect 121 0 127 0;
#X connect 121 0 129 0;
#X connect 123 0 136 3;
#X connect 124 0 136 4;
#X connect 125 0 137 3;
#X connect 126 0 137 4;
#X connect 128 0 133 0;
#X connect 128 0 134 0;
#X connect 128 0 130 0;
#X connect 128 0 131 0;
#X connect 128 0 132 0;
#X connect 128 0 135 0;
#X connect 130 0 137 3;
#X connect 133 0 136 3;
#X connect 134 0 136 4;
#X connect 136 0 21 0;
#X connect 137 0 60 0;
#X connect 138 0 1 0;
#X connect 139 0 136 1;
#X connect 139 0 137 1;
#X connect 139 0 138 1;
#X connect 140 0 136 2;
#X connect 140 0 137 2;
#X connect 140 0 138 2;
#X connect 142 0 107 0;
#X connect 144 0 149 0;
#X connect 144 0 156 0;
#X connect 145 0 153 0;
#X connect 146 0 151 0;
#X connect 147 0 155 0;
#X connect 148 0 136 0;
#X connect 149 0 148 0;
#X connect 150 0 137 0;
#X connect 151 0 150 0;
#X connect 152 0 138 0;
#X connect 153 0 152 0;
#X connect 155 0 154 0;
#X connect 156 0 157 0;
#X connect 157 0 158 0;
#X connect 159 0 121 0;
#X connect 160 0 128 0;
#X connect 162 0 106 0;
#X restore 1157 367 pd NEGATIVE_MACHINE;
#X msg 1094 307 2;
#X obj 1180 655 *~;
#X obj 1453 148 hsl 162 19 0 1 0 0 empty empty empty -2 -10 0 12 #fcfcfc #000000 #000000 0 1;
#X obj 1210 654 *~;
#X text 1648 141 Drone Volume;
#X obj 1502 653 *~;
#X obj 1532 652 *~;
#X obj 1462 228 hsl 162 19 0 1 0 0 empty empty empty -2 -10 0 12 #fcfcfc #000000 #000000 0 1;
#X text 1657 221 Machine Volume;
#X connect 0 0 1 0;
#X connect 1 0 2 0;
#X connect 2 0 16 0;
#X connect 3 0 0 0;
#X connect 3 0 4 0;
#X connect 3 0 6 0;
#X connect 3 0 7 0;
#X connect 7 0 8 0;
#X connect 8 0 9 0;
#X connect 9 0 14 0;
#X connect 10 0 46 0;
#X connect 10 0 45 0;
#X connect 10 0 47 1;
#X connect 11 0 46 1;
#X connect 11 0 45 1;
#X connect 11 0 47 2;
#X connect 12 0 46 2;
#X connect 12 0 45 2;
#X connect 12 0 47 3;
#X connect 13 0 46 3;
#X connect 13 0 45 3;
#X connect 13 0 47 4;
#X connect 14 1 10 0;
#X connect 14 2 11 0;
#X connect 14 3 12 0;
#X connect 14 4 13 0;
#X connect 16 1 17 0;
#X connect 16 2 18 0;
#X connect 16 3 19 0;
#X connect 16 4 20 0;
#X connect 17 0 23 0;
#X connect 18 0 23 1;
#X connect 19 0 23 2;
#X connect 20 0 23 3;
#X connect 23 0 22 0;
#X connect 23 1 22 1;
#X connect 24 0 25 0;
#X connect 28 0 30 0;
#X connect 28 1 31 0;
#X connect 29 0 28 0;
#X connect 29 1 28 1;
#X connect 32 0 29 1;
#X connect 36 0 38 0;
#X connect 36 1 39 0;
#X connect 37 0 36 0;
#X connect 37 1 36 1;
#X connect 40 0 37 1;
#X connect 44 0 46 4;
#X connect 44 0 29 0;
#X connect 44 0 23 4;
#X connect 44 1 46 5;
#X connect 44 1 29 0;
#X connect 44 1 23 5;
#X connect 46 0 49 0;
#X connect 46 1 51 0;
#X connect 47 0 53 0;
#X connect 47 0 54 0;
#X connect 48 0 47 0;
#X connect 49 0 37 0;
#X connect 50 0 49 1;
#X connect 50 0 51 1;
#X connect 51 0 37 0;
#X connect 53 0 37 0;
#X connect 54 0 37 0;
#X connect 55 0 53 1;
#X connect 55 0 54 1;
