#N canvas 154 38 1139 862 12;
#X msg 132 178 listen 9000;
#X obj 132 203 netreceive -u -b;
#X obj 132 231 oscparse;
#X obj 132 17 loadbang;
#X msg 153 92 \; pd dsp 1;
#X text 209 19 Onload Turn on Audio and start OSC listening;
#X obj 158 62 send load;
#X msg 357 64 listen 10000;
#X obj 357 97 netreceive -u -b;
#X obj 357 125 oscparse;
#X floatatom 473 237 5 0 0 0 - - -;
#X floatatom 521 228 5 0 0 0 - - -;
#X floatatom 567 231 5 0 0 0 - - -;
#X floatatom 616 231 5 0 0 0 - - -;
#X obj 357 165 unpack string float float float float;
#X text 487 114 NEGATIVE;
#X obj 135 315 unpack string float float float float;
#X floatatom 167 387 5 0 0 0 - - -;
#X floatatom 223 397 5 0 0 0 - - -;
#X floatatom 309 398 5 0 0 0 - - -;
#X floatatom 378 400 5 0 0 0 - - -;
#N canvas 0 38 1512 863 player 0;
#X obj 36 90 loadbang;
#X obj -4 196 openpanel;
#X obj 11 235 symbol;
#X obj 163 142 bng 15 250 50 0 empty empty File 17 7 0 10 -262144 -1
-1;
#X obj 163 164 bng 15 250 50 0 empty empty play 17 7 0 10 -4034 -1
-1;
#X msg 1 134 symbol;
#X msg 10 263 open \$1 \, 1;
#X obj 10 298 readsf~ 2;
#X obj 11 341 outlet~;
#X obj 163 187 bng 15 250 50 0 empty empty stop 17 7 0 10 -258113 -1
-1;
#X msg 145 261 0;
#X obj 141 295 spigot;
#X obj 186 259 r \$0-loop;
#X obj 163 209 tgl 15 0 empty empty loop 17 7 0 10 -262144 -1 -1 0
1;
#X connect 0 0 5 0;
#X connect 1 0 2 1;
#X connect 2 0 6 0;
#X connect 3 0 1 0;
#X connect 4 0 2 0;
#X connect 6 0 7 0;
#X connect 7 0 8 0;
#X connect 7 2 11 0;
#X connect 9 0 10 0;
#X connect 10 0 7 0;
#X connect 11 0 2 0;
#X connect 12 0 11 1;
#X coords 0 -1 1 1 150 150 1 100 100;
#X restore 855 82 pd player;
#X obj 661 717 dac~;
#N canvas 232 138 1046 741 NEGATIVE 0;
#X msg 273 184 param_set 0 \$1;
#X obj 279 151 hsl 128 15 0 1 0 0 empty empty empty -2 -8 0 10 -262144
-1 -1 2500 1;
#X msg 86 253 param_set 3 \$1;
#X obj 101 221 hsl 128 15 0 1 0 0 empty empty empty -2 -8 0 10 -262144
-1 -1 325 1;
#X obj 522 80 inlet~;
#X obj 585 80 inlet~;
#X obj 459 677 outlet~;
#X obj 539 678 outlet~;
#X text 526 46 Audio In;
#X text 361 689 Audio out;
#N canvas 665 72 753 829 MConvolution 0;
#X obj 276 318 vstplugin~;
#X msg 512 200 open -e MConvolutionEZ.vst3;
#N canvas 101 355 608 488 message-out 0;
#X obj 20 17 inlet;
#X obj 20 83 s \$0-program-data;
#X obj 20 50 route program_data bank_data, f 39;
#X obj 155 83 s \$0-bank-data;
#X obj 342 132 print;
#X obj 342 105 spigot 1;
#X obj 411 105 tgl 19 0 empty empty empty 17 7 0 10 -262144 -1 -1 0
1;
#X text 437 104 print messages;
#X obj 310 77 s \$0-out;
#X obj 310 50 t a a;
#X msg 28 188 param_automated <index> <value>;
#X msg 28 224 latency <numsamples>;
#X msg 30 287 midi <bytes...>;
#X msg 29 324 sysex <bytes...>;
#X text 263 182 a parameter has been changed in the GUI (or by changing
a linked parameter)., f 40;
#X text 182 224 the plugin's internal processing latency has changed
;
#X text 159 287 a MIDI message sent by the plugin;
#X text 159 324 a SysEx message sent by the plugin;
#X text 183 242 NOTE: the value includes the additional latency caused
by multithreading (see the "-t" flag for "open"), f 55;
#X msg 29 397 crash;
#X text 381 76 goes to vstpresetbrowser;
#X text 21 111 see [pd preset];
#X text 93 398 the plugin subprocess has crashed.;
#X text 94 416 This is only sent for bridged or sandboxed plugins \,
because normal plugins would simply crash Pd., f 52;
#X msg 29 361 update;
#X text 97 362 multiple parameters have changed internally;
#X obj 25 153 cnv 15 70 20 empty empty empty 20 12 0 14 -228856 -66577
0;
#X text 31 154 events:;
#X connect 0 0 2 0;
#X connect 2 0 1 0;
#X connect 2 1 3 0;
#X connect 2 2 9 0;
#X connect 5 0 4 0;
#X connect 6 0 5 1;
#X connect 9 0 8 0;
#X connect 9 1 5 0;
#X restore 568 374 pd message-out;
#X obj 76 69 inlet~;
#X obj 139 69 inlet~;
#X obj 545 122 loadbang;
#X obj 66 704 outlet~;
#X obj 129 704 outlet~;
#X text 99 36 Audio In;
#X text 99 749 Audio out;
#X msg 26 232 param_list;
#X obj 345 42 inlet;
#X obj 401 43 inlet;
#X connect 0 0 6 0;
#X connect 0 1 7 0;
#X connect 0 2 2 0;
#X connect 1 0 0 0;
#X connect 3 0 0 0;
#X connect 4 0 0 1;
#X connect 5 0 1 0;
#X connect 10 0 0 0;
#X connect 11 0 0 0;
#X connect 12 0 0 0;
#X restore 515 264 pd MConvolution;
#X text 145 29 Vectors In;
#N canvas 515 147 987 753 MWaveFolder 0;
#X obj 346 331 vstplugin~;
#X msg 723 123 open -e MWaveFolder.vst3;
#N canvas 101 355 608 488 message-out 0;
#X obj 20 17 inlet;
#X obj 20 83 s \$0-program-data;
#X obj 20 50 route program_data bank_data, f 39;
#X obj 155 83 s \$0-bank-data;
#X obj 342 132 print;
#X obj 342 105 spigot 1;
#X obj 411 105 tgl 19 0 empty empty empty 17 7 0 10 -262144 -1 -1 0
1;
#X text 437 104 print messages;
#X obj 310 77 s \$0-out;
#X obj 310 50 t a a;
#X msg 28 188 param_automated <index> <value>;
#X msg 28 224 latency <numsamples>;
#X msg 30 287 midi <bytes...>;
#X msg 29 324 sysex <bytes...>;
#X text 263 182 a parameter has been changed in the GUI (or by changing
a linked parameter)., f 40;
#X text 182 224 the plugin's internal processing latency has changed
;
#X text 159 287 a MIDI message sent by the plugin;
#X text 159 324 a SysEx message sent by the plugin;
#X text 183 242 NOTE: the value includes the additional latency caused
by multithreading (see the "-t" flag for "open"), f 55;
#X msg 29 397 crash;
#X text 381 76 goes to vstpresetbrowser;
#X text 21 111 see [pd preset];
#X text 93 398 the plugin subprocess has crashed.;
#X text 94 416 This is only sent for bridged or sandboxed plugins \,
because normal plugins would simply crash Pd., f 52;
#X msg 29 361 update;
#X text 97 362 multiple parameters have changed internally;
#X obj 25 153 cnv 15 70 20 empty empty empty 20 12 0 14 -228856 -66577
0;
#X text 31 154 events:;
#X connect 0 0 2 0;
#X connect 2 0 1 0;
#X connect 2 1 3 0;
#X connect 2 2 9 0;
#X connect 5 0 4 0;
#X connect 6 0 5 1;
#X connect 9 0 8 0;
#X connect 9 1 5 0;
#X restore 446 402 pd message-out;
#X obj 67 53 inlet~;
#X obj 130 53 inlet~;
#X obj 723 76 loadbang;
#X msg 23 208 param_list;
#X obj 153 614 outlet~;
#X obj 216 614 outlet~;
#X text 167 653 Audio out;
#X text 76 22 Audio In;
#X connect 0 0 7 0;
#X connect 0 1 8 0;
#X connect 0 2 2 0;
#X connect 1 0 0 0;
#X connect 3 0 0 0;
#X connect 4 0 0 1;
#X connect 5 0 1 0;
#X connect 6 0 0 0;
#X restore 753 280 pd MWaveFolder;
#X obj 104 91 inlet;
#X obj 206 90 inlet;
#X obj 156 90 inlet;
#X obj 257 89 inlet;
#N canvas 817 108 1099 763 ValhallaFreqEcho 0;
#X obj 453 309 vstplugin~;
#X msg 690 246 open -e ValhallaFreqEcho.vst;
#X obj 76 69 inlet~;
#X obj 139 69 inlet~;
#X obj 897 148 loadbang;
#X text 99 36 Audio In;
#X obj 66 704 outlet~;
#X obj 129 704 outlet~;
#X text 89 737 Audio out;
#X msg 26 232 param_list;
#N canvas 101 355 608 488 message-out 0;
#X obj 20 17 inlet;
#X obj 20 83 s \$0-program-data;
#X obj 20 50 route program_data bank_data, f 39;
#X obj 155 83 s \$0-bank-data;
#X obj 342 132 print;
#X obj 342 105 spigot 1;
#X obj 411 105 tgl 19 0 empty empty empty 17 7 0 10 -262144 -1 -1 0
1;
#X text 437 104 print messages;
#X obj 310 77 s \$0-out;
#X obj 310 50 t a a;
#X msg 28 188 param_automated <index> <value>;
#X msg 28 224 latency <numsamples>;
#X msg 30 287 midi <bytes...>;
#X msg 29 324 sysex <bytes...>;
#X text 263 182 a parameter has been changed in the GUI (or by changing
a linked parameter)., f 40;
#X text 182 224 the plugin's internal processing latency has changed
;
#X text 159 287 a MIDI message sent by the plugin;
#X text 159 324 a SysEx message sent by the plugin;
#X text 183 242 NOTE: the value includes the additional latency caused
by multithreading (see the "-t" flag for "open"), f 55;
#X msg 29 397 crash;
#X text 381 76 goes to vstpresetbrowser;
#X text 21 111 see [pd preset];
#X text 93 398 the plugin subprocess has crashed.;
#X text 94 416 This is only sent for bridged or sandboxed plugins \,
because normal plugins would simply crash Pd., f 52;
#X msg 29 361 update;
#X text 97 362 multiple parameters have changed internally;
#X obj 25 153 cnv 15 70 20 empty empty empty 20 12 0 14 -228856 -66577
0;
#X text 31 154 events:;
#X connect 0 0 2 0;
#X connect 2 0 1 0;
#X connect 2 1 3 0;
#X connect 2 2 9 0;
#X connect 5 0 4 0;
#X connect 6 0 5 1;
#X connect 9 0 8 0;
#X connect 9 1 5 0;
#X restore 713 406 pd message-out;
#X connect 0 0 6 0;
#X connect 0 1 7 0;
#X connect 0 2 10 0;
#X connect 1 0 0 0;
#X connect 2 0 0 0;
#X connect 3 0 0 1;
#X connect 4 0 1 0;
#X connect 9 0 0 0;
#X restore 466 410 pd ValhallaFreqEcho;
#N canvas 618 196 1225 795 MBitFun 0;
#X obj 453 309 vstplugin~;
#X obj 76 69 inlet~;
#X obj 139 69 inlet~;
#X obj 897 148 loadbang;
#X text 99 36 Audio In;
#X obj 66 704 outlet~;
#X obj 129 704 outlet~;
#X text 89 737 Audio out;
#X msg 26 232 param_list;
#N canvas 101 355 608 488 message-out 0;
#X obj 20 17 inlet;
#X obj 20 83 s \$0-program-data;
#X obj 20 50 route program_data bank_data, f 39;
#X obj 155 83 s \$0-bank-data;
#X obj 342 132 print;
#X obj 342 105 spigot 1;
#X obj 411 105 tgl 19 0 empty empty empty 17 7 0 10 -262144 -1 -1 0
1;
#X text 437 104 print messages;
#X obj 310 77 s \$0-out;
#X obj 310 50 t a a;
#X msg 28 188 param_automated <index> <value>;
#X msg 28 224 latency <numsamples>;
#X msg 30 287 midi <bytes...>;
#X msg 29 324 sysex <bytes...>;
#X text 263 182 a parameter has been changed in the GUI (or by changing
a linked parameter)., f 40;
#X text 182 224 the plugin's internal processing latency has changed
;
#X text 159 287 a MIDI message sent by the plugin;
#X text 159 324 a SysEx message sent by the plugin;
#X text 183 242 NOTE: the value includes the additional latency caused
by multithreading (see the "-t" flag for "open"), f 55;
#X msg 29 397 crash;
#X text 381 76 goes to vstpresetbrowser;
#X text 21 111 see [pd preset];
#X text 93 398 the plugin subprocess has crashed.;
#X text 94 416 This is only sent for bridged or sandboxed plugins \,
because normal plugins would simply crash Pd., f 52;
#X msg 29 361 update;
#X text 97 362 multiple parameters have changed internally;
#X obj 25 153 cnv 15 70 20 empty empty empty 20 12 0 14 -228856 -66577
0;
#X text 31 154 events:;
#X connect 0 0 2 0;
#X connect 2 0 1 0;
#X connect 2 1 3 0;
#X connect 2 2 9 0;
#X connect 5 0 4 0;
#X connect 6 0 5 1;
#X connect 9 0 8 0;
#X connect 9 1 5 0;
#X restore 713 406 pd message-out;
#X msg 690 246 open -e MBitFun.vst3;
#X connect 0 0 5 0;
#X connect 0 1 6 0;
#X connect 0 2 9 0;
#X connect 1 0 0 0;
#X connect 2 0 0 1;
#X connect 3 0 10 0;
#X connect 8 0 0 0;
#X connect 10 0 0 0;
#X restore 752 347 pd MBitFun;
#N canvas 260 38 1252 863 Emergence 0;
#X obj 254 82 inlet~;
#X obj 317 82 inlet~;
#X obj 274 216 vstplugin~;
#X msg 480 144 open -e Emergence.vst3;
#X obj 491 86 loadbang;
#N canvas 101 355 608 488 message-out 0;
#X obj 20 17 inlet;
#X obj 20 83 s \$0-program-data;
#X obj 20 50 route program_data bank_data, f 39;
#X obj 155 83 s \$0-bank-data;
#X obj 342 132 print;
#X obj 342 105 spigot 1;
#X obj 411 105 tgl 19 0 empty empty empty 17 7 0 10 -262144 -1 -1 0
1;
#X text 437 104 print messages;
#X obj 310 77 s \$0-out;
#X obj 310 50 t a a;
#X msg 28 188 param_automated <index> <value>;
#X msg 28 224 latency <numsamples>;
#X msg 30 287 midi <bytes...>;
#X msg 29 324 sysex <bytes...>;
#X text 263 182 a parameter has been changed in the GUI (or by changing
a linked parameter)., f 40;
#X text 182 224 the plugin's internal processing latency has changed
;
#X text 159 287 a MIDI message sent by the plugin;
#X text 159 324 a SysEx message sent by the plugin;
#X text 183 242 NOTE: the value includes the additional latency caused
by multithreading (see the "-t" flag for "open"), f 55;
#X msg 29 397 crash;
#X text 381 76 goes to vstpresetbrowser;
#X text 21 111 see [pd preset];
#X text 93 398 the plugin subprocess has crashed.;
#X text 94 416 This is only sent for bridged or sandboxed plugins \,
because normal plugins would simply crash Pd., f 52;
#X msg 29 361 update;
#X text 97 362 multiple parameters have changed internally;
#X obj 25 153 cnv 15 70 20 empty empty empty 20 12 0 14 -228856 -66577
0;
#X text 31 154 events:;
#X connect 0 0 2 0;
#X connect 2 0 1 0;
#X connect 2 1 3 0;
#X connect 2 2 9 0;
#X connect 5 0 4 0;
#X connect 6 0 5 1;
#X connect 9 0 8 0;
#X connect 9 1 5 0;
#X restore 446 280 pd message-out;
#X obj 234 319 outlet~;
#X obj 314 320 outlet~;
#X msg 60 242 param_list;
#X text 10 269 click to see parameters in console, f 27;
#X connect 0 0 2 0;
#X connect 1 0 2 1;
#X connect 2 0 6 0;
#X connect 2 1 7 0;
#X connect 2 2 5 0;
#X connect 3 0 2 0;
#X connect 4 0 3 0;
#X connect 8 0 2 0;
#X restore 426 330 pd Emergence Granular;
#N canvas 89 65 1406 929 MCompressor 0;
#X obj 453 309 vstplugin~;
#X obj 76 69 inlet~;
#X obj 139 69 inlet~;
#X obj 897 148 loadbang;
#X text 99 36 Audio In;
#X obj 66 704 outlet~;
#X obj 129 704 outlet~;
#X text 89 737 Audio out;
#X msg 26 232 param_list;
#N canvas 101 355 608 488 message-out 0;
#X obj 20 17 inlet;
#X obj 20 83 s \$0-program-data;
#X obj 20 50 route program_data bank_data, f 39;
#X obj 155 83 s \$0-bank-data;
#X obj 342 132 print;
#X obj 342 105 spigot 1;
#X obj 411 105 tgl 19 0 empty empty empty 17 7 0 10 -262144 -1 -1 0
1;
#X text 437 104 print messages;
#X obj 310 77 s \$0-out;
#X obj 310 50 t a a;
#X msg 28 188 param_automated <index> <value>;
#X msg 28 224 latency <numsamples>;
#X msg 30 287 midi <bytes...>;
#X msg 29 324 sysex <bytes...>;
#X text 263 182 a parameter has been changed in the GUI (or by changing
a linked parameter)., f 40;
#X text 182 224 the plugin's internal processing latency has changed
;
#X text 159 287 a MIDI message sent by the plugin;
#X text 159 324 a SysEx message sent by the plugin;
#X text 183 242 NOTE: the value includes the additional latency caused
by multithreading (see the "-t" flag for "open"), f 55;
#X msg 29 397 crash;
#X text 381 76 goes to vstpresetbrowser;
#X text 21 111 see [pd preset];
#X text 93 398 the plugin subprocess has crashed.;
#X text 94 416 This is only sent for bridged or sandboxed plugins \,
because normal plugins would simply crash Pd., f 52;
#X msg 29 361 update;
#X text 97 362 multiple parameters have changed internally;
#X obj 25 153 cnv 15 70 20 empty empty empty 20 12 0 14 -228856 -66577
0;
#X text 31 154 events:;
#X connect 0 0 2 0;
#X connect 2 0 1 0;
#X connect 2 1 3 0;
#X connect 2 2 9 0;
#X connect 5 0 4 0;
#X connect 6 0 5 1;
#X connect 9 0 8 0;
#X connect 9 1 5 0;
#X restore 713 406 pd message-out;
#X msg 690 246 open -e MCompressor.vst3;
#X connect 0 0 5 0;
#X connect 0 1 6 0;
#X connect 0 2 9 0;
#X connect 1 0 0 0;
#X connect 2 0 0 1;
#X connect 3 0 10 0;
#X connect 8 0 0 0;
#X connect 10 0 0 0;
#X restore 750 380 pd MCompressor;
#N canvas 327 110 1196 822 PaulXStretch 0;
#X obj 453 309 vstplugin~;
#X obj 76 69 inlet~;
#X obj 139 69 inlet~;
#X obj 897 148 loadbang;
#X text 99 36 Audio In;
#X obj 66 704 outlet~;
#X obj 129 704 outlet~;
#X text 89 737 Audio out;
#X msg 26 232 param_list;
#N canvas 101 355 608 488 message-out 0;
#X obj 20 17 inlet;
#X obj 20 83 s \$0-program-data;
#X obj 20 50 route program_data bank_data, f 39;
#X obj 155 83 s \$0-bank-data;
#X obj 342 132 print;
#X obj 342 105 spigot 1;
#X obj 411 105 tgl 19 0 empty empty empty 17 7 0 10 -262144 -1 -1 0
1;
#X text 437 104 print messages;
#X obj 310 77 s \$0-out;
#X obj 310 50 t a a;
#X msg 28 188 param_automated <index> <value>;
#X msg 28 224 latency <numsamples>;
#X msg 30 287 midi <bytes...>;
#X msg 29 324 sysex <bytes...>;
#X text 263 182 a parameter has been changed in the GUI (or by changing
a linked parameter)., f 40;
#X text 182 224 the plugin's internal processing latency has changed
;
#X text 159 287 a MIDI message sent by the plugin;
#X text 159 324 a SysEx message sent by the plugin;
#X text 183 242 NOTE: the value includes the additional latency caused
by multithreading (see the "-t" flag for "open"), f 55;
#X msg 29 397 crash;
#X text 381 76 goes to vstpresetbrowser;
#X text 21 111 see [pd preset];
#X text 93 398 the plugin subprocess has crashed.;
#X text 94 416 This is only sent for bridged or sandboxed plugins \,
because normal plugins would simply crash Pd., f 52;
#X msg 29 361 update;
#X text 97 362 multiple parameters have changed internally;
#X obj 25 153 cnv 15 70 20 empty empty empty 20 12 0 14 -228856 -66577
0;
#X text 31 154 events:;
#X connect 0 0 2 0;
#X connect 2 0 1 0;
#X connect 2 1 3 0;
#X connect 2 2 9 0;
#X connect 5 0 4 0;
#X connect 6 0 5 1;
#X connect 9 0 8 0;
#X connect 9 1 5 0;
#X restore 713 406 pd message-out;
#X msg 690 246 open -e PaulXStretch.vst3;
#X connect 0 0 5 0;
#X connect 0 1 6 0;
#X connect 0 2 9 0;
#X connect 1 0 0 0;
#X connect 2 0 0 1;
#X connect 3 0 10 0;
#X connect 8 0 0 0;
#X connect 10 0 0 0;
#X restore 727 444 pd PaulXStretch;
#X connect 0 0 10 2;
#X connect 1 0 0 0;
#X connect 2 0 10 3;
#X connect 3 0 2 0;
#X connect 4 0 10 0;
#X connect 5 0 10 1;
#X connect 10 0 6 0;
#X connect 10 1 7 0;
#X connect 13 0 3 0;
#X restore 704 488 pd NEGATIVE;
#X f 23;
#N canvas 142 86 1197 817 POSITIVE 0;
#X msg 273 184 param_set 0 \$1;
#X obj 279 151 hsl 128 15 0 1 0 0 empty empty empty -2 -8 0 10 -262144
-1 -1 0 1;
#X msg 86 253 param_set 3 \$1;
#X obj 101 221 hsl 128 15 0 1 0 0 empty empty empty -2 -8 0 10 -262144
-1 -1 5718 1;
#X obj 522 80 inlet~;
#X obj 585 80 inlet~;
#X obj 459 677 outlet~;
#X obj 539 678 outlet~;
#X text 526 46 Audio In;
#X text 361 689 Audio out;
#N canvas 987 156 753 829 MConvolution 0;
#X obj 276 318 vstplugin~;
#X msg 512 200 open -e MConvolutionEZ.vst3;
#N canvas 101 355 608 488 message-out 0;
#X obj 20 17 inlet;
#X obj 20 83 s \$0-program-data;
#X obj 20 50 route program_data bank_data, f 39;
#X obj 155 83 s \$0-bank-data;
#X obj 342 132 print;
#X obj 342 105 spigot 1;
#X obj 411 105 tgl 19 0 empty empty empty 17 7 0 10 -262144 -1 -1 0
1;
#X text 437 104 print messages;
#X obj 310 77 s \$0-out;
#X obj 310 50 t a a;
#X msg 28 188 param_automated <index> <value>;
#X msg 28 224 latency <numsamples>;
#X msg 30 287 midi <bytes...>;
#X msg 29 324 sysex <bytes...>;
#X text 263 182 a parameter has been changed in the GUI (or by changing
a linked parameter)., f 40;
#X text 182 224 the plugin's internal processing latency has changed
;
#X text 159 287 a MIDI message sent by the plugin;
#X text 159 324 a SysEx message sent by the plugin;
#X text 183 242 NOTE: the value includes the additional latency caused
by multithreading (see the "-t" flag for "open"), f 55;
#X msg 29 397 crash;
#X text 381 76 goes to vstpresetbrowser;
#X text 21 111 see [pd preset];
#X text 93 398 the plugin subprocess has crashed.;
#X text 94 416 This is only sent for bridged or sandboxed plugins \,
because normal plugins would simply crash Pd., f 52;
#X msg 29 361 update;
#X text 97 362 multiple parameters have changed internally;
#X obj 25 153 cnv 15 70 20 empty empty empty 20 12 0 14 -228856 -66577
0;
#X text 31 154 events:;
#X connect 0 0 2 0;
#X connect 2 0 1 0;
#X connect 2 1 3 0;
#X connect 2 2 9 0;
#X connect 5 0 4 0;
#X connect 6 0 5 1;
#X connect 9 0 8 0;
#X connect 9 1 5 0;
#X restore 568 374 pd message-out;
#X obj 76 69 inlet~;
#X obj 139 69 inlet~;
#X obj 545 122 loadbang;
#X obj 66 704 outlet~;
#X obj 129 704 outlet~;
#X text 99 36 Audio In;
#X text 99 749 Audio out;
#X msg 26 232 param_list;
#X obj 345 42 inlet;
#X obj 401 43 inlet;
#X connect 0 0 6 0;
#X connect 0 1 7 0;
#X connect 0 2 2 0;
#X connect 1 0 0 0;
#X connect 3 0 0 0;
#X connect 4 0 0 1;
#X connect 5 0 1 0;
#X connect 10 0 0 0;
#X connect 11 0 0 0;
#X connect 12 0 0 0;
#X restore 515 264 pd MConvolution;
#X text 145 29 Vectors In;
#X obj 104 91 inlet;
#X obj 206 90 inlet;
#X obj 156 90 inlet;
#X obj 257 89 inlet;
#N canvas 764 165 1099 763 ValhallaFreqEcho 0;
#X obj 453 309 vstplugin~;
#X msg 690 246 open -e ValhallaFreqEcho.vst;
#X obj 76 69 inlet~;
#X obj 139 69 inlet~;
#X obj 897 148 loadbang;
#X text 99 36 Audio In;
#X obj 66 704 outlet~;
#X obj 129 704 outlet~;
#X text 89 737 Audio out;
#X msg 26 232 param_list;
#N canvas 101 355 608 488 message-out 0;
#X obj 20 17 inlet;
#X obj 20 83 s \$0-program-data;
#X obj 20 50 route program_data bank_data, f 39;
#X obj 155 83 s \$0-bank-data;
#X obj 342 132 print;
#X obj 342 105 spigot 1;
#X obj 411 105 tgl 19 0 empty empty empty 17 7 0 10 -262144 -1 -1 0
1;
#X text 437 104 print messages;
#X obj 310 77 s \$0-out;
#X obj 310 50 t a a;
#X msg 28 188 param_automated <index> <value>;
#X msg 28 224 latency <numsamples>;
#X msg 30 287 midi <bytes...>;
#X msg 29 324 sysex <bytes...>;
#X text 263 182 a parameter has been changed in the GUI (or by changing
a linked parameter)., f 40;
#X text 182 224 the plugin's internal processing latency has changed
;
#X text 159 287 a MIDI message sent by the plugin;
#X text 159 324 a SysEx message sent by the plugin;
#X text 183 242 NOTE: the value includes the additional latency caused
by multithreading (see the "-t" flag for "open"), f 55;
#X msg 29 397 crash;
#X text 381 76 goes to vstpresetbrowser;
#X text 21 111 see [pd preset];
#X text 93 398 the plugin subprocess has crashed.;
#X text 94 416 This is only sent for bridged or sandboxed plugins \,
because normal plugins would simply crash Pd., f 52;
#X msg 29 361 update;
#X text 97 362 multiple parameters have changed internally;
#X obj 25 153 cnv 15 70 20 empty empty empty 20 12 0 14 -228856 -66577
0;
#X text 31 154 events:;
#X connect 0 0 2 0;
#X connect 2 0 1 0;
#X connect 2 1 3 0;
#X connect 2 2 9 0;
#X connect 5 0 4 0;
#X connect 6 0 5 1;
#X connect 9 0 8 0;
#X connect 9 1 5 0;
#X restore 713 406 pd message-out;
#X connect 0 0 6 0;
#X connect 0 1 7 0;
#X connect 0 2 10 0;
#X connect 1 0 0 0;
#X connect 2 0 0 0;
#X connect 3 0 0 1;
#X connect 4 0 1 0;
#X connect 9 0 0 0;
#X restore 759 289 pd ValhallaFreqEcho;
#N canvas 668 92 1252 901 Emergence 0;
#X obj 254 82 inlet~;
#X obj 317 82 inlet~;
#X obj 274 216 vstplugin~;
#X msg 480 144 open -e Emergence.vst3;
#X obj 491 86 loadbang;
#N canvas 101 355 608 488 message-out 0;
#X obj 20 17 inlet;
#X obj 20 83 s \$0-program-data;
#X obj 20 50 route program_data bank_data, f 39;
#X obj 155 83 s \$0-bank-data;
#X obj 342 132 print;
#X obj 342 105 spigot 1;
#X obj 411 105 tgl 19 0 empty empty empty 17 7 0 10 -262144 -1 -1 0
1;
#X text 437 104 print messages;
#X obj 310 77 s \$0-out;
#X obj 310 50 t a a;
#X msg 28 188 param_automated <index> <value>;
#X msg 28 224 latency <numsamples>;
#X msg 30 287 midi <bytes...>;
#X msg 29 324 sysex <bytes...>;
#X text 263 182 a parameter has been changed in the GUI (or by changing
a linked parameter)., f 40;
#X text 182 224 the plugin's internal processing latency has changed
;
#X text 159 287 a MIDI message sent by the plugin;
#X text 159 324 a SysEx message sent by the plugin;
#X text 183 242 NOTE: the value includes the additional latency caused
by multithreading (see the "-t" flag for "open"), f 55;
#X msg 29 397 crash;
#X text 381 76 goes to vstpresetbrowser;
#X text 21 111 see [pd preset];
#X text 93 398 the plugin subprocess has crashed.;
#X text 94 416 This is only sent for bridged or sandboxed plugins \,
because normal plugins would simply crash Pd., f 52;
#X msg 29 361 update;
#X text 97 362 multiple parameters have changed internally;
#X obj 25 153 cnv 15 70 20 empty empty empty 20 12 0 14 -228856 -66577
0;
#X text 31 154 events:;
#X connect 0 0 2 0;
#X connect 2 0 1 0;
#X connect 2 1 3 0;
#X connect 2 2 9 0;
#X connect 5 0 4 0;
#X connect 6 0 5 1;
#X connect 9 0 8 0;
#X connect 9 1 5 0;
#X restore 446 280 pd message-out;
#X obj 234 319 outlet~;
#X obj 314 320 outlet~;
#X msg 60 242 param_list;
#X text 10 269 click to see parameters in console, f 27;
#X connect 0 0 2 0;
#X connect 1 0 2 1;
#X connect 2 0 6 0;
#X connect 2 1 7 0;
#X connect 2 2 5 0;
#X connect 3 0 2 0;
#X connect 4 0 3 0;
#X connect 8 0 2 0;
#X restore 761 247 pd Emergence Granular;
#N canvas 89 38 1406 862 MCompressor 0;
#X obj 453 309 vstplugin~;
#X obj 76 69 inlet~;
#X obj 139 69 inlet~;
#X obj 897 148 loadbang;
#X text 99 36 Audio In;
#X obj 66 704 outlet~;
#X obj 129 704 outlet~;
#X text 89 737 Audio out;
#X msg 26 232 param_list;
#N canvas 101 355 608 488 message-out 0;
#X obj 20 17 inlet;
#X obj 20 83 s \$0-program-data;
#X obj 20 50 route program_data bank_data, f 39;
#X obj 155 83 s \$0-bank-data;
#X obj 342 132 print;
#X obj 342 105 spigot 1;
#X obj 411 105 tgl 19 0 empty empty empty 17 7 0 10 -262144 -1 -1 0
1;
#X text 437 104 print messages;
#X obj 310 77 s \$0-out;
#X obj 310 50 t a a;
#X msg 28 188 param_automated <index> <value>;
#X msg 28 224 latency <numsamples>;
#X msg 30 287 midi <bytes...>;
#X msg 29 324 sysex <bytes...>;
#X text 263 182 a parameter has been changed in the GUI (or by changing
a linked parameter)., f 40;
#X text 182 224 the plugin's internal processing latency has changed
;
#X text 159 287 a MIDI message sent by the plugin;
#X text 159 324 a SysEx message sent by the plugin;
#X text 183 242 NOTE: the value includes the additional latency caused
by multithreading (see the "-t" flag for "open"), f 55;
#X msg 29 397 crash;
#X text 381 76 goes to vstpresetbrowser;
#X text 21 111 see [pd preset];
#X text 93 398 the plugin subprocess has crashed.;
#X text 94 416 This is only sent for bridged or sandboxed plugins \,
because normal plugins would simply crash Pd., f 52;
#X msg 29 361 update;
#X text 97 362 multiple parameters have changed internally;
#X obj 25 153 cnv 15 70 20 empty empty empty 20 12 0 14 -228856 -66577
0;
#X text 31 154 events:;
#X connect 0 0 2 0;
#X connect 2 0 1 0;
#X connect 2 1 3 0;
#X connect 2 2 9 0;
#X connect 5 0 4 0;
#X connect 6 0 5 1;
#X connect 9 0 8 0;
#X connect 9 1 5 0;
#X restore 713 406 pd message-out;
#X msg 690 246 open -e MCompressor.vst3;
#X connect 0 0 5 0;
#X connect 0 1 6 0;
#X connect 0 2 9 0;
#X connect 1 0 0 0;
#X connect 2 0 0 1;
#X connect 3 0 10 0;
#X connect 8 0 0 0;
#X connect 10 0 0 0;
#X restore 757 330 pd MCompressor;
#N canvas 448 141 1315 806 ValhallaSpaceModulator 0;
#X obj 453 309 vstplugin~;
#X obj 76 69 inlet~;
#X obj 139 69 inlet~;
#X obj 897 148 loadbang;
#X text 99 36 Audio In;
#X obj 66 704 outlet~;
#X obj 129 704 outlet~;
#X text 89 737 Audio out;
#X msg 26 232 param_list;
#N canvas 101 355 608 488 message-out 0;
#X obj 20 17 inlet;
#X obj 20 83 s \$0-program-data;
#X obj 20 50 route program_data bank_data, f 39;
#X obj 155 83 s \$0-bank-data;
#X obj 342 132 print;
#X obj 342 105 spigot 1;
#X obj 411 105 tgl 19 0 empty empty empty 17 7 0 10 -262144 -1 -1 0
1;
#X text 437 104 print messages;
#X obj 310 77 s \$0-out;
#X obj 310 50 t a a;
#X msg 28 188 param_automated <index> <value>;
#X msg 28 224 latency <numsamples>;
#X msg 30 287 midi <bytes...>;
#X msg 29 324 sysex <bytes...>;
#X text 263 182 a parameter has been changed in the GUI (or by changing
a linked parameter)., f 40;
#X text 182 224 the plugin's internal processing latency has changed
;
#X text 159 287 a MIDI message sent by the plugin;
#X text 159 324 a SysEx message sent by the plugin;
#X text 183 242 NOTE: the value includes the additional latency caused
by multithreading (see the "-t" flag for "open"), f 55;
#X msg 29 397 crash;
#X text 381 76 goes to vstpresetbrowser;
#X text 21 111 see [pd preset];
#X text 93 398 the plugin subprocess has crashed.;
#X text 94 416 This is only sent for bridged or sandboxed plugins \,
because normal plugins would simply crash Pd., f 52;
#X msg 29 361 update;
#X text 97 362 multiple parameters have changed internally;
#X obj 25 153 cnv 15 70 20 empty empty empty 20 12 0 14 -228856 -66577
0;
#X text 31 154 events:;
#X connect 0 0 2 0;
#X connect 2 0 1 0;
#X connect 2 1 3 0;
#X connect 2 2 9 0;
#X connect 5 0 4 0;
#X connect 6 0 5 1;
#X connect 9 0 8 0;
#X connect 9 1 5 0;
#X restore 713 406 pd message-out;
#X msg 690 246 open -e ValhallaSpaceModulator.vst;
#X connect 0 0 5 0;
#X connect 0 1 6 0;
#X connect 0 2 9 0;
#X connect 1 0 0 0;
#X connect 2 0 0 1;
#X connect 3 0 10 0;
#X connect 8 0 0 0;
#X connect 10 0 0 0;
#X restore 760 438 pd ValhallaSpaceModulator;
#N canvas 408 219 1293 791 ValhallaSuperMassive 0;
#X obj 453 309 vstplugin~;
#X obj 76 69 inlet~;
#X obj 139 69 inlet~;
#X obj 897 148 loadbang;
#X text 99 36 Audio In;
#X obj 66 704 outlet~;
#X obj 129 704 outlet~;
#X text 89 737 Audio out;
#X msg 26 232 param_list;
#N canvas 101 355 608 488 message-out 0;
#X obj 20 17 inlet;
#X obj 20 83 s \$0-program-data;
#X obj 20 50 route program_data bank_data, f 39;
#X obj 155 83 s \$0-bank-data;
#X obj 342 132 print;
#X obj 342 105 spigot 1;
#X obj 411 105 tgl 19 0 empty empty empty 17 7 0 10 -262144 -1 -1 0
1;
#X text 437 104 print messages;
#X obj 310 77 s \$0-out;
#X obj 310 50 t a a;
#X msg 28 188 param_automated <index> <value>;
#X msg 28 224 latency <numsamples>;
#X msg 30 287 midi <bytes...>;
#X msg 29 324 sysex <bytes...>;
#X text 263 182 a parameter has been changed in the GUI (or by changing
a linked parameter)., f 40;
#X text 182 224 the plugin's internal processing latency has changed
;
#X text 159 287 a MIDI message sent by the plugin;
#X text 159 324 a SysEx message sent by the plugin;
#X text 183 242 NOTE: the value includes the additional latency caused
by multithreading (see the "-t" flag for "open"), f 55;
#X msg 29 397 crash;
#X text 381 76 goes to vstpresetbrowser;
#X text 21 111 see [pd preset];
#X text 93 398 the plugin subprocess has crashed.;
#X text 94 416 This is only sent for bridged or sandboxed plugins \,
because normal plugins would simply crash Pd., f 52;
#X msg 29 361 update;
#X text 97 362 multiple parameters have changed internally;
#X obj 25 153 cnv 15 70 20 empty empty empty 20 12 0 14 -228856 -66577
0;
#X text 31 154 events:;
#X connect 0 0 2 0;
#X connect 2 0 1 0;
#X connect 2 1 3 0;
#X connect 2 2 9 0;
#X connect 5 0 4 0;
#X connect 6 0 5 1;
#X connect 9 0 8 0;
#X connect 9 1 5 0;
#X restore 713 406 pd message-out;
#X msg 690 246 open -e ValhallaSuperMassive.vst;
#X connect 0 0 5 0;
#X connect 0 1 6 0;
#X connect 0 2 9 0;
#X connect 1 0 0 0;
#X connect 2 0 0 1;
#X connect 3 0 10 0;
#X connect 8 0 0 0;
#X connect 10 0 0 0;
#X restore 771 507 pd ValhallaSuperMassive;
#N canvas 180 59 1196 822 PaulXStretch 0;
#X obj 453 309 vstplugin~;
#X obj 76 69 inlet~;
#X obj 139 69 inlet~;
#X obj 897 148 loadbang;
#X text 99 36 Audio In;
#X obj 66 704 outlet~;
#X obj 129 704 outlet~;
#X text 89 737 Audio out;
#X msg 26 232 param_list;
#N canvas 101 355 608 488 message-out 0;
#X obj 20 17 inlet;
#X obj 20 83 s \$0-program-data;
#X obj 20 50 route program_data bank_data, f 39;
#X obj 155 83 s \$0-bank-data;
#X obj 342 132 print;
#X obj 342 105 spigot 1;
#X obj 411 105 tgl 19 0 empty empty empty 17 7 0 10 -262144 -1 -1 0
1;
#X text 437 104 print messages;
#X obj 310 77 s \$0-out;
#X obj 310 50 t a a;
#X msg 28 188 param_automated <index> <value>;
#X msg 28 224 latency <numsamples>;
#X msg 30 287 midi <bytes...>;
#X msg 29 324 sysex <bytes...>;
#X text 263 182 a parameter has been changed in the GUI (or by changing
a linked parameter)., f 40;
#X text 182 224 the plugin's internal processing latency has changed
;
#X text 159 287 a MIDI message sent by the plugin;
#X text 159 324 a SysEx message sent by the plugin;
#X text 183 242 NOTE: the value includes the additional latency caused
by multithreading (see the "-t" flag for "open"), f 55;
#X msg 29 397 crash;
#X text 381 76 goes to vstpresetbrowser;
#X text 21 111 see [pd preset];
#X text 93 398 the plugin subprocess has crashed.;
#X text 94 416 This is only sent for bridged or sandboxed plugins \,
because normal plugins would simply crash Pd., f 52;
#X msg 29 361 update;
#X text 97 362 multiple parameters have changed internally;
#X obj 25 153 cnv 15 70 20 empty empty empty 20 12 0 14 -228856 -66577
0;
#X text 31 154 events:;
#X connect 0 0 2 0;
#X connect 2 0 1 0;
#X connect 2 1 3 0;
#X connect 2 2 9 0;
#X connect 5 0 4 0;
#X connect 6 0 5 1;
#X connect 9 0 8 0;
#X connect 9 1 5 0;
#X restore 713 406 pd message-out;
#X msg 690 246 open -e PaulXStretch.vst3;
#X connect 0 0 5 0;
#X connect 0 1 6 0;
#X connect 0 2 9 0;
#X connect 1 0 0 0;
#X connect 2 0 0 1;
#X connect 3 0 10 0;
#X connect 8 0 0 0;
#X connect 10 0 0 0;
#X restore 766 546 pd PaulXStretch;
#X connect 0 0 10 2;
#X connect 1 0 0 0;
#X connect 2 0 10 3;
#X connect 3 0 2 0;
#X connect 4 0 10 0;
#X connect 5 0 10 1;
#X connect 10 0 6 0;
#X connect 10 1 7 0;
#X connect 12 0 3 0;
#X restore 239 579 pd POSITIVE;
#X f 27;
#X connect 0 0 1 0;
#X connect 1 0 2 0;
#X connect 2 0 16 0;
#X connect 3 0 0 0;
#X connect 3 0 4 0;
#X connect 3 0 6 0;
#X connect 3 0 7 0;
#X connect 7 0 8 0;
#X connect 8 0 9 0;
#X connect 9 0 14 0;
#X connect 10 0 23 0;
#X connect 11 0 23 1;
#X connect 12 0 23 2;
#X connect 13 0 23 3;
#X connect 14 1 10 0;
#X connect 14 2 11 0;
#X connect 14 3 12 0;
#X connect 14 4 13 0;
#X connect 16 1 17 0;
#X connect 16 2 18 0;
#X connect 16 3 19 0;
#X connect 16 4 20 0;
#X connect 17 0 24 0;
#X connect 18 0 24 1;
#X connect 19 0 24 2;
#X connect 20 0 24 3;
#X connect 21 0 23 4;
#X connect 21 0 23 5;
#X connect 23 0 22 0;
#X connect 23 1 22 1;
