#N canvas 4 4 2560 1546 12;
#X obj 508 420 nn~ semantic-model-1.ts encode;
#X obj 512 472 nn~ semantic-model-1.ts decode;
#X obj 512 508 dac~;
#N canvas 350 829 2560 1546 mapFunction 0;
#X obj 331 163 inlet;
#X obj 388 162 inlet;
#X obj 445 163 inlet;
#X obj 506 163 inlet;
#X obj 205 161 inlet;
#X obj 241 326 outlet;
#X obj 238 262 expr ((($f1 - $f2) / ($f3 - $f2)) * ($f4 - $f5)) + $f5;
#X connect 0 0 6 1;
#X connect 1 0 6 2;
#X connect 2 0 6 3;
#X connect 3 0 6 4;
#X connect 4 0 6 0;
#X connect 6 0 5 0;
#X restore 230 245 pd mapFunction;
#X floatatom 230 273 5 0 0 0 - - - 0;
#X msg 93 96 -1;
#X msg 127 96 1;
#X text 906 -33 latentDim1;
#X obj 914 -9 hsl 162 19 -1 1 0 0 empty empty empty -2 -10 0 12 #fcfcfc #000000 #000000 0 1;
#N canvas 350 829 2560 1546 mapFunction 0;
#X obj 331 163 inlet;
#X obj 388 162 inlet;
#X obj 445 163 inlet;
#X obj 506 163 inlet;
#X obj 205 161 inlet;
#X obj 241 326 outlet;
#X obj 238 262 expr ((($f1 - $f2) / ($f3 - $f2)) * ($f4 - $f5)) + $f5;
#X connect 0 0 6 1;
#X connect 1 0 6 2;
#X connect 2 0 6 3;
#X connect 3 0 6 4;
#X connect 4 0 6 0;
#X connect 6 0 5 0;
#X restore 338 243 pd mapFunction;
#X floatatom 338 271 5 0 0 0 - - - 0;
#X obj 973 59 hsl 162 19 -1 1 0 0 empty empty empty -2 -10 0 12 #fcfcfc #000000 #000000 0 1;
#X text 964 33 latentDim2;
#N canvas 350 829 2560 1546 mapFunction 0;
#X obj 331 163 inlet;
#X obj 388 162 inlet;
#X obj 445 163 inlet;
#X obj 506 163 inlet;
#X obj 205 161 inlet;
#X obj 241 326 outlet;
#X obj 238 262 expr ((($f1 - $f2) / ($f3 - $f2)) * ($f4 - $f5)) + $f5;
#X connect 0 0 6 1;
#X connect 1 0 6 2;
#X connect 2 0 6 3;
#X connect 3 0 6 4;
#X connect 4 0 6 0;
#X connect 6 0 5 0;
#X restore 445 243 pd mapFunction;
#X floatatom 445 271 5 0 0 0 - - - 0;
#X obj 1045 115 hsl 162 19 -1 1 0 0 empty empty empty -2 -10 0 12 #fcfcfc #000000 #000000 0 1;
#X text 1038 88 latentDim3;
#X msg 157 0 0.6;
#X msg 193 -1 1.2;
#X msg 228 -1 0.838;
#X msg 275 -1 0.839;
#X msg 325 -1 0;
#X msg 361 -2 3;
#X text 260 -51 chatter;
#X obj 236 -51 bng 19 250 50 0 empty empty empty 0 -10 0 12 #fcfcfc #000000 #000000;
#X obj 742 -51 bng 19 250 50 0 empty empty empty 0 -10 0 12 #fcfcfc #000000 #000000;
#X text 769 -54 airCon;
#X msg 694 -5 3;
#X msg 732 -4 2;
#X msg 779 -4 5;
#X msg 819 -3 -5;
#X msg 855 -4 4;
#X msg 658 -4 -4;
#X obj 433 -51 bng 19 250 50 0 empty empty empty 0 -10 0 12 #fcfcfc #000000 #000000;
#X msg 434 -3 3;
#X msg 475 -2 2;
#X msg 522 -2 5;
#X msg 558 -3 -5;
#X msg 594 -4 4;
#X msg 398 -2 -4;
#X text 460 -54 chatRumble;
#X connect 0 3 1 3;
#X connect 0 4 1 4;
#X connect 0 5 1 5;
#X connect 0 6 1 6;
#X connect 0 7 1 7;
#X connect 0 8 1 8;
#X connect 0 9 1 9;
#X connect 0 10 1 10;
#X connect 0 11 1 11;
#X connect 0 12 1 12;
#X connect 0 13 1 13;
#X connect 0 14 1 14;
#X connect 0 15 1 15;
#X connect 1 0 2 0;
#X connect 1 1 2 1;
#X connect 3 0 4 0;
#X connect 4 0 1 0;
#X connect 5 0 3 1;
#X connect 5 0 9 1;
#X connect 5 0 13 1;
#X connect 6 0 3 2;
#X connect 6 0 9 2;
#X connect 6 0 13 2;
#X connect 8 0 3 0;
#X connect 9 0 10 0;
#X connect 10 0 1 1;
#X connect 11 0 9 0;
#X connect 13 0 14 0;
#X connect 14 0 1 2;
#X connect 15 0 13 0;
#X connect 17 0 3 4;
#X connect 18 0 3 3;
#X connect 19 0 9 4;
#X connect 20 0 9 3;
#X connect 21 0 13 4;
#X connect 22 0 13 3;
#X connect 24 0 5 0;
#X connect 24 0 6 0;
#X connect 24 0 17 0;
#X connect 24 0 18 0;
#X connect 24 0 19 0;
#X connect 24 0 20 0;
#X connect 24 0 21 0;
#X connect 24 0 22 0;
#X connect 25 0 32 0;
#X connect 25 0 27 0;
#X connect 25 0 28 0;
#X connect 25 0 29 0;
#X connect 25 0 30 0;
#X connect 25 0 31 0;
#X connect 25 0 5 0;
#X connect 25 0 6 0;
#X connect 27 0 3 3;
#X connect 28 0 9 4;
#X connect 29 0 9 3;
#X connect 30 0 13 4;
#X connect 31 0 13 3;
#X connect 32 0 3 4;
#X connect 33 0 39 0;
#X connect 33 0 34 0;
#X connect 33 0 35 0;
#X connect 33 0 36 0;
#X connect 33 0 37 0;
#X connect 33 0 38 0;
#X connect 33 0 5 0;
#X connect 33 0 6 0;
#X connect 34 0 3 3;
#X connect 35 0 9 4;
#X connect 36 0 9 3;
#X connect 37 0 13 4;
#X connect 38 0 13 3;
#X connect 39 0 3 4;
