#N canvas 792 93 1494 1029 12;
#X obj 249 252 readsf~;
#X msg 249 204 open step3.wav;
#X obj 351 231 bng 19 250 50 0 empty empty empty 0 -10 0 12 #fcfcfc #000000 #000000;
#X obj 249 350 readsf~;
#X obj 351 329 bng 19 250 50 0 empty empty empty 0 -10 0 12 #fcfcfc #000000 #000000;
#X obj 244 451 readsf~;
#X obj 346 430 bng 19 250 50 0 empty empty empty 0 -10 0 12 #fcfcfc #000000 #000000;
#X obj 245 542 readsf~;
#X obj 347 521 bng 19 250 50 0 empty empty empty 0 -10 0 12 #fcfcfc #000000 #000000;
#X obj 242 636 readsf~;
#X obj 344 615 bng 19 250 50 0 empty empty empty 0 -10 0 12 #fcfcfc #000000 #000000;
#X obj 242 722 readsf~;
#X obj 344 701 bng 19 250 50 0 empty empty empty 0 -10 0 12 #fcfcfc #000000 #000000;
#X obj 242 820 readsf~;
#X obj 344 799 bng 19 250 50 0 empty empty empty 0 -10 0 12 #fcfcfc #000000 #000000;
#X obj 243 911 readsf~;
#X obj 345 890 bng 19 250 50 0 empty empty empty 0 -10 0 12 #fcfcfc #000000 #000000;
#X msg 249 302 open elevator2.wav;
#X msg 244 403 open door1.wav;
#X msg 245 493 open clicksBeeps5.wav;
#X msg 242 588 open jingle2.wav;
#X msg 242 674 open perc1.wav;
#X msg 243 772 open elevator5.wav;
#X msg 243 863 open elevator4.wav;
#X obj 23 483 loadbang;
#X obj 747 142 random 8;
#X obj 642 246 sel 1 2 3 4 5 6 7 8;
#X floatatom 685 172 5 0 0 0 - - - 0;
#X obj 736 56 inlet;
#X obj 736 80 bng 19 250 50 0 empty empty empty 0 -10 0 12 #fcfcfc #000000 #000000;
#X connect 1 0 0 0;
#X connect 2 0 0 0;
#X connect 4 0 3 0;
#X connect 6 0 5 0;
#X connect 8 0 7 0;
#X connect 10 0 9 0;
#X connect 12 0 11 0;
#X connect 14 0 13 0;
#X connect 16 0 15 0;
#X connect 17 0 3 0;
#X connect 18 0 5 0;
#X connect 19 0 7 0;
#X connect 20 0 9 0;
#X connect 21 0 11 0;
#X connect 22 0 13 0;
#X connect 23 0 15 0;
#X connect 24 0 1 0;
#X connect 24 0 17 0;
#X connect 24 0 18 0;
#X connect 24 0 19 0;
#X connect 24 0 20 0;
#X connect 24 0 21 0;
#X connect 24 0 22 0;
#X connect 24 0 23 0;
#X connect 25 0 27 0;
#X connect 26 0 2 0;
#X connect 26 1 4 0;
#X connect 26 2 6 0;
#X connect 26 3 8 0;
#X connect 26 4 10 0;
#X connect 26 5 12 0;
#X connect 26 6 14 0;
#X connect 26 7 16 0;
#X connect 27 0 26 0;
#X connect 28 0 29 0;
#X connect 29 0 25 0;
