#N canvas 0 25 1920 1027 12;
#X msg 52 184 listen 9000;
#X obj 52 209 netreceive -u -b;
#X obj 52 237 oscparse;
#X obj 52 23 loadbang;
#X msg 73 98 \; pd dsp 1;
#X text 129 25 Onload Turn on Audio and start OSC listening;
#X obj 78 68 send load;
#X msg 277 70 listen 10000;
#X obj 277 103 netreceive -u -b;
#X obj 277 131 oscparse;
#X obj 274 162 unpack string float float float float;
#X text 407 120 NEGATIVE;
#X obj 55 321 unpack string float float float float;
#X floatatom 87 393 5 0 0 0 - - - 0;
#X floatatom 143 403 5 0 0 0 - - - 0;
#X floatatom 227 404 5 0 0 0 - - - 0;
#X floatatom 298 406 5 0 0 0 - - - 0;
#X floatatom 350 219 5 0 0 0 - - - 0;
#X floatatom 398 220 5 0 0 0 - - - 0;
#X floatatom 444 218 5 0 0 0 - - - 0;
#X floatatom 493 219 5 0 0 0 - - - 0;
#X obj 832 673 vu 15 120 empty empty -1 -8 0 10 #404040 #000000 1 0;
#N canvas 94 261 626 477 vu 0;
#X obj 59 129 env~ 1024;
#X obj 161 111 abs~;
#X obj 161 213 snapshot~;
#X obj 161 256 rmstodb;
#X obj 161 21 inlet~;
#X obj 161 288 - 100;
#X obj 59 287 - 100;
#X obj 59 361 outlet;
#X obj 161 361 outlet;
#X obj 239 89 expr 1000 / $f1;
#X floatatom 239 117 5 0 0 0 - - - 0;
#X obj 161 146 slop~ 0 0 0 0 1e+09;
#X obj 239 18 inlet;
#X floatatom 239 57 5 0 0 0 - - - 0;
#X text 282 118 hz;
#X text 284 57 peak decay time in ms;
#X obj 59 171 t f b;
#X connect 0 0 16 0;
#X connect 1 0 11 0;
#X connect 2 0 3 0;
#X connect 3 0 5 0;
#X connect 4 0 0 0;
#X connect 4 0 1 0;
#X connect 5 0 8 0;
#X connect 6 0 7 0;
#X connect 9 0 10 0;
#X connect 10 0 11 3;
#X connect 11 0 2 0;
#X connect 12 0 13 0;
#X connect 13 0 9 0;
#X connect 16 0 6 0;
#X connect 16 1 2 0;
#X restore 825 625 pd vu;
#X msg 868 846 0;
#X msg 871 828 0;
#X msg 925 591 500;
#X text 929 850 RMS;
#X text 923 831 Peak, f 7;
#X text 967 591 peak decay;
#X obj 647 809 dac~;
#X obj 286 624 hsl 162 19 0 0.7 0 0 empty empty empty -2 -10 0 12 #fcfcfc #000000 #000000 0 1;
#X obj 503 613 hsl 162 19 0 1.4 0 0 empty empty empty -2 -10 0 12 #fcfcfc #000000 #000000 0 1;
#X obj 328 726 *~;
#X obj 519 713 *~;
#X floatatom 361 680 5 0 0 0 - - - 0;
#X floatatom 557 667 5 0 0 0 - - - 0;
#X obj 277 535 loadbang;
#X obj 533 500 loadbang;
#N canvas 0 25 1920 1027 OneshotSampleplayer 0;
#X msg 368 85 open step3.wav;
#X msg 370 233 open elevator2.wav;
#X msg 338 333 open door1.wav;
#X msg 366 455 open clicksBeeps5.wav;
#X msg 363 636 open perc1.wav;
#X msg 364 734 open elevator5.wav;
#X msg 364 825 open elevator4.wav;
#X obj 144 445 loadbang;
#X floatatom 790 174 5 0 0 0 - - - 0;
#X obj 857 44 inlet;
#X obj 857 70 bng 19 250 50 0 empty empty empty 0 -10 0 12 #fcfcfc #000000 #000000;
#N canvas -158 -1055 1920 965 ValhallaFreqEcho 0;
#X obj 453 309 vstplugin~;
#X msg 690 246 open -e ValhallaFreqEcho.vst;
#X obj 76 69 inlet~;
#X obj 139 69 inlet~;
#X obj 897 148 loadbang;
#X text 99 36 Audio In;
#X obj 66 704 outlet~;
#X obj 129 704 outlet~;
#X text 89 737 Audio out;
#X msg 26 232 param_list;
#N canvas 101 355 608 488 message-out 0;
#X obj 20 17 inlet;
#X obj 20 83 s \$0-program-data;
#X obj 20 50 route program_data bank_data, f 39;
#X obj 155 83 s \$0-bank-data;
#X obj 342 132 print;
#X obj 342 105 spigot 1;
#X obj 411 105 tgl 19 0 empty empty empty 17 7 0 10 #fcfcfc #000000 #000000 0 1;
#X text 437 104 print messages;
#X obj 310 77 s \$0-out;
#X obj 310 50 t a a;
#X msg 28 188 param_automated <index> <value>;
#X msg 28 224 latency <numsamples>;
#X msg 30 287 midi <bytes...>;
#X msg 29 324 sysex <bytes...>;
#X text 263 182 a parameter has been changed in the GUI (or by changing a linked parameter)., f 40;
#X text 182 224 the plugin's internal processing latency has changed;
#X text 159 287 a MIDI message sent by the plugin;
#X text 159 324 a SysEx message sent by the plugin;
#X text 183 242 NOTE: the value includes the additional latency caused by multithreading (see the "-t" flag for "open"), f 55;
#X msg 29 397 crash;
#X text 381 76 goes to vstpresetbrowser;
#X text 21 111 see [pd preset];
#X text 93 398 the plugin subprocess has crashed.;
#X text 94 416 This is only sent for bridged or sandboxed plugins \, because normal plugins would simply crash Pd., f 52;
#X msg 29 361 update;
#X text 97 362 multiple parameters have changed internally;
#X obj 25 153 cnv 15 70 20 empty empty empty 20 12 0 14 #dcdcdc #404040 0;
#X text 31 154 events:;
#X connect 0 0 2 0;
#X connect 2 0 1 0;
#X connect 2 1 3 0;
#X connect 2 2 9 0;
#X connect 5 0 4 0;
#X connect 6 0 5 1;
#X connect 9 0 8 0;
#X connect 9 1 5 0;
#X restore 713 406 pd message-out;
#X obj 513 86 inlet;
#X connect 0 0 6 0;
#X connect 0 1 7 0;
#X connect 0 2 10 0;
#X connect 1 0 0 0;
#X connect 2 0 0 0;
#X connect 3 0 0 1;
#X connect 4 0 1 0;
#X connect 9 0 0 0;
#X connect 11 0 0 0;
#X restore 1316 1011 pd ValhallaFreqEcho;
#X obj 1353 1083 outlet~;
#X obj 368 133 readsf~ 2;
#X obj 370 281 readsf~ 2;
#X obj 366 504 readsf~ 2;
#X obj 338 381 readsf~ 2;
#X obj 363 598 readsf~ 2;
#X obj 364 670 readsf~ 2;
#X obj 363 782 readsf~ 2;
#X obj 364 873 readsf~ 2;
#X obj 523 228 tgl 19 0 empty empty empty 0 -10 0 12 #fcfcfc #000000 #000000 0 1;
#X obj 522 271 tgl 19 0 empty empty empty 0 -10 0 12 #fcfcfc #000000 #000000 0 1;
#X obj 519 354 tgl 19 0 empty empty empty 0 -10 0 12 #fcfcfc #000000 #000000 0 1;
#X obj 368 479 tgl 19 0 empty empty empty 0 -10 0 12 #fcfcfc #000000 #000000 0 1;
#X obj 473 576 tgl 19 0 empty empty empty 0 -10 0 12 #fcfcfc #000000 #000000 0 1;
#X obj 478 647 tgl 19 0 empty empty empty 0 -10 0 12 #fcfcfc #000000 #000000 0 1;
#X obj 462 759 tgl 19 0 empty empty empty 0 -10 0 12 #fcfcfc #000000 #000000 0 1;
#X obj 470 852 tgl 19 0 empty empty empty 0 -10 0 12 #fcfcfc #000000 #000000 0 1;
#X msg 363 550 open jingles2.wav;
#X obj 935 45 inlet;
#X msg 1029 240 0;
#X obj 986 89 bng 19 250 50 0 empty empty empty 0 -10 0 12 #fcfcfc #000000 #000000;
#X obj 583 124 del 10;
#X obj 596 166 del 10;
#X obj 636 246 del 10;
#X obj 657 290 del 10;
#X obj 666 356 del 10;
#X obj 710 387 del 10;
#X obj 777 396 del 10;
#X obj 366 53 bng 19 250 50 0 empty empty empty 0 -10 0 12 #fcfcfc #000000 #000000;
#X obj 372 189 bng 19 250 50 0 empty empty empty 0 -10 0 12 #fcfcfc #000000 #000000;
#X obj 335 296 bng 19 250 50 0 empty empty empty 0 -10 0 12 #fcfcfc #000000 #000000;
#X obj 363 423 bng 19 250 50 0 empty empty empty 0 -10 0 12 #fcfcfc #000000 #000000;
#X obj 340 513 bng 19 250 50 0 empty empty empty 0 -10 0 12 #fcfcfc #000000 #000000;
#X obj 323 590 bng 19 250 50 0 empty empty empty 0 -10 0 12 #fcfcfc #000000 #000000;
#X obj 340 701 bng 19 250 50 0 empty empty empty 0 -10 0 12 #fcfcfc #000000 #000000;
#X obj 313 790 bng 19 250 50 0 empty empty empty 0 -10 0 12 #fcfcfc #000000 #000000;
#X obj 1182 248 hsl 128 15 0 1 0 0 empty empty empty -2 -8 0 10 #fcfcfc #000000 #000000 0 1;
#X obj 1180 147 line;
#X msg 1180 124 \$1 1000;
#N canvas 90 117 1512 860 mapFunction 0;
#X obj 331 163 inlet;
#X obj 388 162 inlet;
#X obj 445 163 inlet;
#X obj 506 163 inlet;
#X obj 205 161 inlet;
#X obj 241 326 outlet;
#X obj 238 262 expr ((($f1 - $f2) / ($f3 - $f2)) * ($f4 - $f5)) + $f5;
#X connect 0 0 6 1;
#X connect 1 0 6 2;
#X connect 2 0 6 3;
#X connect 3 0 6 4;
#X connect 4 0 6 0;
#X connect 6 0 5 0;
#X restore 1181 199 pd mapFunction;
#X msg 1199 175 0;
#X msg 1236 168 1;
#X msg 1279 162 1;
#X msg 1323 161 0.4;
#X msg 1178 337 param_set 2 \$1;
#X floatatom 1171 299 5 0 0 0 - - - 0;
#X obj 1361 81 loadbang;
#X obj 363 1001 readsf~ 2;
#X obj 378 976 tgl 19 0 empty empty empty 0 -10 0 12 #fcfcfc #000000 #000000 0 1;
#X obj 364 921 bng 19 250 50 0 empty empty empty 0 -10 0 12 #fcfcfc #000000 #000000;
#X obj 362 1118 readsf~ 2;
#X obj 377 1093 tgl 19 0 empty empty empty 0 -10 0 12 #fcfcfc #000000 #000000 0 1;
#X obj 363 1038 bng 19 250 50 0 empty empty empty 0 -10 0 12 #fcfcfc #000000 #000000;
#X obj 364 1232 readsf~ 2;
#X obj 379 1207 tgl 19 0 empty empty empty 0 -10 0 12 #fcfcfc #000000 #000000 0 1;
#X obj 365 1152 bng 19 250 50 0 empty empty empty 0 -10 0 12 #fcfcfc #000000 #000000;
#X obj 365 1340 readsf~ 2;
#X obj 380 1315 tgl 19 0 empty empty empty 0 -10 0 12 #fcfcfc #000000 #000000 0 1;
#X obj 366 1260 bng 19 250 50 0 empty empty empty 0 -10 0 12 #fcfcfc #000000 #000000;
#X obj 364 1453 readsf~ 2;
#X obj 379 1428 tgl 19 0 empty empty empty 0 -10 0 12 #fcfcfc #000000 #000000 0 1;
#X obj 365 1373 bng 19 250 50 0 empty empty empty 0 -10 0 12 #fcfcfc #000000 #000000;
#X obj 366 1561 readsf~ 2;
#X obj 381 1536 tgl 19 0 empty empty empty 0 -10 0 12 #fcfcfc #000000 #000000 0 1;
#X obj 367 1481 bng 19 250 50 0 empty empty empty 0 -10 0 12 #fcfcfc #000000 #000000;
#X obj 1583 781 readsf~ 2;
#X obj 1598 756 tgl 19 0 empty empty empty 0 -10 0 12 #fcfcfc #000000 #000000 0 1;
#X obj 1584 701 bng 19 250 50 0 empty empty empty 0 -10 0 12 #fcfcfc #000000 #000000;
#X obj 367 1683 readsf~ 2;
#X obj 382 1652 tgl 19 0 empty empty empty 0 -10 0 12 #fcfcfc #000000 #000000 0 1;
#X obj 368 1597 bng 19 250 50 0 empty empty empty 0 -10 0 12 #fcfcfc #000000 #000000;
#X obj 365 1792 readsf~ 2;
#X obj 380 1767 tgl 19 0 empty empty empty 0 -10 0 12 #fcfcfc #000000 #000000 0 1;
#X obj 366 1712 bng 19 250 50 0 empty empty empty 0 -10 0 12 #fcfcfc #000000 #000000;
#X obj 367 1901 readsf~ 2;
#X obj 382 1876 tgl 19 0 empty empty empty 0 -10 0 12 #fcfcfc #000000 #000000 0 1;
#X obj 368 1821 bng 19 250 50 0 empty empty empty 0 -10 0 12 #fcfcfc #000000 #000000;
#X obj 930 475 readsf~ 2;
#X obj 945 450 tgl 19 0 empty empty empty 0 -10 0 12 #fcfcfc #000000 #000000 0 1;
#X obj 931 395 bng 19 250 50 0 empty empty empty 0 -10 0 12 #fcfcfc #000000 #000000;
#X obj 929 590 readsf~ 2;
#X obj 944 565 tgl 19 0 empty empty empty 0 -10 0 12 #fcfcfc #000000 #000000 0 1;
#X obj 930 510 bng 19 250 50 0 empty empty empty 0 -10 0 12 #fcfcfc #000000 #000000;
#X obj 926 704 readsf~ 2;
#X obj 941 679 tgl 19 0 empty empty empty 0 -10 0 12 #fcfcfc #000000 #000000 0 1;
#X obj 927 624 bng 19 250 50 0 empty empty empty 0 -10 0 12 #fcfcfc #000000 #000000;
#X obj 926 819 readsf~ 2;
#X obj 941 794 tgl 19 0 empty empty empty 0 -10 0 12 #fcfcfc #000000 #000000 0 1;
#X obj 927 739 bng 19 250 50 0 empty empty empty 0 -10 0 12 #fcfcfc #000000 #000000;
#X obj 925 938 readsf~ 2;
#X obj 940 913 tgl 19 0 empty empty empty 0 -10 0 12 #fcfcfc #000000 #000000 0 1;
#X obj 926 858 bng 19 250 50 0 empty empty empty 0 -10 0 12 #fcfcfc #000000 #000000;
#X obj 925 1060 readsf~ 2;
#X obj 940 1035 tgl 19 0 empty empty empty 0 -10 0 12 #fcfcfc #000000 #000000 0 1;
#X obj 926 980 bng 19 250 50 0 empty empty empty 0 -10 0 12 #fcfcfc #000000 #000000;
#X obj 1227 480 readsf~ 2;
#X obj 1242 459 tgl 19 0 empty empty empty 0 -10 0 12 #fcfcfc #000000 #000000 0 1;
#X obj 1228 404 bng 19 250 50 0 empty empty empty 0 -10 0 12 #fcfcfc #000000 #000000;
#X obj 1230 587 readsf~ 2;
#X obj 1245 562 tgl 19 0 empty empty empty 0 -10 0 12 #fcfcfc #000000 #000000 0 1;
#X obj 1231 507 bng 19 250 50 0 empty empty empty 0 -10 0 12 #fcfcfc #000000 #000000;
#X obj 1230 716 readsf~ 2;
#X obj 1245 691 tgl 19 0 empty empty empty 0 -10 0 12 #fcfcfc #000000 #000000 0 1;
#X obj 1231 636 bng 19 250 50 0 empty empty empty 0 -10 0 12 #fcfcfc #000000 #000000;
#X obj 1616 435 readsf~ 2;
#X obj 1631 410 tgl 19 0 empty empty empty 0 -10 0 12 #fcfcfc #000000 #000000 0 1;
#X obj 1617 355 bng 19 250 50 0 empty empty empty 0 -10 0 12 #fcfcfc #000000 #000000;
#X obj 1618 546 readsf~ 2;
#X obj 1633 521 tgl 19 0 empty empty empty 0 -10 0 12 #fcfcfc #000000 #000000 0 1;
#X obj 1619 466 bng 19 250 50 0 empty empty empty 0 -10 0 12 #fcfcfc #000000 #000000;
#X obj 1619 658 readsf~ 2;
#X obj 1634 633 tgl 19 0 empty empty empty 0 -10 0 12 #fcfcfc #000000 #000000 0 1;
#X obj 1620 578 bng 19 250 50 0 empty empty empty 0 -10 0 12 #fcfcfc #000000 #000000;
#X msg 363 952 open rave1.wav;
#X msg 362 1069 open rave2.wav;
#X msg 364 1183 open rave3.wav;
#X msg 365 1291 open rave4.wav;
#X msg 364 1404 open rave5.wav;
#X msg 366 1512 open rave6.wav;
#X msg 367 1628 open rave7.wav;
#X msg 365 1743 open rave8.wav;
#X msg 367 1852 open rave9.wav;
#X msg 930 426 open rave10.wav;
#X msg 929 541 open rave11.wav;
#X msg 926 655 open rave12.wav;
#X msg 926 770 open rave13.wav;
#X msg 925 889 open rave15.wav;
#X msg 925 1011 open rave16.wav;
#X msg 1227 435 open rave17.wav;
#X msg 1230 538 open rave18.wav;
#X msg 1230 667 open rave19.wav;
#X msg 1616 386 open rave20.wav;
#X msg 1618 497 open rave21.wav;
#X msg 1619 609 open rave22.wav;
#X msg 1583 732 open rave23.wav;
#X obj 1429 483 readsf~ 2;
#X obj 1444 458 tgl 19 0 empty empty empty 0 -10 0 12 #fcfcfc #000000 #000000 0 1;
#X obj 1430 403 bng 19 250 50 0 empty empty empty 0 -10 0 12 #fcfcfc #000000 #000000;
#X obj 1432 586 readsf~ 2;
#X obj 1447 561 tgl 19 0 empty empty empty 0 -10 0 12 #fcfcfc #000000 #000000 0 1;
#X obj 1433 506 bng 19 250 50 0 empty empty empty 0 -10 0 12 #fcfcfc #000000 #000000;
#X obj 1432 715 readsf~ 2;
#X obj 1447 690 tgl 19 0 empty empty empty 0 -10 0 12 #fcfcfc #000000 #000000 0 1;
#X obj 1433 635 bng 19 250 50 0 empty empty empty 0 -10 0 12 #fcfcfc #000000 #000000;
#X msg 1429 434 open rave24.wav;
#X msg 1432 537 open rave25.wav;
#X msg 1432 666 open rave26.wav;
#X obj 569 5 sel 1 2 3 4 5 6 7 8 9 10 11 12 13 14 15 16 17 18 19 20 21 22 23 24 25 26 27 28 29 30 31 32 33 34, f 134;
#X obj 574 81 del 10;
#X obj 489 949 del 10;
#X obj 475 1065 del 10;
#X obj 448 1142 del 10;
#X obj 479 1287 del 10;
#X obj 471 1406 del 10;
#X obj 448 1456 del 10;
#X obj 487 1626 del 10;
#X obj 464 1706 del 10;
#X obj 445 1818 del 10;
#X obj 982 396 del 10;
#X obj 984 515 del 10;
#X obj 989 625 del 10;
#X obj 1005 731 del 10;
#X obj 986 855 del 10;
#X obj 969 980 del 10;
#X obj 1300 385 del 10;
#X obj 1293 509 del 10;
#X obj 1268 645 del 10;
#X obj 1454 404 del 10;
#X obj 1472 514 del 10;
#X obj 1469 627 del 10;
#X obj 1682 359 del 10;
#X obj 1664 467 del 10;
#X obj 1654 575 del 10;
#X obj 1614 700 del 10;
#X obj 863 104 random 33;
#X connect 0 0 13 0;
#X connect 1 0 14 0;
#X connect 2 0 16 0;
#X connect 3 0 15 0;
#X connect 4 0 18 0;
#X connect 5 0 19 0;
#X connect 6 0 20 0;
#X connect 7 0 0 0;
#X connect 7 0 1 0;
#X connect 7 0 2 0;
#X connect 7 0 3 0;
#X connect 7 0 29 0;
#X connect 7 0 4 0;
#X connect 7 0 5 0;
#X connect 7 0 6 0;
#X connect 8 0 159 0;
#X connect 9 0 10 0;
#X connect 10 0 186 0;
#X connect 11 0 12 0;
#X connect 11 1 12 0;
#X connect 13 0 11 0;
#X connect 13 1 11 1;
#X connect 14 0 11 0;
#X connect 14 1 11 1;
#X connect 15 0 11 0;
#X connect 15 1 11 1;
#X connect 16 0 11 0;
#X connect 16 1 11 1;
#X connect 17 0 11 0;
#X connect 17 1 11 1;
#X connect 18 0 11 0;
#X connect 18 1 11 1;
#X connect 19 0 11 0;
#X connect 19 1 11 1;
#X connect 20 0 11 0;
#X connect 20 1 11 1;
#X connect 21 0 13 0;
#X connect 22 0 14 0;
#X connect 23 0 16 0;
#X connect 24 0 15 0;
#X connect 25 0 17 0;
#X connect 26 0 18 0;
#X connect 27 0 19 0;
#X connect 28 0 20 0;
#X connect 29 0 17 0;
#X connect 30 0 32 0;
#X connect 30 0 50 0;
#X connect 31 0 21 0;
#X connect 31 0 22 0;
#X connect 31 0 23 0;
#X connect 31 0 24 0;
#X connect 31 0 25 0;
#X connect 31 0 26 0;
#X connect 31 0 27 0;
#X connect 31 0 28 0;
#X connect 32 0 31 0;
#X connect 33 0 22 0;
#X connect 34 0 23 0;
#X connect 35 0 24 0;
#X connect 36 0 25 0;
#X connect 37 0 26 0;
#X connect 38 0 27 0;
#X connect 39 0 28 0;
#X connect 40 0 0 0;
#X connect 41 0 1 0;
#X connect 42 0 2 0;
#X connect 43 0 3 0;
#X connect 44 0 29 0;
#X connect 45 0 4 0;
#X connect 46 0 5 0;
#X connect 47 0 6 0;
#X connect 48 0 57 0;
#X connect 49 0 51 0;
#X connect 50 0 49 0;
#X connect 51 0 48 0;
#X connect 52 0 51 1;
#X connect 53 0 51 2;
#X connect 54 0 51 3;
#X connect 55 0 51 4;
#X connect 56 0 11 2;
#X connect 57 0 56 0;
#X connect 58 0 52 0;
#X connect 58 0 53 0;
#X connect 58 0 54 0;
#X connect 58 0 55 0;
#X connect 59 0 11 0;
#X connect 59 1 11 1;
#X connect 60 0 59 0;
#X connect 61 0 125 0;
#X connect 62 0 11 0;
#X connect 62 1 11 1;
#X connect 63 0 62 0;
#X connect 64 0 126 0;
#X connect 65 0 11 0;
#X connect 65 1 11 1;
#X connect 66 0 65 0;
#X connect 67 0 127 0;
#X connect 68 0 11 0;
#X connect 68 1 11 1;
#X connect 69 0 68 0;
#X connect 70 0 128 0;
#X connect 71 0 11 0;
#X connect 71 1 11 1;
#X connect 72 0 71 0;
#X connect 73 0 129 0;
#X connect 74 0 11 0;
#X connect 74 1 11 1;
#X connect 75 0 74 0;
#X connect 76 0 130 0;
#X connect 77 0 11 0;
#X connect 77 1 11 1;
#X connect 78 0 77 0;
#X connect 79 0 146 0;
#X connect 80 0 11 0;
#X connect 80 1 11 1;
#X connect 81 0 80 0;
#X connect 82 0 131 0;
#X connect 83 0 11 0;
#X connect 83 1 11 1;
#X connect 84 0 83 0;
#X connect 85 0 132 0;
#X connect 86 0 11 0;
#X connect 86 1 11 1;
#X connect 87 0 86 0;
#X connect 88 0 133 0;
#X connect 89 0 11 0;
#X connect 89 1 11 1;
#X connect 90 0 89 0;
#X connect 91 0 134 0;
#X connect 92 0 11 0;
#X connect 92 1 11 1;
#X connect 93 0 92 0;
#X connect 94 0 135 0;
#X connect 95 0 11 0;
#X connect 95 1 11 1;
#X connect 96 0 95 0;
#X connect 97 0 136 0;
#X connect 98 0 11 0;
#X connect 98 1 11 1;
#X connect 99 0 98 0;
#X connect 100 0 137 0;
#X connect 101 0 11 0;
#X connect 101 1 11 1;
#X connect 102 0 101 0;
#X connect 103 0 138 0;
#X connect 104 0 11 0;
#X connect 104 1 11 1;
#X connect 105 0 104 0;
#X connect 106 0 139 0;
#X connect 107 0 11 0;
#X connect 107 1 11 1;
#X connect 108 0 107 0;
#X connect 109 0 140 0;
#X connect 110 0 11 0;
#X connect 110 1 11 1;
#X connect 111 0 110 0;
#X connect 112 0 141 0;
#X connect 113 0 11 0;
#X connect 113 1 11 1;
#X connect 114 0 113 0;
#X connect 115 0 142 0;
#X connect 116 0 11 0;
#X connect 116 1 11 1;
#X connect 117 0 116 0;
#X connect 118 0 143 0;
#X connect 119 0 11 0;
#X connect 119 1 11 1;
#X connect 120 0 119 0;
#X connect 121 0 144 0;
#X connect 122 0 11 0;
#X connect 122 1 11 1;
#X connect 123 0 122 0;
#X connect 124 0 145 0;
#X connect 125 0 59 0;
#X connect 126 0 62 0;
#X connect 127 0 65 0;
#X connect 128 0 68 0;
#X connect 129 0 71 0;
#X connect 130 0 74 0;
#X connect 131 0 80 0;
#X connect 132 0 83 0;
#X connect 133 0 86 0;
#X connect 134 0 89 0;
#X connect 135 0 92 0;
#X connect 136 0 95 0;
#X connect 137 0 98 0;
#X connect 138 0 101 0;
#X connect 139 0 104 0;
#X connect 140 0 107 0;
#X connect 141 0 110 0;
#X connect 142 0 113 0;
#X connect 143 0 116 0;
#X connect 144 0 119 0;
#X connect 145 0 122 0;
#X connect 146 0 77 0;
#X connect 147 0 11 0;
#X connect 147 1 11 1;
#X connect 148 0 147 0;
#X connect 149 0 156 0;
#X connect 150 0 11 0;
#X connect 150 1 11 1;
#X connect 151 0 150 0;
#X connect 152 0 157 0;
#X connect 153 0 11 0;
#X connect 153 1 11 1;
#X connect 154 0 153 0;
#X connect 155 0 158 0;
#X connect 156 0 147 0;
#X connect 157 0 150 0;
#X connect 158 0 153 0;
#X connect 159 0 40 0;
#X connect 159 0 160 0;
#X connect 159 1 33 0;
#X connect 159 1 41 0;
#X connect 159 2 34 0;
#X connect 159 2 42 0;
#X connect 159 3 35 0;
#X connect 159 3 43 0;
#X connect 159 4 36 0;
#X connect 159 4 44 0;
#X connect 159 5 37 0;
#X connect 159 5 45 0;
#X connect 159 6 38 0;
#X connect 159 6 46 0;
#X connect 159 7 39 0;
#X connect 159 7 47 0;
#X connect 159 8 61 0;
#X connect 159 8 161 0;
#X connect 159 9 64 0;
#X connect 159 9 162 0;
#X connect 159 10 67 0;
#X connect 159 10 163 0;
#X connect 159 11 70 0;
#X connect 159 11 164 0;
#X connect 159 12 73 0;
#X connect 159 12 165 0;
#X connect 159 13 76 0;
#X connect 159 13 166 0;
#X connect 159 14 82 0;
#X connect 159 14 167 0;
#X connect 159 15 85 0;
#X connect 159 15 168 0;
#X connect 159 16 88 0;
#X connect 159 16 169 0;
#X connect 159 17 91 0;
#X connect 159 17 170 0;
#X connect 159 18 94 0;
#X connect 159 18 171 0;
#X connect 159 19 97 0;
#X connect 159 19 172 0;
#X connect 159 20 100 0;
#X connect 159 20 173 0;
#X connect 159 21 103 0;
#X connect 159 21 174 0;
#X connect 159 22 106 0;
#X connect 159 22 175 0;
#X connect 159 23 109 0;
#X connect 159 23 176 0;
#X connect 159 24 112 0;
#X connect 159 24 177 0;
#X connect 159 25 115 0;
#X connect 159 25 178 0;
#X connect 159 26 149 0;
#X connect 159 26 179 0;
#X connect 159 27 152 0;
#X connect 159 27 180 0;
#X connect 159 28 155 0;
#X connect 159 28 181 0;
#X connect 159 29 118 0;
#X connect 159 29 182 0;
#X connect 159 30 121 0;
#X connect 159 30 183 0;
#X connect 159 31 124 0;
#X connect 159 31 184 0;
#X connect 159 32 79 0;
#X connect 159 32 185 0;
#X connect 160 0 21 0;
#X connect 161 0 60 0;
#X connect 162 0 63 0;
#X connect 163 0 66 0;
#X connect 164 0 69 0;
#X connect 165 0 72 0;
#X connect 166 0 75 0;
#X connect 167 0 81 0;
#X connect 168 0 84 0;
#X connect 169 0 87 0;
#X connect 170 0 90 0;
#X connect 171 0 93 0;
#X connect 172 0 96 0;
#X connect 173 0 99 0;
#X connect 174 0 102 0;
#X connect 175 0 105 0;
#X connect 176 0 108 0;
#X connect 177 0 111 0;
#X connect 178 0 114 0;
#X connect 179 0 148 0;
#X connect 180 0 151 0;
#X connect 181 0 154 0;
#X connect 182 0 117 0;
#X connect 183 0 120 0;
#X connect 184 0 123 0;
#X connect 185 0 78 0;
#X connect 186 0 8 0;
#X restore 1122 119 pd OneshotSampleplayer;
#X obj 1133 82 del 10;
#X obj 1150 243 hsl 162 19 0 0.7 0 0 empty empty empty -2 -10 0 12 #fcfcfc #000000 #000000 0 1;
#X obj 1192 345 *~;
#X floatatom 1225 299 5 0 0 0 - - - 0;
#N canvas 89 38 1406 856 MCompressor 0;
#X obj 453 309 vstplugin~;
#X obj 76 69 inlet~;
#X obj 139 69 inlet~;
#X obj 897 148 loadbang;
#X text 99 36 Audio In;
#X obj 66 704 outlet~;
#X obj 129 704 outlet~;
#X text 89 737 Audio out;
#X msg 26 232 param_list;
#N canvas 101 355 608 488 message-out 0;
#X obj 20 17 inlet;
#X obj 20 83 s \$0-program-data;
#X obj 20 50 route program_data bank_data, f 39;
#X obj 155 83 s \$0-bank-data;
#X obj 342 132 print;
#X obj 342 105 spigot 1;
#X obj 411 105 tgl 19 0 empty empty empty 17 7 0 10 #fcfcfc #000000 #000000 0 1;
#X text 437 104 print messages;
#X obj 310 77 s \$0-out;
#X obj 310 50 t a a;
#X msg 28 188 param_automated <index> <value>;
#X msg 28 224 latency <numsamples>;
#X msg 30 287 midi <bytes...>;
#X msg 29 324 sysex <bytes...>;
#X text 263 182 a parameter has been changed in the GUI (or by changing a linked parameter)., f 40;
#X text 182 224 the plugin's internal processing latency has changed;
#X text 159 287 a MIDI message sent by the plugin;
#X text 159 324 a SysEx message sent by the plugin;
#X text 183 242 NOTE: the value includes the additional latency caused by multithreading (see the "-t" flag for "open"), f 55;
#X msg 29 397 crash;
#X text 381 76 goes to vstpresetbrowser;
#X text 21 111 see [pd preset];
#X text 93 398 the plugin subprocess has crashed.;
#X text 94 416 This is only sent for bridged or sandboxed plugins \, because normal plugins would simply crash Pd., f 52;
#X msg 29 361 update;
#X text 97 362 multiple parameters have changed internally;
#X obj 25 153 cnv 15 70 20 empty empty empty 20 12 0 14 #dcdcdc #404040 0;
#X text 31 154 events:;
#X connect 0 0 2 0;
#X connect 2 0 1 0;
#X connect 2 1 3 0;
#X connect 2 2 9 0;
#X connect 5 0 4 0;
#X connect 6 0 5 1;
#X connect 9 0 8 0;
#X connect 9 1 5 0;
#X restore 713 406 pd message-out;
#X msg 690 246 open -e MCompressor.vst3;
#X connect 0 0 5 0;
#X connect 0 1 6 0;
#X connect 0 2 9 0;
#X connect 1 0 0 0;
#X connect 2 0 0 1;
#X connect 3 0 10 0;
#X connect 8 0 0 0;
#X connect 10 0 0 0;
#X restore 574 760 pd MCompressor;
#X obj 1146 157 loadbang;
#X msg 1153 196 0.217;
#X msg 540 539 1.286;
#X obj 540 827 writesf~ 2;
#X msg 1231 514 start;
#X msg 1229 551 stop;
#N canvas 0 25 1920 960 Museum 0;
#X obj 50 143 nn~ semantic-model-1.ts encode, f 52;
#X obj 51 380 nn~ semantic-model-1.ts decode, f 53;
#X obj 51 311 +~;
#X obj 80 311 +~;
#X obj 107 311 +~;
#X obj 136 311 +~;
#X obj 163 311 +~;
#X obj 192 311 +~;
#X obj 219 311 +~;
#X obj 246 312 +~;
#X obj 273 313 +~;
#X obj 302 313 +~;
#X obj 329 313 +~;
#X obj 358 313 +~;
#X obj 385 313 +~;
#X obj 414 313 +~;
#X obj 441 313 +~;
#X obj 468 314 +~;
#X obj 457 131 vsl 19 80 -5 5 0 0 empty empty empty 0 -9 0 12 #ff0400 #ffffff #000000 0 1;
#X obj 483 131 vsl 19 80 -5 5 0 0 empty empty empty 0 -9 0 12 #ff0400 #ffffff #000000 0 1;
#X obj 507 132 vsl 19 80 -5 5 0 0 empty empty empty 0 -9 0 12 #ff0400 #ffffff #000000 0 1;
#X obj 533 132 vsl 19 80 -5 5 0 0 empty empty empty 0 -9 0 12 #ff0400 #ffffff #000000 0 1;
#X obj 559 133 vsl 19 80 -5 5 0 0 empty empty empty 0 -9 0 12 #fcfcfc #000000 #000000 0 1;
#X obj 585 133 vsl 19 80 -5 5 0 0 empty empty empty 0 -9 0 12 #fcfcfc #000000 #000000 0 1;
#X obj 609 134 vsl 19 80 -5 5 0 0 empty empty empty 0 -9 0 12 #fcfcfc #000000 #000000 0 1;
#X obj 635 134 vsl 19 80 -5 5 0 0 empty empty empty 0 -9 0 12 #fcfcfc #000000 #000000 0 1;
#X obj 657 134 vsl 19 80 -5 5 0 0 empty empty empty 0 -9 0 12 #fcfcfc #000000 #000000 0 1;
#X obj 683 134 vsl 19 80 -5 5 0 0 empty empty empty 0 -9 0 12 #fcfcfc #000000 #000000 0 1;
#X obj 707 135 vsl 19 80 -5 5 0 0 empty empty empty 0 -9 0 12 #fcfcfc #000000 #000000 0 1;
#X obj 733 135 vsl 19 80 -5 5 0 0 empty empty empty 0 -9 0 12 #fcfcfc #000000 #000000 0 1;
#X obj 759 136 vsl 19 80 -5 5 0 0 empty empty empty 0 -9 0 12 #fcfcfc #000000 #000000 0 1;
#X obj 785 136 vsl 19 80 -5 5 0 0 empty empty empty 0 -9 0 12 #fcfcfc #000000 #000000 0 1;
#X obj 809 137 vsl 19 80 -5 5 0 0 empty empty empty 0 -9 0 12 #fcfcfc #000000 #000000 0 1;
#X obj 835 137 vsl 19 80 -5 5 0 0 empty empty empty 0 -9 0 12 #fcfcfc #000000 #000000 0 1;
#X floatatom 789 253 5 0 0 0 - - - 0;
#X floatatom 831 254 5 0 0 0 - - - 0;
#X floatatom 872 254 5 0 0 0 - - - 0;
#X floatatom 914 255 5 0 0 0 - - - 0;
#X msg 324 45 0;
#N canvas -8 0 1918 2096 scaleFunction 0;
#X obj 105 122 inlet;
#X obj 252 62 inlet;
#X obj 296 62 inlet;
#X obj 343 62 inlet;
#X obj 388 61 inlet;
#X obj 105 145 expr ((($f1-$f2)/($f3-$f2))*(-($f4-$f5))) + $f4;
#X obj 105 168 outlet;
#X connect 0 0 5 0;
#X connect 1 0 5 1;
#X connect 2 0 5 2;
#X connect 3 0 5 3;
#X connect 4 0 5 4;
#X connect 5 0 6 0;
#X restore 641 850 pd scaleFunction;
#X msg 312 783 0;
#X obj 622 31 r latentDimension1;
#X obj 755 31 r latentDimension2;
#X obj 888 31 r latentDimension3;
#X obj 1021 31 r latentDimension4;
#X msg 347 783 1;
#N canvas -8 0 1918 2096 scaleFunction 0;
#X obj 105 122 inlet;
#X obj 252 62 inlet;
#X obj 296 62 inlet;
#X obj 343 62 inlet;
#X obj 388 61 inlet;
#X obj 105 145 expr ((($f1-$f2)/($f3-$f2))*(-($f4-$f5))) + $f4;
#X obj 105 168 outlet;
#X connect 0 0 5 0;
#X connect 1 0 5 1;
#X connect 2 0 5 2;
#X connect 3 0 5 3;
#X connect 4 0 5 4;
#X connect 5 0 6 0;
#X restore 792 850 pd scaleFunction;
#X msg 516 784 0;
#X msg 551 784 1;
#N canvas -8 0 1918 2096 scaleFunction 0;
#X obj 105 122 inlet;
#X obj 252 62 inlet;
#X obj 296 62 inlet;
#X obj 343 62 inlet;
#X obj 388 61 inlet;
#X obj 105 145 expr ((($f1-$f2)/($f3-$f2))*(-($f4-$f5))) + $f4;
#X obj 105 168 outlet;
#X connect 0 0 5 0;
#X connect 1 0 5 1;
#X connect 2 0 5 2;
#X connect 3 0 5 3;
#X connect 4 0 5 4;
#X connect 5 0 6 0;
#X restore 946 850 pd scaleFunction;
#X msg 670 783 0;
#X msg 705 783 1;
#N canvas -8 0 1918 2096 scaleFunction 0;
#X obj 105 122 inlet;
#X obj 252 62 inlet;
#X obj 296 62 inlet;
#X obj 343 62 inlet;
#X obj 388 61 inlet;
#X obj 105 145 expr ((($f1-$f2)/($f3-$f2))*(-($f4-$f5))) + $f4;
#X obj 105 168 outlet;
#X connect 0 0 5 0;
#X connect 1 0 5 1;
#X connect 2 0 5 2;
#X connect 3 0 5 3;
#X connect 4 0 5 4;
#X connect 5 0 6 0;
#X restore 1097 850 pd scaleFunction;
#X msg 802 777 0;
#X msg 837 777 1;
#X obj 641 874 s latentDimension1;
#X obj 792 874 s latentDimension2;
#X obj 946 874 s latentDimension3;
#X obj 1097 873 s latentDimension4;
#X obj 324 19 loadbang;
#X obj 1226 633 hsl 162 19 0 1 0 0 empty empty empty -2 -10 0 12 #fcfcfc #000000 #000000 0 1;
#X msg 301 645 3.481;
#X msg 405 632 0;
#X msg 465 632 4;
#X msg 651 605 -3.86;
#X msg 841 611 -3.98;
#X msg 301 670 1.582;
#X msg 406 654 -1.5;
#X msg 456 655 2.7;
#X msg 604 630 -2.84;
#X msg 848 636 -3.73;
#X msg 246 692 -0.56;
#X msg 405 677 0;
#X msg 455 677 3;
#X msg 663 654 -3.6;
#X msg 847 658 -3.98;
#X msg 247 715 -4;
#X msg 306 719 0;
#X msg 458 709 3.227;
#X msg 654 679 -3.86;
#X msg 845 685 1.835;
#X msg 306 742 2.974;
#X msg 404 731 -1;
#X msg 602 706 -2.97;
#X msg 827 710 -5;
#X obj 1003 247 bng 19 250 50 0 empty empty empty 0 -10 0 12 #fcfcfc #000000 #000000;
#X obj 1005 417 bng 19 250 50 0 empty empty empty 0 -10 0 12 #fcfcfc #000000 #000000;
#X obj 1026 417 bng 19 250 50 0 empty empty empty 0 -10 0 12 #fcfcfc #000000 #000000;
#X obj 1048 417 bng 19 250 50 0 empty empty empty 0 -10 0 12 #fcfcfc #000000 #000000;
#X obj 1069 417 bng 19 250 50 0 empty empty empty 0 -10 0 12 #fcfcfc #000000 #000000;
#X obj 1003 369 random 5;
#X obj 1003 393 sel 1 2 3 4;
#X obj 1090 417 bng 19 250 50 0 empty empty empty 0 -10 0 12 #fcfcfc #000000 #000000;
#X obj 1003 272 f;
#X obj 1045 272 + 1;
#X msg 969 225 0;
#X obj 969 171 loadbang;
#X floatatom 1003 320 5 0 0 0 - - - 0;
#X obj 1003 296 % 10;
#X obj 969 200 del 100;
#X obj 1003 344 sel 0;
#X obj 1273 183 inlet;
#X obj 1273 231 line;
#X msg 1273 208 \$1 3000;
#X obj 1414 178 inlet;
#X obj 1478 178 inlet;
#X obj 1532 179 inlet;
#X obj 78 631 outlet~;
#N canvas 0 38 1512 916 ValhallaFreqEcho 0;
#X obj 453 309 vstplugin~;
#X msg 690 246 open -e ValhallaFreqEcho.vst;
#X obj 76 69 inlet~;
#X obj 139 69 inlet~;
#X obj 897 148 loadbang;
#X text 99 36 Audio In;
#X obj 66 704 outlet~;
#X obj 129 704 outlet~;
#X text 89 737 Audio out;
#X msg 26 232 param_list;
#N canvas 101 355 608 488 message-out 0;
#X obj 20 17 inlet;
#X obj 20 83 s \$0-program-data;
#X obj 20 50 route program_data bank_data, f 39;
#X obj 155 83 s \$0-bank-data;
#X obj 342 132 print;
#X obj 342 105 spigot 1;
#X obj 411 105 tgl 19 0 empty empty empty 17 7 0 10 #fcfcfc #000000 #000000 0 1;
#X text 437 104 print messages;
#X obj 310 77 s \$0-out;
#X obj 310 50 t a a;
#X msg 28 188 param_automated <index> <value>;
#X msg 28 224 latency <numsamples>;
#X msg 30 287 midi <bytes...>;
#X msg 29 324 sysex <bytes...>;
#X text 263 182 a parameter has been changed in the GUI (or by changing a linked parameter)., f 40;
#X text 182 224 the plugin's internal processing latency has changed;
#X text 159 287 a MIDI message sent by the plugin;
#X text 159 324 a SysEx message sent by the plugin;
#X text 183 242 NOTE: the value includes the additional latency caused by multithreading (see the "-t" flag for "open"), f 55;
#X msg 29 397 crash;
#X text 381 76 goes to vstpresetbrowser;
#X text 21 111 see [pd preset];
#X text 93 398 the plugin subprocess has crashed.;
#X text 94 416 This is only sent for bridged or sandboxed plugins \, because normal plugins would simply crash Pd., f 52;
#X msg 29 361 update;
#X text 97 362 multiple parameters have changed internally;
#X obj 25 153 cnv 15 70 20 empty empty empty 20 12 0 14 #dcdcdc #404040 0;
#X text 31 154 events:;
#X connect 0 0 2 0;
#X connect 2 0 1 0;
#X connect 2 1 3 0;
#X connect 2 2 9 0;
#X connect 5 0 4 0;
#X connect 6 0 5 1;
#X connect 9 0 8 0;
#X connect 9 1 5 0;
#X restore 713 406 pd message-out;
#X obj 494 86 inlet;
#X connect 0 0 6 0;
#X connect 0 1 7 0;
#X connect 0 2 10 0;
#X connect 1 0 0 0;
#X connect 2 0 0 0;
#X connect 3 0 0 1;
#X connect 4 0 1 0;
#X connect 9 0 0 0;
#X connect 11 0 0 0;
#X restore 93 464 pd ValhallaFreqEcho;
#N canvas 179 104 1225 795 MBitFun 0;
#X obj 453 309 vstplugin~;
#X obj 76 69 inlet~;
#X obj 139 69 inlet~;
#X obj 897 148 loadbang;
#X text 99 36 Audio In;
#X obj 66 704 outlet~;
#X obj 129 704 outlet~;
#X text 89 737 Audio out;
#X msg 26 232 param_list;
#N canvas 101 355 608 488 message-out 0;
#X obj 20 17 inlet;
#X obj 20 83 s \$0-program-data;
#X obj 20 50 route program_data bank_data, f 39;
#X obj 155 83 s \$0-bank-data;
#X obj 342 132 print;
#X obj 342 105 spigot 1;
#X obj 411 105 tgl 19 0 empty empty empty 17 7 0 10 #fcfcfc #000000 #000000 0 1;
#X text 437 104 print messages;
#X obj 310 77 s \$0-out;
#X obj 310 50 t a a;
#X msg 28 188 param_automated <index> <value>;
#X msg 28 224 latency <numsamples>;
#X msg 30 287 midi <bytes...>;
#X msg 29 324 sysex <bytes...>;
#X text 263 182 a parameter has been changed in the GUI (or by changing a linked parameter)., f 40;
#X text 182 224 the plugin's internal processing latency has changed;
#X text 159 287 a MIDI message sent by the plugin;
#X text 159 324 a SysEx message sent by the plugin;
#X text 183 242 NOTE: the value includes the additional latency caused by multithreading (see the "-t" flag for "open"), f 55;
#X msg 29 397 crash;
#X text 381 76 goes to vstpresetbrowser;
#X text 21 111 see [pd preset];
#X text 93 398 the plugin subprocess has crashed.;
#X text 94 416 This is only sent for bridged or sandboxed plugins \, because normal plugins would simply crash Pd., f 52;
#X msg 29 361 update;
#X text 97 362 multiple parameters have changed internally;
#X obj 25 153 cnv 15 70 20 empty empty empty 20 12 0 14 #dcdcdc #404040 0;
#X text 31 154 events:;
#X connect 0 0 2 0;
#X connect 2 0 1 0;
#X connect 2 1 3 0;
#X connect 2 2 9 0;
#X connect 5 0 4 0;
#X connect 6 0 5 1;
#X connect 9 0 8 0;
#X connect 9 1 5 0;
#X restore 713 406 pd message-out;
#X msg 690 246 open -e MBitFun.vst3;
#X obj 492 81 inlet;
#X connect 0 0 5 0;
#X connect 0 1 6 0;
#X connect 0 2 9 0;
#X connect 1 0 0 0;
#X connect 2 0 0 1;
#X connect 3 0 10 0;
#X connect 8 0 0 0;
#X connect 10 0 0 0;
#X connect 11 0 0 0;
#X restore 94 554 pd MBitFun;
#N canvas 0 38 1512 916 ValhallaSuperMassive 0;
#X obj 453 309 vstplugin~;
#X obj 76 69 inlet~;
#X obj 139 69 inlet~;
#X obj 897 148 loadbang;
#X text 99 36 Audio In;
#X obj 66 704 outlet~;
#X obj 129 704 outlet~;
#X text 89 737 Audio out;
#X msg 26 232 param_list;
#N canvas 101 355 608 488 message-out 0;
#X obj 20 17 inlet;
#X obj 20 83 s \$0-program-data;
#X obj 20 50 route program_data bank_data, f 39;
#X obj 155 83 s \$0-bank-data;
#X obj 342 132 print;
#X obj 342 105 spigot 1;
#X obj 411 105 tgl 19 0 empty empty empty 17 7 0 10 #fcfcfc #000000 #000000 0 1;
#X text 437 104 print messages;
#X obj 310 77 s \$0-out;
#X obj 310 50 t a a;
#X msg 28 188 param_automated <index> <value>;
#X msg 28 224 latency <numsamples>;
#X msg 30 287 midi <bytes...>;
#X msg 29 324 sysex <bytes...>;
#X text 263 182 a parameter has been changed in the GUI (or by changing a linked parameter)., f 40;
#X text 182 224 the plugin's internal processing latency has changed;
#X text 159 287 a MIDI message sent by the plugin;
#X text 159 324 a SysEx message sent by the plugin;
#X text 183 242 NOTE: the value includes the additional latency caused by multithreading (see the "-t" flag for "open"), f 55;
#X msg 29 397 crash;
#X text 381 76 goes to vstpresetbrowser;
#X text 21 111 see [pd preset];
#X text 93 398 the plugin subprocess has crashed.;
#X text 94 416 This is only sent for bridged or sandboxed plugins \, because normal plugins would simply crash Pd., f 52;
#X msg 29 361 update;
#X text 97 362 multiple parameters have changed internally;
#X obj 25 153 cnv 15 70 20 empty empty empty 20 12 0 14 #dcdcdc #404040 0;
#X text 31 154 events:;
#X connect 0 0 2 0;
#X connect 2 0 1 0;
#X connect 2 1 3 0;
#X connect 2 2 9 0;
#X connect 5 0 4 0;
#X connect 6 0 5 1;
#X connect 9 0 8 0;
#X connect 9 1 5 0;
#X restore 713 406 pd message-out;
#X msg 690 246 open -e ValhallaSuperMassive.vst;
#X obj 505 79 inlet;
#X connect 0 0 5 0;
#X connect 0 1 6 0;
#X connect 0 2 9 0;
#X connect 1 0 0 0;
#X connect 2 0 0 1;
#X connect 3 0 10 0;
#X connect 8 0 0 0;
#X connect 10 0 0 0;
#X connect 11 0 0 0;
#X restore 89 511 pd ValhallaSuperMassive;
#X obj 1485 428 hsl 128 15 0 1 0 0 empty empty empty -2 -8 0 10 #fcfcfc #000000 #000000 0 1;
#X obj 1483 327 line;
#X msg 1483 304 \$1 1000;
#X msg 1482 447 param_set 8 \$1;
#N canvas 90 117 1512 860 mapFunction 0;
#X obj 331 163 inlet;
#X obj 388 162 inlet;
#X obj 445 163 inlet;
#X obj 506 163 inlet;
#X obj 205 161 inlet;
#X obj 241 326 outlet;
#X obj 238 262 expr ((($f1 - $f2) / ($f3 - $f2)) * ($f4 - $f5)) + $f5;
#X connect 0 0 6 1;
#X connect 1 0 6 2;
#X connect 2 0 6 3;
#X connect 3 0 6 4;
#X connect 4 0 6 0;
#X connect 6 0 5 0;
#X restore 1484 379 pd mapFunction;
#X msg 1502 355 0;
#X msg 1539 348 1;
#X msg 1582 342 1;
#X text 1479 282 filter;
#X msg 1627 347 0.4;
#X obj 1528 633 hsl 128 15 0 1 0 0 empty empty empty -2 -8 0 10 #fcfcfc #000000 #000000 0 1;
#X obj 1526 532 line;
#X msg 1526 509 \$1 1000;
#N canvas 90 117 1512 860 mapFunction 0;
#X obj 331 163 inlet;
#X obj 388 162 inlet;
#X obj 445 163 inlet;
#X obj 506 163 inlet;
#X obj 205 161 inlet;
#X obj 241 326 outlet;
#X obj 238 262 expr ((($f1 - $f2) / ($f3 - $f2)) * ($f4 - $f5)) + $f5;
#X connect 0 0 6 1;
#X connect 1 0 6 2;
#X connect 2 0 6 3;
#X connect 3 0 6 4;
#X connect 4 0 6 0;
#X connect 6 0 5 0;
#X restore 1527 584 pd mapFunction;
#X msg 1545 560 0;
#X msg 1582 553 1;
#X msg 1625 547 1;
#X msg 1670 552 0.4;
#X msg 1525 652 param_set 2 \$1;
#X obj 864 86 line;
#X msg 864 63 \$1 3000;
#X obj 928 88 line;
#X msg 928 65 \$1 3000;
#X obj 997 88 line;
#X msg 997 65 \$1 3000;
#X obj 1061 90 line;
#X msg 1061 67 \$1 3000;
#X obj 1768 287 loadbang;
#X msg 247 739 2.975;
#X msg 247 644 3.482;
#X msg 247 669 1.583;
#X msg 300 693 -0.57;
#X msg 406 708 3.228;
#X msg 469 731 1.001;
#X msg 662 708 -2.98;
#X msg 603 680 -3.87;
#X msg 603 653 -3.61;
#X msg 652 630 -2.85;
#X msg 604 605 -3.87;
#X msg 791 612 -3.99;
#X msg 791 637 -3.74;
#X msg 790 660 -3.99;
#X msg 790 687 1.836;
#X msg 789 713 -5.01;
#X connect 0 0 2 0;
#X connect 0 1 3 0;
#X connect 0 2 4 0;
#X connect 0 3 5 0;
#X connect 0 4 6 0;
#X connect 0 5 7 0;
#X connect 0 6 8 0;
#X connect 0 7 9 0;
#X connect 0 8 10 0;
#X connect 0 9 11 0;
#X connect 0 10 12 0;
#X connect 0 11 13 0;
#X connect 0 12 14 0;
#X connect 0 13 15 0;
#X connect 0 14 16 0;
#X connect 0 15 17 0;
#X connect 1 0 108 0;
#X connect 1 1 108 0;
#X connect 2 0 1 0;
#X connect 3 0 1 1;
#X connect 4 0 1 2;
#X connect 5 0 1 3;
#X connect 6 0 1 4;
#X connect 7 0 1 5;
#X connect 8 0 1 6;
#X connect 9 0 1 7;
#X connect 10 0 1 8;
#X connect 11 0 1 9;
#X connect 12 0 1 10;
#X connect 13 0 1 11;
#X connect 14 0 1 12;
#X connect 15 0 1 13;
#X connect 16 0 1 14;
#X connect 17 0 1 15;
#X connect 18 0 34 0;
#X connect 18 0 2 1;
#X connect 19 0 35 0;
#X connect 19 0 3 1;
#X connect 20 0 36 0;
#X connect 20 0 4 1;
#X connect 21 0 37 0;
#X connect 21 0 5 1;
#X connect 22 0 6 1;
#X connect 23 0 7 1;
#X connect 24 0 8 1;
#X connect 25 0 9 1;
#X connect 26 0 10 1;
#X connect 27 0 11 1;
#X connect 28 0 12 1;
#X connect 29 0 13 1;
#X connect 30 0 14 1;
#X connect 31 0 15 1;
#X connect 32 0 16 1;
#X connect 33 0 17 1;
#X connect 38 0 18 0;
#X connect 38 0 19 0;
#X connect 38 0 20 0;
#X connect 38 0 22 0;
#X connect 38 0 23 0;
#X connect 38 0 24 0;
#X connect 38 0 25 0;
#X connect 38 0 26 0;
#X connect 38 0 27 0;
#X connect 38 0 28 0;
#X connect 38 0 29 0;
#X connect 38 0 30 0;
#X connect 38 0 31 0;
#X connect 38 0 32 0;
#X connect 38 0 33 0;
#X connect 38 0 21 0;
#X connect 39 0 55 0;
#X connect 40 0 39 1;
#X connect 41 0 131 0;
#X connect 42 0 133 0;
#X connect 43 0 135 0;
#X connect 44 0 137 0;
#X connect 45 0 39 2;
#X connect 46 0 56 0;
#X connect 47 0 46 1;
#X connect 48 0 46 2;
#X connect 49 0 57 0;
#X connect 50 0 49 1;
#X connect 51 0 49 2;
#X connect 52 0 58 0;
#X connect 53 0 52 1;
#X connect 54 0 52 2;
#X connect 59 0 38 0;
#X connect 60 0 39 0;
#X connect 60 0 46 0;
#X connect 60 0 49 0;
#X connect 60 0 52 0;
#X connect 61 0 39 4;
#X connect 62 0 46 3;
#X connect 63 0 46 4;
#X connect 64 0 49 4;
#X connect 65 0 52 4;
#X connect 66 0 39 4;
#X connect 67 0 46 3;
#X connect 68 0 46 4;
#X connect 69 0 49 3;
#X connect 70 0 52 4;
#X connect 71 0 39 3;
#X connect 72 0 46 3;
#X connect 73 0 46 4;
#X connect 74 0 49 4;
#X connect 75 0 52 4;
#X connect 76 0 39 3;
#X connect 77 0 39 4;
#X connect 78 0 46 4;
#X connect 79 0 49 4;
#X connect 80 0 52 4;
#X connect 81 0 39 4;
#X connect 82 0 46 3;
#X connect 83 0 49 3;
#X connect 84 0 52 4;
#X connect 85 0 93 0;
#X connect 86 0 140 0;
#X connect 86 0 61 0;
#X connect 86 0 62 0;
#X connect 86 0 63 0;
#X connect 86 0 149 0;
#X connect 86 0 64 0;
#X connect 86 0 150 0;
#X connect 86 0 65 0;
#X connect 86 0 40 0;
#X connect 86 0 45 0;
#X connect 86 0 47 0;
#X connect 86 0 48 0;
#X connect 86 0 50 0;
#X connect 86 0 51 0;
#X connect 86 0 53 0;
#X connect 86 0 54 0;
#X connect 87 0 141 0;
#X connect 87 0 66 0;
#X connect 87 0 67 0;
#X connect 87 0 68 0;
#X connect 87 0 69 0;
#X connect 87 0 148 0;
#X connect 87 0 151 0;
#X connect 87 0 70 0;
#X connect 87 0 40 0;
#X connect 87 0 45 0;
#X connect 87 0 47 0;
#X connect 87 0 48 0;
#X connect 87 0 50 0;
#X connect 87 0 51 0;
#X connect 87 0 53 0;
#X connect 87 0 54 0;
#X connect 88 0 71 0;
#X connect 88 0 142 0;
#X connect 88 0 72 0;
#X connect 88 0 73 0;
#X connect 88 0 147 0;
#X connect 88 0 74 0;
#X connect 88 0 152 0;
#X connect 88 0 75 0;
#X connect 88 0 40 0;
#X connect 88 0 45 0;
#X connect 88 0 47 0;
#X connect 88 0 48 0;
#X connect 88 0 50 0;
#X connect 88 0 51 0;
#X connect 88 0 53 0;
#X connect 88 0 54 0;
#X connect 89 0 76 0;
#X connect 89 0 77 0;
#X connect 89 0 143 0;
#X connect 89 0 78 0;
#X connect 89 0 146 0;
#X connect 89 0 79 0;
#X connect 89 0 153 0;
#X connect 89 0 80 0;
#X connect 89 0 40 0;
#X connect 89 0 45 0;
#X connect 89 0 47 0;
#X connect 89 0 48 0;
#X connect 89 0 50 0;
#X connect 89 0 51 0;
#X connect 89 0 53 0;
#X connect 89 0 54 0;
#X connect 90 0 91 0;
#X connect 91 0 86 0;
#X connect 91 1 87 0;
#X connect 91 2 88 0;
#X connect 91 3 89 0;
#X connect 91 4 92 0;
#X connect 92 0 139 0;
#X connect 92 0 81 0;
#X connect 92 0 83 0;
#X connect 92 0 145 0;
#X connect 92 0 82 0;
#X connect 92 0 144 0;
#X connect 92 0 154 0;
#X connect 92 0 84 0;
#X connect 92 0 40 0;
#X connect 92 0 45 0;
#X connect 92 0 47 0;
#X connect 92 0 48 0;
#X connect 92 0 50 0;
#X connect 92 0 51 0;
#X connect 92 0 53 0;
#X connect 92 0 54 0;
#X connect 93 0 94 0;
#X connect 93 0 98 0;
#X connect 94 0 93 1;
#X connect 95 0 93 0;
#X connect 96 0 99 0;
#X connect 97 0 100 0;
#X connect 98 0 97 0;
#X connect 99 0 95 0;
#X connect 100 0 90 0;
#X connect 101 0 103 0;
#X connect 101 0 85 0;
#X connect 102 0 60 0;
#X connect 103 0 102 0;
#X connect 104 0 113 0;
#X connect 105 0 123 0;
#X connect 108 0 110 0;
#X connect 108 1 110 0;
#X connect 109 0 107 0;
#X connect 109 1 107 0;
#X connect 110 0 109 0;
#X connect 110 1 109 0;
#X connect 111 0 114 0;
#X connect 112 0 115 0;
#X connect 113 0 112 0;
#X connect 114 0 109 2;
#X connect 115 0 111 0;
#X connect 116 0 115 1;
#X connect 117 0 115 2;
#X connect 118 0 115 3;
#X connect 120 0 115 4;
#X connect 121 0 129 0;
#X connect 122 0 124 0;
#X connect 123 0 122 0;
#X connect 124 0 121 0;
#X connect 125 0 124 1;
#X connect 126 0 124 2;
#X connect 127 0 124 3;
#X connect 128 0 124 4;
#X connect 129 0 108 2;
#X connect 130 0 18 0;
#X connect 131 0 130 0;
#X connect 132 0 19 0;
#X connect 133 0 132 0;
#X connect 134 0 20 0;
#X connect 135 0 134 0;
#X connect 136 0 21 0;
#X connect 137 0 136 0;
#X connect 138 0 120 0;
#X connect 138 0 118 0;
#X connect 138 0 117 0;
#X connect 138 0 116 0;
#X connect 138 0 128 0;
#X connect 138 0 127 0;
#X connect 138 0 126 0;
#X connect 138 0 125 0;
#X connect 139 0 39 3;
#X connect 140 0 39 3;
#X connect 141 0 39 3;
#X connect 142 0 39 4;
#X connect 143 0 46 3;
#X connect 144 0 46 4;
#X connect 145 0 49 4;
#X connect 146 0 49 3;
#X connect 147 0 49 3;
#X connect 148 0 49 4;
#X connect 149 0 49 3;
#X connect 150 0 52 3;
#X connect 151 0 52 3;
#X connect 152 0 52 3;
#X connect 153 0 52 3;
#X connect 154 0 52 3;
#X restore 752 379 pd Museum;
#N canvas 0 25 1920 1027 The_Ancestors 0;
#X obj 11 18 hsl 195 8 0 1 0 0 empty r-grain-1 empty -2 -8 0 10 #fcfcfc #000000 #000000 0 1;
#X obj 675 111 bng 14 250 50 0 empty empty Ph 3 8 0 8 #fcfcfc #000000 #000000;
#X obj 744 111 nbx 4 14 0 100 0 1 empty empty Ph 26 8 0 8 #fcfcfc #000000 #000000 0 256;
#N canvas 14 86 447 598 phasor-main 0;
#X obj 97 369 phasor~;
#X floatatom 248 84 5 0 0 0 - - - 0;
#X obj 201 13 r speed-in-hz;
#X obj 201 52 t b f;
#X obj 136 350 r retrig;
#X text 148 369 <<< Use same phasor for all grains;
#X obj 97 490 *~;
#X obj 253 420 nbx 4 14 0 100 0 1 empty empty empty 0 -8 0 10 #fcfcfc #000000 #000000 0 256;
#X obj 253 436 * 0.01;
#X obj 253 474 vline~;
#X obj 253 455 pack 0 500;
#X text 304 419 Main Phasor multiplyer;
#X obj 97 52 inlet;
#X obj 253 397 inlet;
#N canvas 0 23 450 300 sine/cos 0;
#X obj 127 53 inlet~;
#X obj 128 123 cos~;
#X obj 127 102 wrap~;
#X obj 128 149 *~ 0.5;
#X obj 128 171 +~ 0.5;
#X obj 128 193 outlet~;
#X obj 127 81 +~ 0;
#X connect 0 0 6 0;
#X connect 1 0 3 0;
#X connect 2 0 1 0;
#X connect 3 0 4 0;
#X connect 4 0 5 0;
#X connect 6 0 2 0;
#X restore 125 406 pd sine/cos;
#X obj 51 388 inlet;
#X floatatom 51 410 5 0 0 0 - - - 0;
#X obj 97 539 s~ phasor-main;
#X obj 377 465 * 0.01;
#X obj 377 503 vline~;
#X text 325 464 Position;
#X obj 97 519 +~;
#X obj 377 446 inlet;
#X obj 173 68 +;
#X obj 201 33 ftom;
#X obj 173 90 mtof;
#X floatatom 248 106 10 0 0 0 - - - 0;
#X obj 134 294 * -1;
#X floatatom 144 312 5 0 0 0 - - - 0;
#X obj 134 271 sel 0 1;
#X obj 97 287 f;
#X obj 134 252 t f f;
#X obj 193 236 inlet reverse;
#X obj 97 71 != -64;
#X obj 97 90 t f f;
#X obj 173 125 f;
#X obj 97 109 sel 0 1;
#X msg 97 128 0;
#X text 51 286 Reverse;
#X text 90 145 Stop = -64;
#X obj 377 484 pack 0 10;
#N canvas 515 366 396 291 spigot~ 0;
#X obj 52 40 inlet~;
#X obj 332 62 inlet;
#X obj 146 185 outlet~;
#X obj 52 102 *~;
#X obj 67 78 == 0;
#X obj 112 40 inlet~;
#X obj 112 102 *~;
#X obj 127 78 == 1;
#X connect 0 0 3 0;
#X connect 1 0 4 0;
#X connect 1 0 7 0;
#X connect 3 0 2 0;
#X connect 4 0 3 1;
#X connect 5 0 6 0;
#X connect 6 0 2 0;
#X connect 7 0 6 1;
#X restore 97 458 pd spigot~;
#N canvas 0 23 450 300 mux-spigot 0;
#X obj 126 82 inlet;
#X obj 126 143 spigot;
#X obj 159 119 == 0;
#X obj 206 82 inlet;
#X obj 206 143 spigot;
#X obj 239 119 == 1;
#X obj 276 103 inlet;
#X obj 179 189 outlet;
#X connect 0 0 1 0;
#X connect 1 0 7 0;
#X connect 2 0 1 1;
#X connect 3 0 4 0;
#X connect 4 0 7 0;
#X connect 5 0 4 1;
#X connect 6 0 5 0;
#X connect 6 0 2 0;
#X restore 97 331 pd mux-spigot;
#X floatatom 193 257 5 0 0 0 - - - 0;
#N canvas 0 23 450 300 mux-spigot 0;
#X obj 126 82 inlet;
#X obj 126 143 spigot;
#X obj 159 119 == 0;
#X obj 206 82 inlet;
#X obj 206 143 spigot;
#X obj 239 119 == 1;
#X obj 276 103 inlet;
#X obj 179 189 outlet;
#X connect 0 0 1 0;
#X connect 1 0 7 0;
#X connect 2 0 1 1;
#X connect 3 0 4 0;
#X connect 4 0 7 0;
#X connect 5 0 4 1;
#X connect 6 0 5 0;
#X connect 6 0 2 0;
#X restore 97 188 pd mux-spigot;
#X connect 0 0 14 0;
#X connect 0 0 41 0;
#X connect 2 0 24 0;
#X connect 3 0 23 0;
#X connect 3 1 23 1;
#X connect 4 0 0 1;
#X connect 6 0 21 0;
#X connect 7 0 8 0;
#X connect 8 0 10 0;
#X connect 9 0 6 1;
#X connect 10 0 9 0;
#X connect 12 0 23 0;
#X connect 12 0 33 0;
#X connect 13 0 8 0;
#X connect 14 0 41 1;
#X connect 15 0 16 0;
#X connect 15 0 41 2;
#X connect 18 0 40 0;
#X connect 19 0 21 1;
#X connect 21 0 17 0;
#X connect 22 0 18 0;
#X connect 23 0 25 0;
#X connect 23 0 1 0;
#X connect 24 0 3 0;
#X connect 25 0 26 0;
#X connect 25 0 35 0;
#X connect 27 0 28 0;
#X connect 27 0 42 1;
#X connect 29 0 30 0;
#X connect 29 1 27 0;
#X connect 30 0 42 0;
#X connect 31 0 29 0;
#X connect 31 1 42 2;
#X connect 32 0 31 0;
#X connect 32 0 43 0;
#X connect 33 0 34 0;
#X connect 34 0 36 0;
#X connect 34 1 44 2;
#X connect 35 0 44 1;
#X connect 36 0 37 0;
#X connect 36 1 35 0;
#X connect 37 0 44 0;
#X connect 40 0 19 0;
#X connect 41 0 6 0;
#X connect 42 0 0 0;
#X connect 44 0 27 0;
#X connect 44 0 30 0;
#X restore 362 122 pd phasor-main;
#X obj 1408 645 nbx 4 14 -64 128 0 1 empty empty Speed 0 -8 0 10 #fcfcfc #000000 #000000 -1.5014 256;
#X obj 507 108 nbx 4 14 0 100 0 1 empty empty Multiply 0 -8 0 10 #fcfcfc #000000 #000000 100 256;
#N canvas 0 23 450 300 phase-rst 0;
#X obj 133 79 t b;
#X obj 133 130 s retrig;
#X msg 133 111 0;
#X msg 167 94 set \$1;
#X obj 167 75 * 0.01;
#X obj 216 94 loadbang;
#X obj 133 22 inlet;
#X obj 167 43 inlet;
#X connect 0 0 2 0;
#X connect 2 0 1 0;
#X connect 3 0 2 0;
#X connect 4 0 3 0;
#X connect 5 0 2 0;
#X connect 6 0 0 0;
#X connect 7 0 4 0;
#X restore 675 127 pd phase-rst;
#N canvas 0 22 450 300 select-wave 0;
#X obj 100 100 hradio 14 1 1 2 empty empty Saw 2 8 0 10 #fcfcfc #fcc4c4 #000000 0;
#X obj 100 119 outlet;
#N canvas 0 22 450 300 select 0;
#X obj 126 67 inlet;
#X obj 126 89 sel 0 1;
#X obj 126 156 outlet;
#X msg 126 111 label Saw;
#X msg 145 133 label Sin;
#X connect 0 0 1 0;
#X connect 1 0 3 0;
#X connect 1 1 4 0;
#X connect 3 0 2 0;
#X connect 4 0 2 0;
#X restore 100 73 pd select;
#X connect 0 0 1 0;
#X connect 0 0 2 0;
#X connect 2 0 0 0;
#X coords 0 -1 1 1 28 14 2 100 100;
#X restore 431 108 pd select-wave;
#X obj 560 108 nbx 4 14 0 100 0 1 empty empty Phase 0 -8 0 10 #fcfcfc #000000 #000000 9 256;
#X obj 608 108 tgl 14 1 empty empty empty 17 7 0 10 #fcfcfc #000000 #000000 0 1;
#X obj 11 26 hsl 195 8 0 1 0 0 empty r-grain-2 empty -2 -8 0 10 #fcfcfc #000000 #000000 0 1;
#X obj 785 161 nbx 3 14 0 100 0 1 empty empty empty 0 -8 0 10 #fcfcfc #000000 #000000 100 256;
#X obj 786 186 s random-position;
#X obj 11 34 hsl 195 8 0 1 0 0 empty r-grain-3 empty -2 -8 0 10 #fcfcfc #000000 #000000 0 1;
#X obj 11 42 hsl 195 8 0 1 0 0 empty r-grain-4 empty -2 -8 0 10 #fcfcfc #000000 #000000 0 1;
#X obj 11 50 hsl 195 8 0 1 0 0 empty r-grain-5 empty -2 -8 0 10 #fcfcfc #000000 #000000 0 1;
#X obj 11 58 hsl 195 8 0 1 0 0 empty r-grain-6 empty -2 -8 0 10 #fcfcfc #000000 #000000 0 1;
#X obj 11 66 hsl 195 8 0 1 0 0 empty r-grain-7 empty -2 -8 0 10 #fcfcfc #000000 #000000 0 1;
#X obj 11 74 hsl 195 8 0 1 0 0 empty r-grain-8 empty -2 -8 0 10 #fcfcfc #000000 #000000 0 1;
#X obj 11 82 hsl 195 8 0 1 0 0 empty r-grain-9 empty -2 -8 0 10 #fcfcfc #000000 #000000 0 1;
#X obj 11 90 hsl 195 8 0 1 0 0 empty r-grain-10 empty -2 -8 0 10 #fcfcfc #000000 #000000 0 1;
#X obj 1659 265 s grain-on;
#X obj 11 98 hsl 195 8 0 1 0 0 empty r-grain-11 empty -2 -8 0 10 #fcfcfc #000000 #000000 0 1;
#X obj 11 106 hsl 195 8 0 1 0 0 empty r-grain-12 empty -2 -8 0 10 #fcfcfc #000000 #000000 0 1;
#X obj 11 114 hsl 195 8 0 1 0 0 empty r-grain-13 empty -2 -8 0 10 #fcfcfc #000000 #000000 0 1;
#X obj 11 122 hsl 195 8 0 1 0 0 empty r-grain-14 empty -2 -8 0 10 #fcfcfc #000000 #000000 0 1;
#X obj 11 130 hsl 195 8 0 1 0 0 empty r-grain-15 empty -2 -8 0 10 #fcfcfc #000000 #000000 0 1;
#X obj 11 138 hsl 195 8 0 1 0 0 empty r-grain-16 empty -2 -8 0 10 #fcfcfc #000000 #000000 0 1;
#X obj 1659 249 nbx 3 14 1 64 0 1 empty empty empty 0 -8 0 10 #fcfcfc #000000 #000000 5.35863 256;
#X obj 608 123 s reverse;
#X obj 11 146 hsl 195 8 0 1 0 0 empty r-grain-17 empty -2 -8 0 10 #fcfcfc #000000 #000000 0 1;
#X obj 11 154 hsl 195 8 0 1 0 0 empty r-grain-18 empty -2 -8 0 10 #fcfcfc #000000 #000000 0 1;
#X obj 11 162 hsl 195 8 0 1 0 0 empty r-grain-19 empty -2 -8 0 10 #fcfcfc #000000 #000000 0 1;
#X obj 11 170 hsl 195 8 0 1 0 0 empty r-grain-20 empty -2 -8 0 10 #fcfcfc #000000 #000000 0 1;
#X obj 11 178 hsl 195 8 0 1 0 0 empty r-grain-21 empty -2 -8 0 10 #fcfcfc #000000 #000000 0 1;
#X obj 11 186 hsl 195 8 0 1 0 0 empty r-grain-22 empty -2 -8 0 10 #fcfcfc #000000 #000000 0 1;
#X obj 11 194 hsl 195 8 0 1 0 0 empty r-grain-23 empty -2 -8 0 10 #fcfcfc #000000 #000000 0 1;
#X obj 11 202 hsl 195 8 0 1 0 0 empty r-grain-24 empty -2 -8 0 10 #fcfcfc #000000 #000000 0 1;
#X obj 11 210 hsl 195 8 0 1 0 0 empty r-grain-25 empty -2 -8 0 10 #fcfcfc #000000 #000000 0 1;
#X obj 11 218 hsl 195 8 0 1 0 0 empty r-grain-26 empty -2 -8 0 10 #fcfcfc #000000 #000000 0 1;
#X obj 11 226 hsl 195 8 0 1 0 0 empty r-grain-27 empty -2 -8 0 10 #fcfcfc #000000 #000000 0 1;
#X obj 11 234 hsl 195 8 0 1 0 0 empty r-grain-28 empty -2 -8 0 10 #fcfcfc #000000 #000000 0 1;
#X obj 11 242 hsl 195 8 0 1 0 0 empty r-grain-29 empty -2 -8 0 10 #fcfcfc #000000 #000000 0 1;
#X obj 11 250 hsl 195 8 0 1 0 0 empty r-grain-30 empty -2 -8 0 10 #fcfcfc #000000 #000000 0 1;
#X obj 11 258 hsl 195 8 0 1 0 0 empty r-grain-31 empty -2 -8 0 10 #fcfcfc #000000 #000000 0 1;
#X obj 11 266 hsl 195 8 0 1 0 0 empty r-grain-32 empty -2 -8 0 10 #fcfcfc #000000 #000000 0 1;
#X obj 455 150 hradio 14 1 1 2 empty empty empty 0 -8 0 10 #fcfcfc #000000 #000000 0;
#X obj 455 166 s saw/sine;
#X obj 1372 310 s grain-size;
#X obj 1373 287 nbx 3 14 1 2048 0 1 empty empty empty 0 -8 0 10 #fcfcfc #000000 #000000 2.35066 256;
#X obj 11 274 hsl 195 8 0 1 0 0 empty r-grain-33 empty -2 -8 0 10 #fcfcfc #000000 #000000 0 1;
#X obj 11 282 hsl 195 8 0 1 0 0 empty r-grain-34 empty -2 -8 0 10 #fcfcfc #000000 #000000 0 1;
#X obj 11 290 hsl 195 8 0 1 0 0 empty r-grain-35 empty -2 -8 0 10 #fcfcfc #000000 #000000 0 1;
#X obj 11 298 hsl 195 8 0 1 0 0 empty r-grain-36 empty -2 -8 0 10 #fcfcfc #000000 #000000 0 1;
#X obj 11 306 hsl 195 8 0 1 0 0 empty r-grain-37 empty -2 -8 0 10 #fcfcfc #000000 #000000 0 1;
#X obj 11 314 hsl 195 8 0 1 0 0 empty r-grain-38 empty -2 -8 0 10 #fcfcfc #000000 #000000 0 1;
#X obj 11 322 hsl 195 8 0 1 0 0 empty r-grain-39 empty -2 -8 0 10 #fcfcfc #000000 #000000 0 1;
#X obj 11 330 hsl 195 8 0 1 0 0 empty r-grain-40 empty -2 -8 0 10 #fcfcfc #000000 #000000 0 1;
#X obj 11 338 hsl 195 8 0 1 0 0 empty r-grain-41 empty -2 -8 0 10 #fcfcfc #000000 #000000 0 1;
#X obj 11 346 hsl 195 8 0 1 0 0 empty r-grain-42 empty -2 -8 0 10 #fcfcfc #000000 #000000 0 1;
#X obj 11 354 hsl 195 8 0 1 0 0 empty r-grain-43 empty -2 -8 0 10 #fcfcfc #000000 #000000 0 1;
#X obj 11 362 hsl 195 8 0 1 0 0 empty r-grain-44 empty -2 -8 0 10 #fcfcfc #000000 #000000 0 1;
#X obj 11 370 hsl 195 8 0 1 0 0 empty r-grain-45 empty -2 -8 0 10 #fcfcfc #000000 #000000 0 1;
#X obj 11 378 hsl 195 8 0 1 0 0 empty r-grain-46 empty -2 -8 0 10 #fcfcfc #000000 #000000 0 1;
#X obj 11 386 hsl 195 8 0 1 0 0 empty r-grain-47 empty -2 -8 0 10 #fcfcfc #000000 #000000 0 1;
#X obj 11 394 hsl 195 8 0 1 0 0 empty r-grain-48 empty -2 -8 0 10 #fcfcfc #000000 #000000 0 1;
#X obj 11 402 hsl 195 8 0 1 0 0 empty r-grain-49 empty -2 -8 0 10 #fcfcfc #000000 #000000 0 1;
#X obj 11 410 hsl 195 8 0 1 0 0 empty r-grain-50 empty -2 -8 0 10 #fcfcfc #000000 #000000 0 1;
#X obj 11 418 hsl 195 8 0 1 0 0 empty r-grain-51 empty -2 -8 0 10 #fcfcfc #000000 #000000 0 1;
#X obj 11 426 hsl 195 8 0 1 0 0 empty r-grain-52 empty -2 -8 0 10 #fcfcfc #000000 #000000 0 1;
#X obj 11 434 hsl 195 8 0 1 0 0 empty r-grain-53 empty -2 -8 0 10 #fcfcfc #000000 #000000 0 1;
#X obj 11 442 hsl 195 8 0 1 0 0 empty r-grain-54 empty -2 -8 0 10 #fcfcfc #000000 #000000 0 0;
#X obj 11 450 hsl 195 8 0 1 0 0 empty r-grain-55 empty -2 -8 0 10 #fcfcfc #000000 #000000 0 1;
#X obj 11 458 hsl 195 8 0 1 0 0 empty r-grain-56 empty -2 -8 0 10 #fcfcfc #000000 #000000 0 1;
#X obj 11 466 hsl 195 8 0 1 0 0 empty r-grain-57 empty -2 -8 0 10 #fcfcfc #000000 #000000 0 1;
#X obj 11 474 hsl 195 8 0 1 0 0 empty r-grain-58 empty -2 -8 0 10 #fcfcfc #000000 #000000 0 1;
#X obj 11 482 hsl 195 8 0 1 0 0 empty r-grain-59 empty -2 -8 0 10 #fcfcfc #000000 #000000 0 1;
#X obj 11 490 hsl 195 8 0 1 0 0 empty r-grain-60 empty -2 -8 0 10 #fcfcfc #000000 #000000 0 1;
#X obj 11 498 hsl 195 8 0 1 0 0 empty r-grain-61 empty -2 -8 0 10 #fcfcfc #000000 #000000 0 1;
#X obj 11 506 hsl 195 8 0 1 0 0 empty r-grain-62 empty -2 -8 0 10 #fcfcfc #000000 #000000 0 1;
#X obj 11 514 hsl 195 8 0 1 0 0 empty r-grain-63 empty -2 -8 0 10 #fcfcfc #000000 #000000 0 1;
#X obj 11 522 hsl 195 8 0 1 0 0 empty r-grain-64 empty -2 -8 0 10 #fcfcfc #000000 #000000 0 1;
#N canvas 0 22 450 278 (subpatch) 0;
#X array grain 1.61903e+07 float 0;
#X coords 0 1 1.61903e+07 -1 200 512 1 0 0;
#X restore 8 18 graph;
#X obj 443 228 s ran-pitch-am;
#X obj 443 194 nbx 3 14 0 400 0 1 empty empty empty 0 -8 0 10 #fcfcfc #000000 #000000 0 256;
#X obj 540 228 s env-am;
#X obj 595 194 nbx 5 14 1 100 1 1 empty empty empty 0 -8 0 10 #fcfcfc #000000 #000000 100 256;
#X obj 595 228 s env-time;
#X obj 540 194 nbx 4 14 0 1000 0 1 empty empty empty 0 -8 0 10 #fcfcfc #000000 #000000 1 256;
#X obj 540 210 * 0.01;
#X obj 595 210 * 0.01;
#X obj 669 194 nbx 5 14 0 100 0 1 empty empty empty 0 -8 0 10 #fcfcfc #000000 #000000 1 256;
#X obj 669 228 s p-env-prob;
#N canvas 352 78 508 652 window-functions 0;
#X obj 182 337 phasor~ 1;
#X obj 329 186 tgl 15 0 empty empty empty 17 7 0 10 #fcfcfc #000000 #000000 0 1;
#X obj 264 220 metro 1000;
#X obj 182 385 expr~ abs((abs($v1-0.5)*2)-1);
#X obj 201 425 expr~ min($v1*2 \, 1);
#X obj 220 525 expr~ pow($v1 \, 8);
#X obj 264 242 +;
#X obj 228 226 + 1;
#X obj 264 261 sel 1;
#X msg 264 280 0;
#X obj 220 505 expr~ abs($v1-0.5)*2;
#X obj 220 545 expr~ abs($v1-1);
#X msg 71 205 normalize 1;
#X obj 210 445 expr~ abs($v1-0.5)*2;
#X obj 210 485 expr~ abs($v1-1);
#X obj 210 465 expr~ pow($v1 \, 0.5);
#X obj 329 154 loadbang;
#X text 130 385 Triangle;
#X text 169 405 Cos;
#N canvas 0 23 450 300 cosinus 0;
#X obj 173 85 inlet~;
#X obj 173 147 cos~;
#X obj 173 166 *~ 0.5;
#X obj 173 185 +~ 0.5;
#X obj 173 128 wrap~;
#X obj 173 109 +~ 0.5;
#X obj 173 207 outlet~;
#X connect 0 0 5 0;
#X connect 1 0 2 0;
#X connect 2 0 3 0;
#X connect 3 0 6 0;
#X connect 4 0 1 0;
#X connect 5 0 4 0;
#X restore 191 405 pd cosinus;
#X text 131 425 Trapazoid 1;
#X text 140 445 Trapazoid 2;
#X text 150 505 Trapazoid 3;
#X obj 200 170 t b b f;
#X obj 182 591 tabwrite~ Window;
#X obj 71 224 s Window;
#X obj 200 100 hradio 14 1 1 5 empty empty Trapazoid-3 2 8 0 10 #fcfcfc #fcc4c4 #000000 4;
#N canvas 0 22 450 300 label 0;
#X obj 129 48 inlet;
#X obj 129 70 sel 0 1 2 3 4;
#X msg 129 92 label Triangle;
#X obj 129 189 outlet;
#X msg 144 112 label Cosinus;
#X msg 159 132 label Trapazoid-1;
#X msg 174 152 label Trapazoid-2;
#X msg 189 172 label Trapazoid-3;
#X connect 0 0 1 0;
#X connect 1 0 2 0;
#X connect 1 1 4 0;
#X connect 1 2 5 0;
#X connect 1 3 6 0;
#X connect 1 4 7 0;
#X connect 2 0 3 0;
#X connect 4 0 3 0;
#X connect 5 0 3 0;
#X connect 6 0 3 0;
#X connect 7 0 3 0;
#X restore 200 70 pd label;
#X obj 71 186 del 1001;
#N canvas 515 366 592 291 spigot~ 0;
#X obj 52 40 inlet~;
#X obj 432 62 inlet;
#X obj 432 118 outlet~;
#X obj 52 102 *~;
#X obj 67 78 == 0;
#X obj 112 40 inlet~;
#X obj 112 102 *~;
#X obj 172 40 inlet~;
#X obj 172 102 *~;
#X obj 232 40 inlet~;
#X obj 232 102 *~;
#X obj 127 78 == 1;
#X obj 187 78 == 2;
#X obj 247 78 == 3;
#X obj 292 40 inlet~;
#X obj 292 102 *~;
#X obj 352 40 inlet~;
#X obj 352 102 *~;
#X obj 307 78 == 4;
#X obj 367 78 == 5;
#X connect 0 0 3 0;
#X connect 1 0 4 0;
#X connect 1 0 11 0;
#X connect 1 0 13 0;
#X connect 1 0 12 0;
#X connect 1 0 18 0;
#X connect 1 0 19 0;
#X connect 3 0 2 0;
#X connect 4 0 3 1;
#X connect 5 0 6 0;
#X connect 6 0 2 0;
#X connect 7 0 8 0;
#X connect 8 0 2 0;
#X connect 9 0 10 0;
#X connect 10 0 2 0;
#X connect 11 0 6 1;
#X connect 12 0 8 1;
#X connect 13 0 10 1;
#X connect 14 0 15 0;
#X connect 15 0 2 0;
#X connect 16 0 17 0;
#X connect 17 0 2 0;
#X connect 18 0 15 1;
#X connect 19 0 17 1;
#X restore 182 566 pd spigot~;
#X obj 315 575 sel 1;
#X obj 315 595 bng 15 250 50 0 empty empty empty 17 7 0 10 #fcfcfc #000000 #000000;
#X obj 264 201 t f f f f;
#X obj 298 300 sel 1;
#X msg 298 321 0;
#X text 112 337 1hz = 1 sec;
#X connect 0 0 3 0;
#X connect 0 0 10 0;
#X connect 0 0 13 0;
#X connect 0 0 19 0;
#X connect 1 0 32 0;
#X connect 2 0 6 0;
#X connect 3 0 4 0;
#X connect 3 0 29 0;
#X connect 4 0 29 2;
#X connect 5 0 11 0;
#X connect 6 0 7 0;
#X connect 6 0 8 0;
#X connect 7 0 6 1;
#X connect 8 0 9 0;
#X connect 9 0 1 0;
#X connect 10 0 5 0;
#X connect 11 0 29 4;
#X connect 12 0 25 0;
#X connect 13 0 15 0;
#X connect 14 0 29 3;
#X connect 15 0 14 0;
#X connect 16 0 1 0;
#X connect 19 0 29 1;
#X connect 23 0 28 0;
#X connect 23 1 1 0;
#X connect 23 2 29 6;
#X connect 26 0 27 0;
#X connect 26 0 23 0;
#X connect 27 0 26 0;
#X connect 28 0 12 0;
#X connect 29 0 24 0;
#X connect 30 0 31 0;
#X connect 30 0 24 0;
#X connect 32 0 2 0;
#X connect 32 1 6 1;
#X connect 32 2 33 0;
#X connect 32 3 30 0;
#X connect 33 0 34 0;
#X connect 34 0 0 1;
#X coords 0 -1 1 1 70 14 2 200 100;
#X restore 215 169 pd window-functions;
#N canvas 0 50 450 250 (subpatch) 0;
#X array Window 48000 float 4;
#X coords 0 1 47999 0 70 50 1 0 0;
#X restore 215 117 graph;
#N canvas 0 23 450 300 test-prev 0;
#X obj 135 157 r~ preview-audio;
#X obj 60 242 outlet~;
#X obj 27 180 tgl 15 0 empty empty empty 17 7 0 10 #fcfcfc #000000 #000000 0 1;
#N canvas 146 334 310 265 crossfade~ 0;
#X obj 139 157 *~;
#X obj 209 157 *~;
#X obj 88 118 *~ -1;
#X obj 88 140 +~ 1;
#X obj 88 83 +~;
#X obj 183 193 outlet~;
#X obj 139 103 inlet~;
#X obj 209 103 inlet~;
#X obj 88 59 vline~;
#X obj 88 15 inlet;
#X obj 88 37 pack 0 100;
#X connect 0 0 5 0;
#X connect 1 0 5 0;
#X connect 2 0 3 0;
#X connect 3 0 0 1;
#X connect 4 0 2 0;
#X connect 4 0 1 1;
#X connect 6 0 0 0;
#X connect 7 0 1 0;
#X connect 8 0 4 0;
#X connect 9 0 10 0;
#X connect 10 0 8 0;
#X restore 60 195 pd crossfade~;
#X obj 97 95 inlet~;
#X obj 27 73 r preview-auto;
#X connect 0 0 3 2;
#X connect 2 0 3 0;
#X connect 3 0 1 0;
#X connect 4 0 3 1;
#X connect 5 0 2 0;
#X restore 450 355 pd test-prev;
#N canvas 0 23 450 300 out 0;
#X obj 95 136 *~;
#X obj 160 136 *~;
#X obj 203 100 hsl 100 15 0 1 0 1 empty empty Volume 2 8 0 10 #fcfcfc #000000 #000000 5800 1;
#X obj 200 120 sig~;
#X obj 95 57 inlet~;
#X obj 95 157 outlet~;
#X obj 160 157 outlet~;
#X connect 0 0 5 0;
#X connect 1 0 6 0;
#X connect 2 0 3 0;
#X connect 3 0 0 1;
#X connect 3 0 1 1;
#X connect 4 0 0 0;
#X connect 4 0 1 0;
#X coords 0 -1 1 1 105 15 2 200 100;
#X restore 450 375 pd out;
#X obj 216 33 nbx 5 14 1 30 0 1 empty empty Wav-File 0 -8 0 10 #fcfcfc #000000 #000000 2 256;
#N canvas -158 -1052 1920 1052 tablemath 0;
#X obj 65 67 soundfiler;
#X obj 65 124 /;
#X obj 139 83 s size-in-samples;
#X obj 65 86 t b f;
#X obj 65 105 samplerate~;
#X obj 139 140 s speed-in-hz;
#X obj 65 25 inlet;
#X obj 14 83 outlet;
#X obj 65 146 outlet;
#X floatatom 14 121 6 0 0 0 - - - 0;
#X obj 198 245 tabplay~ grain;
#X obj 188 186 inlet;
#X obj 198 293 s~ preview-audio;
#X msg 188 312 1;
#X msg 310 312 0;
#X obj 188 338 s preview-auto;
#X obj 198 267 *~ 2;
#X obj 310 176 inlet;
#X obj 139 121 s sample-rate;
#X obj 198 217 delay 500;
#X obj 310 261 delay 500;
#X msg 65 48 read -resize +Sounds+/Audio\$1.wav grain;
#X connect 0 0 2 0;
#X connect 0 0 3 0;
#X connect 0 0 7 0;
#X connect 1 0 5 0;
#X connect 1 0 8 0;
#X connect 3 0 4 0;
#X connect 3 1 1 1;
#X connect 4 0 1 0;
#X connect 4 0 9 0;
#X connect 4 0 18 0;
#X connect 6 0 21 0;
#X connect 10 0 16 0;
#X connect 10 1 20 0;
#X connect 11 0 13 0;
#X connect 11 0 19 0;
#X connect 13 0 15 0;
#X connect 14 0 15 0;
#X connect 16 0 12 0;
#X connect 17 0 20 0;
#X connect 19 0 10 0;
#X connect 20 0 14 0;
#X connect 21 0 0 0;
#X restore 215 50 pd tablemath;
#X floatatom 215 69 10 0 0 3 Samples - - 0;
#X floatatom 284 69 10 0 0 3 Hertz - - 0;
#X obj 294 36 bng 14 250 50 0 empty empty Pr 3 8 0 8 #fcfcfc #000000 #000000;
#X obj 314 36 bng 14 250 50 0 empty empty St 3 8 0 8 #fcfcfc #000000 #000000;
#X text 343 33 Pr - Preview the clean sound \, unchanged and mute granular player., f 65;
#X text 343 45 St - Stop the preview and go back to granular player.;
#N canvas -158 -1052 1920 1052 patchstate 0;
#X obj 118 168 cputime;
#X obj 118 28 loadbang;
#X obj 118 112 metro 1000;
#X msg 118 56 1;
#X floatatom 118 84 0 0 0 0 - - - 0;
#X obj 118 140 t b b;
#X obj 118 228 * 0.1;
#X obj 118 197 int;
#X text 163 84 <-- on/off;
#X obj 118 250 outlet;
#X obj 258 207 samplerate~;
#X obj 258 187 r pd-dsp-started;
#X floatatom 209 223 7 0 0 0 - - - 0;
#X obj 258 250 outlet;
#X connect 0 0 7 0;
#X connect 1 0 3 0;
#X connect 2 0 5 0;
#X connect 3 0 4 0;
#X connect 4 0 2 0;
#X connect 5 0 0 0;
#X connect 5 1 0 1;
#X connect 6 0 9 0;
#X connect 7 0 6 0;
#X connect 10 0 12 0;
#X connect 10 0 13 0;
#X connect 11 0 10 0;
#X restore 215 198 pd patchstate;
#X floatatom 215 216 5 0 0 3 Cpu-% - - 0;
#X floatatom 290 216 5 0 0 3 S-Rate - - 0;
#X obj 450 335 *~ 0.25;
#N canvas -158 -1052 1920 1052 info 0;
#X text 23 68 I run the patch at 48khz \, but you should be able to run it at any sample rate., f 73;
#X text 23 98 The sample that comes with the patch in the +Sounds+ folder is 48khz!!!!, f 73;
#X text 23 118 So if you want to run it at 44.1khz \, you need to convert the sample!!!!, f 73;
#X text 23 28 Granular21 patch by Jakob Skouborg 3.2.21, f 73;
#X restore 215 514 pd info;
#X obj 450 315 clone grain 64;
#X obj 528 997 outlet~;
#N canvas 0 25 1920 1027 ValhallaSuperMassive 0;
#X obj 453 309 vstplugin~;
#X obj 76 69 inlet~;
#X obj 139 69 inlet~;
#X obj 897 148 loadbang;
#X text 99 36 Audio In;
#X obj 66 704 outlet~;
#X obj 129 704 outlet~;
#X text 89 737 Audio out;
#X msg 26 232 param_list;
#N canvas 101 355 608 488 message-out 0;
#X obj 20 17 inlet;
#X obj 20 83 s \$0-program-data;
#X obj 20 50 route program_data bank_data, f 39;
#X obj 155 83 s \$0-bank-data;
#X obj 342 132 print;
#X obj 342 105 spigot 1;
#X obj 411 105 tgl 19 0 empty empty empty 17 7 0 10 #fcfcfc #000000 #000000 0 1;
#X text 437 104 print messages;
#X obj 310 77 s \$0-out;
#X obj 310 50 t a a;
#X msg 28 188 param_automated <index> <value>;
#X msg 28 224 latency <numsamples>;
#X msg 30 287 midi <bytes...>;
#X msg 29 324 sysex <bytes...>;
#X text 263 182 a parameter has been changed in the GUI (or by changing a linked parameter)., f 40;
#X text 182 224 the plugin's internal processing latency has changed;
#X text 159 287 a MIDI message sent by the plugin;
#X text 159 324 a SysEx message sent by the plugin;
#X text 183 242 NOTE: the value includes the additional latency caused by multithreading (see the "-t" flag for "open"), f 55;
#X msg 29 397 crash;
#X text 381 76 goes to vstpresetbrowser;
#X text 21 111 see [pd preset];
#X text 93 398 the plugin subprocess has crashed.;
#X text 94 416 This is only sent for bridged or sandboxed plugins \, because normal plugins would simply crash Pd., f 52;
#X msg 29 361 update;
#X text 97 362 multiple parameters have changed internally;
#X obj 25 153 cnv 15 70 20 empty empty empty 20 12 0 14 #dcdcdc #404040 0;
#X text 31 154 events:;
#X connect 0 0 2 0;
#X connect 2 0 1 0;
#X connect 2 1 3 0;
#X connect 2 2 9 0;
#X connect 5 0 4 0;
#X connect 6 0 5 1;
#X connect 9 0 8 0;
#X connect 9 1 5 0;
#X restore 713 406 pd message-out;
#X msg 690 246 open -e ValhallaSuperMassive.vst;
#X obj 505 79 inlet;
#X connect 0 0 5 0;
#X connect 0 1 6 0;
#X connect 0 2 9 0;
#X connect 1 0 0 0;
#X connect 2 0 0 1;
#X connect 3 0 10 0;
#X connect 8 0 0 0;
#X connect 10 0 0 0;
#X connect 11 0 0 0;
#X restore 465 784 pd ValhallaSuperMassive;
#N canvas 0 65 1512 917 ValhallaFreqEcho 0;
#X obj 453 309 vstplugin~;
#X msg 690 246 open -e ValhallaFreqEcho.vst;
#X obj 76 69 inlet~;
#X obj 139 69 inlet~;
#X obj 897 148 loadbang;
#X text 99 36 Audio In;
#X obj 66 704 outlet~;
#X obj 129 704 outlet~;
#X text 89 737 Audio out;
#X msg 26 232 param_list;
#N canvas 101 355 608 488 message-out 0;
#X obj 20 17 inlet;
#X obj 20 83 s \$0-program-data;
#X obj 20 50 route program_data bank_data, f 39;
#X obj 155 83 s \$0-bank-data;
#X obj 342 132 print;
#X obj 342 105 spigot 1;
#X obj 411 105 tgl 19 0 empty empty empty 17 7 0 10 #fcfcfc #000000 #000000 0 1;
#X text 437 104 print messages;
#X obj 310 77 s \$0-out;
#X obj 310 50 t a a;
#X msg 28 188 param_automated <index> <value>;
#X msg 28 224 latency <numsamples>;
#X msg 30 287 midi <bytes...>;
#X msg 29 324 sysex <bytes...>;
#X text 263 182 a parameter has been changed in the GUI (or by changing a linked parameter)., f 40;
#X text 182 224 the plugin's internal processing latency has changed;
#X text 159 287 a MIDI message sent by the plugin;
#X text 159 324 a SysEx message sent by the plugin;
#X text 183 242 NOTE: the value includes the additional latency caused by multithreading (see the "-t" flag for "open"), f 55;
#X msg 29 397 crash;
#X text 381 76 goes to vstpresetbrowser;
#X text 21 111 see [pd preset];
#X text 93 398 the plugin subprocess has crashed.;
#X text 94 416 This is only sent for bridged or sandboxed plugins \, because normal plugins would simply crash Pd., f 52;
#X msg 29 361 update;
#X text 97 362 multiple parameters have changed internally;
#X obj 25 153 cnv 15 70 20 empty empty empty 20 12 0 14 #dcdcdc #404040 0;
#X text 31 154 events:;
#X connect 0 0 2 0;
#X connect 2 0 1 0;
#X connect 2 1 3 0;
#X connect 2 2 9 0;
#X connect 5 0 4 0;
#X connect 6 0 5 1;
#X connect 9 0 8 0;
#X connect 9 1 5 0;
#X restore 713 406 pd message-out;
#X connect 0 0 6 0;
#X connect 0 1 7 0;
#X connect 0 2 10 0;
#X connect 1 0 0 0;
#X connect 2 0 0 0;
#X connect 3 0 0 1;
#X connect 4 0 1 0;
#X connect 9 0 0 0;
#X restore 1731 763 pd ValhallaFreqEcho;
#X obj 846 52 loadbang;
#X obj 1357 29 inlet;
#X obj 1405 29 inlet;
#X obj 1453 29 inlet;
#X obj 1500 29 inlet;
#N canvas 90 117 1512 860 mapFunction 0;
#X obj 331 163 inlet;
#X obj 388 162 inlet;
#X obj 445 163 inlet;
#X obj 506 163 inlet;
#X obj 205 161 inlet;
#X obj 241 326 outlet;
#X obj 238 262 expr ((($f1 - $f2) / ($f3 - $f2)) * ($f4 - $f5)) + $f5;
#X connect 0 0 6 1;
#X connect 1 0 6 2;
#X connect 2 0 6 3;
#X connect 3 0 6 4;
#X connect 4 0 6 0;
#X connect 6 0 5 0;
#X restore 1372 136 pd mapFunction;
#X msg 1389 80 0;
#X msg 1427 81 1;
#X msg 1505 82 1;
#X floatatom 1375 176 5 0 0 0 - - - 0;
#X obj 1315 121 line;
#X obj 729 772 hsl 128 15 0 1 0 0 empty empty empty -2 -8 0 10 #fcfcfc #000000 #000000 0 1;
#X obj 727 671 line;
#X msg 727 648 \$1 1000;
#X obj 975 585 loadbang;
#N canvas 179 104 1225 795 MBitFun 0;
#X obj 453 309 vstplugin~;
#X obj 76 69 inlet~;
#X obj 139 69 inlet~;
#X obj 897 148 loadbang;
#X text 99 36 Audio In;
#X obj 66 704 outlet~;
#X obj 129 704 outlet~;
#X text 89 737 Audio out;
#X msg 26 232 param_list;
#N canvas 101 355 608 488 message-out 0;
#X obj 20 17 inlet;
#X obj 20 83 s \$0-program-data;
#X obj 20 50 route program_data bank_data, f 39;
#X obj 155 83 s \$0-bank-data;
#X obj 342 132 print;
#X obj 342 105 spigot 1;
#X obj 411 105 tgl 19 0 empty empty empty 17 7 0 10 #fcfcfc #000000 #000000 0 1;
#X text 437 104 print messages;
#X obj 310 77 s \$0-out;
#X obj 310 50 t a a;
#X msg 28 188 param_automated <index> <value>;
#X msg 28 224 latency <numsamples>;
#X msg 30 287 midi <bytes...>;
#X msg 29 324 sysex <bytes...>;
#X text 263 182 a parameter has been changed in the GUI (or by changing a linked parameter)., f 40;
#X text 182 224 the plugin's internal processing latency has changed;
#X text 159 287 a MIDI message sent by the plugin;
#X text 159 324 a SysEx message sent by the plugin;
#X text 183 242 NOTE: the value includes the additional latency caused by multithreading (see the "-t" flag for "open"), f 55;
#X msg 29 397 crash;
#X text 381 76 goes to vstpresetbrowser;
#X text 21 111 see [pd preset];
#X text 93 398 the plugin subprocess has crashed.;
#X text 94 416 This is only sent for bridged or sandboxed plugins \, because normal plugins would simply crash Pd., f 52;
#X msg 29 361 update;
#X text 97 362 multiple parameters have changed internally;
#X obj 25 153 cnv 15 70 20 empty empty empty 20 12 0 14 #dcdcdc #404040 0;
#X text 31 154 events:;
#X connect 0 0 2 0;
#X connect 2 0 1 0;
#X connect 2 1 3 0;
#X connect 2 2 9 0;
#X connect 5 0 4 0;
#X connect 6 0 5 1;
#X connect 9 0 8 0;
#X connect 9 1 5 0;
#X restore 713 406 pd message-out;
#X msg 690 246 open -e MBitFun.vst3;
#X obj 492 81 inlet;
#X connect 0 0 5 0;
#X connect 0 1 6 0;
#X connect 0 2 9 0;
#X connect 1 0 0 0;
#X connect 2 0 0 1;
#X connect 3 0 10 0;
#X connect 8 0 0 0;
#X connect 10 0 0 0;
#X connect 11 0 0 0;
#X restore 478 847 pd MBitFun;
#X msg 726 791 param_set 8 \$1;
#N canvas 90 117 1512 860 mapFunction 0;
#X obj 331 163 inlet;
#X obj 388 162 inlet;
#X obj 445 163 inlet;
#X obj 506 163 inlet;
#X obj 205 161 inlet;
#X obj 241 326 outlet;
#X obj 238 262 expr ((($f1 - $f2) / ($f3 - $f2)) * ($f4 - $f5)) + $f5;
#X connect 0 0 6 1;
#X connect 1 0 6 2;
#X connect 2 0 6 3;
#X connect 3 0 6 4;
#X connect 4 0 6 0;
#X connect 6 0 5 0;
#X restore 728 723 pd mapFunction;
#X msg 746 699 0;
#X msg 783 692 1;
#X msg 826 686 1;
#X obj 909 596 bng 19 250 50 0 empty empty empty 0 -10 0 12 #fcfcfc #000000 #000000;
#X obj 1582 25 loadbang;
#N canvas 179 104 1225 795 MBitFun 0;
#X obj 453 309 vstplugin~;
#X obj 76 69 inlet~;
#X obj 139 69 inlet~;
#X obj 897 148 loadbang;
#X text 99 36 Audio In;
#X obj 66 704 outlet~;
#X obj 129 704 outlet~;
#X text 89 737 Audio out;
#X msg 26 232 param_list;
#N canvas 101 355 608 488 message-out 0;
#X obj 20 17 inlet;
#X obj 20 83 s \$0-program-data;
#X obj 20 50 route program_data bank_data, f 39;
#X obj 155 83 s \$0-bank-data;
#X obj 342 132 print;
#X obj 342 105 spigot 1;
#X obj 411 105 tgl 19 0 empty empty empty 17 7 0 10 #fcfcfc #000000 #000000 0 1;
#X text 437 104 print messages;
#X obj 310 77 s \$0-out;
#X obj 310 50 t a a;
#X msg 28 188 param_automated <index> <value>;
#X msg 28 224 latency <numsamples>;
#X msg 30 287 midi <bytes...>;
#X msg 29 324 sysex <bytes...>;
#X text 263 182 a parameter has been changed in the GUI (or by changing a linked parameter)., f 40;
#X text 182 224 the plugin's internal processing latency has changed;
#X text 159 287 a MIDI message sent by the plugin;
#X text 159 324 a SysEx message sent by the plugin;
#X text 183 242 NOTE: the value includes the additional latency caused by multithreading (see the "-t" flag for "open"), f 55;
#X msg 29 397 crash;
#X text 381 76 goes to vstpresetbrowser;
#X text 21 111 see [pd preset];
#X text 93 398 the plugin subprocess has crashed.;
#X text 94 416 This is only sent for bridged or sandboxed plugins \, because normal plugins would simply crash Pd., f 52;
#X msg 29 361 update;
#X text 97 362 multiple parameters have changed internally;
#X obj 25 153 cnv 15 70 20 empty empty empty 20 12 0 14 #dcdcdc #404040 0;
#X text 31 154 events:;
#X connect 0 0 2 0;
#X connect 2 0 1 0;
#X connect 2 1 3 0;
#X connect 2 2 9 0;
#X connect 5 0 4 0;
#X connect 6 0 5 1;
#X connect 9 0 8 0;
#X connect 9 1 5 0;
#X restore 713 406 pd message-out;
#X msg 690 246 open -e MBitFun.vst3;
#X obj 492 81 inlet;
#X connect 0 0 5 0;
#X connect 0 1 6 0;
#X connect 0 2 9 0;
#X connect 1 0 0 0;
#X connect 2 0 0 1;
#X connect 3 0 10 0;
#X connect 8 0 0 0;
#X connect 10 0 0 0;
#X connect 11 0 0 0;
#X restore 562 849 pd MBitFun;
#X obj 884 977 hsl 128 15 0 1 0 0 empty empty empty -2 -8 0 10 #fcfcfc #000000 #000000 0 1;
#X obj 882 876 line;
#X msg 882 853 \$1 1000;
#X obj 1225 301 loadbang;
#X msg 881 996 param_set 8 \$1;
#N canvas 90 117 1512 860 mapFunction 0;
#X obj 331 163 inlet;
#X obj 388 162 inlet;
#X obj 445 163 inlet;
#X obj 506 163 inlet;
#X obj 205 161 inlet;
#X obj 241 326 outlet;
#X obj 238 262 expr ((($f1 - $f2) / ($f3 - $f2)) * ($f4 - $f5)) + $f5;
#X connect 0 0 6 1;
#X connect 1 0 6 2;
#X connect 2 0 6 3;
#X connect 3 0 6 4;
#X connect 4 0 6 0;
#X connect 6 0 5 0;
#X restore 883 928 pd mapFunction;
#X msg 901 904 0;
#X msg 938 897 1;
#X msg 981 891 1;
#X obj 1064 801 bng 19 250 50 0 empty empty empty 0 -10 0 12 #fcfcfc #000000 #000000;
#X obj 1080 118 line;
#X msg 1080 95 \$1 1000;
#X text 1076 73 reverb warp;
#X text 723 626 filter;
#X text 878 831 filter;
#X obj 1070 148 hsl 128 15 0 1 0 0 empty empty empty -2 -8 0 10 #fcfcfc #000000 #000000 0 1;
#X msg 1067 167 param_set 4 \$1;
#N canvas 90 117 1512 860 mapFunction 0;
#X obj 331 163 inlet;
#X obj 388 162 inlet;
#X obj 445 163 inlet;
#X obj 506 163 inlet;
#X obj 205 161 inlet;
#X obj 241 326 outlet;
#X obj 238 262 expr ((($f1 - $f2) / ($f3 - $f2)) * ($f4 - $f5)) + $f5;
#X connect 0 0 6 1;
#X connect 1 0 6 2;
#X connect 2 0 6 3;
#X connect 3 0 6 4;
#X connect 4 0 6 0;
#X connect 6 0 5 0;
#X restore 1639 142 pd mapFunction;
#X msg 1656 86 0;
#X msg 1694 87 1;
#X msg 1772 88 1;
#X floatatom 1642 182 5 0 0 0 - - - 0;
#X obj 1582 127 line;
#X msg 1584 90 \$1 700;
#X obj 1696 481 line;
#X msg 1696 458 \$1 1000;
#X obj 1686 511 hsl 128 15 0 1 0 0 empty empty empty -2 -8 0 10 #fcfcfc #000000 #000000 0 1;
#X text 1692 436 delay time;
#X msg 1683 530 param_set 3 \$1;
#N canvas 90 117 1512 860 mapFunction 0;
#X obj 331 163 inlet;
#X obj 388 162 inlet;
#X obj 445 163 inlet;
#X obj 506 163 inlet;
#X obj 205 161 inlet;
#X obj 241 326 outlet;
#X obj 238 262 expr ((($f1 - $f2) / ($f3 - $f2)) * ($f4 - $f5)) + $f5;
#X connect 0 0 6 1;
#X connect 1 0 6 2;
#X connect 2 0 6 3;
#X connect 3 0 6 4;
#X connect 4 0 6 0;
#X connect 6 0 5 0;
#X restore 1379 502 pd mapFunction;
#X msg 1396 446 0;
#X msg 1434 447 1;
#X floatatom 1385 554 5 0 0 0 - - - 0;
#X obj 1322 487 line;
#X msg 1324 450 \$1 50;
#X msg 1731 85 10;
#X msg 851 87 2;
#X msg 1464 79 5;
#X msg 1317 84 \$1 50;
#N canvas 0 25 1920 1027 RandomReverse 1;
#X obj 178 40 inlet;
#X obj 179 125 random 10;
#X obj 180 82 bng 19 250 50 0 empty empty empty 0 -10 0 12 #fcfcfc #000000 #000000;
#X floatatom 179 153 5 0 0 0 - - - 0;
#X obj 173 212 bng 19 250 50 0 empty empty empty 0 -10 0 12 #fcfcfc #000000 #000000;
#X obj 199 315 outlet;
#X msg 376 211;
#X obj 284 188 bng 19 250 50 0 empty empty empty 0 -10 0 12 #fcfcfc #000000 #000000;
#X obj 179 178 moses 3;
#X obj 381 55 inlet;
#X connect 0 0 2 0;
#X connect 1 0 3 0;
#X connect 2 0 1 0;
#X connect 3 0 8 0;
#X connect 4 0 5 0;
#X connect 7 0 6 0;
#X connect 7 0 5 0;
#X connect 8 0 4 0;
#X connect 8 1 7 0;
#X restore 824 265 pd RandomReverse;
#N canvas 0 25 1512 982 RANDOMPos 0;
#X obj 178 40 inlet;
#X obj 179 125 random 10;
#X obj 180 82 bng 19 250 50 0 empty empty empty 0 -10 0 12 #fcfcfc #000000 #000000;
#X floatatom 179 153 5 0 0 0 - - - 0;
#X obj 180 216 bng 19 250 50 0 empty empty empty 0 -10 0 12 #fcfcfc #000000 #000000;
#X obj 226 214 bng 19 250 50 0 empty empty empty 0 -10 0 12 #fcfcfc #000000 #000000;
#X obj 199 315 outlet;
#X msg 180 240 100;
#X msg 226 238 0;
#X text 342 45 1 in 10 chance of random pos;
#X obj 181 187 moses 2;
#X connect 0 0 2 0;
#X connect 1 0 3 0;
#X connect 2 0 1 0;
#X connect 3 0 10 0;
#X connect 4 0 7 0;
#X connect 5 0 8 0;
#X connect 7 0 6 0;
#X connect 8 0 6 0;
#X connect 10 0 4 0;
#X connect 10 1 5 0;
#X restore 959 146 pd RANDOMPos;
#X msg 1512 448 1;
#X msg 1471 445 -5;
#X msg 870 685 0.3;
#X msg 1025 890 0.3;
#X connect 1 0 6 0;
#X connect 2 0 6 1;
#X connect 4 0 3 1;
#X connect 5 0 3 3;
#X connect 7 0 3 0;
#X connect 8 0 3 4;
#X connect 9 0 3 2;
#X connect 9 0 29 0;
#X connect 11 0 12 0;
#X connect 28 0 21 0;
#X connect 46 0 47 0;
#X connect 49 0 48 0;
#X connect 84 0 83 0;
#X connect 86 0 90 0;
#X connect 88 0 89 0;
#X connect 89 0 85 0;
#X connect 90 0 87 0;
#X connect 91 0 92 0;
#X connect 95 0 96 0;
#X connect 96 0 112 0;
#X connect 96 0 112 1;
#X connect 97 0 98 0;
#X connect 98 0 99 0;
#X connect 98 1 100 0;
#X connect 101 0 98 1;
#X connect 102 0 98 2;
#X connect 105 0 106 0;
#X connect 105 1 107 0;
#X connect 108 0 95 0;
#X connect 110 0 108 0;
#X connect 112 0 129 0;
#X connect 112 0 129 1;
#X connect 112 1 137 0;
#X connect 112 1 137 1;
#X connect 114 0 174 0;
#X connect 115 0 176 0;
#X connect 115 0 178 0;
#X connect 116 0 127 0;
#X connect 116 0 177 0;
#X connect 117 0 140 0;
#X connect 117 0 149 0;
#X connect 117 0 172 0;
#X connect 118 0 161 0;
#X connect 119 0 123 0;
#X connect 120 0 119 1;
#X connect 121 0 119 2;
#X connect 122 0 119 4;
#X connect 123 0 49 0;
#X connect 124 0 119 0;
#X connect 125 0 130 0;
#X connect 126 0 131 0;
#X connect 127 0 126 0;
#X connect 128 0 135 0;
#X connect 129 0 111 0;
#X connect 129 1 111 0;
#X connect 130 0 129 2;
#X connect 131 0 125 0;
#X connect 132 0 131 1;
#X connect 133 0 131 2;
#X connect 134 0 131 3;
#X connect 135 0 132 0;
#X connect 135 0 133 0;
#X connect 135 0 134 0;
#X connect 135 0 181 0;
#X connect 136 0 120 0;
#X connect 136 0 121 0;
#X connect 136 0 175 0;
#X connect 136 0 122 0;
#X connect 136 0 156 0;
#X connect 136 0 157 0;
#X connect 136 0 173 0;
#X connect 136 0 158 0;
#X connect 137 0 111 0;
#X connect 137 1 111 0;
#X connect 138 0 142 0;
#X connect 139 0 143 0;
#X connect 140 0 139 0;
#X connect 141 0 147 0;
#X connect 141 0 168 0;
#X connect 141 0 169 0;
#X connect 141 0 180 0;
#X connect 141 0 179 0;
#X connect 142 0 137 2;
#X connect 143 0 138 0;
#X connect 144 0 143 1;
#X connect 145 0 143 2;
#X connect 146 0 143 3;
#X connect 147 0 144 0;
#X connect 147 0 145 0;
#X connect 147 0 146 0;
#X connect 147 0 182 0;
#X connect 148 0 153 0;
#X connect 149 0 148 0;
#X connect 153 0 154 0;
#X connect 154 0 112 2;
#X connect 155 0 159 0;
#X connect 156 0 155 1;
#X connect 157 0 155 2;
#X connect 158 0 155 4;
#X connect 159 0 28 0;
#X connect 160 0 155 0;
#X connect 161 0 160 0;
#X connect 162 0 164 0;
#X connect 163 0 162 0;
#X connect 164 0 166 0;
#X connect 167 0 170 0;
#X connect 168 0 167 1;
#X connect 169 0 167 2;
#X connect 170 0 4 0;
#X connect 171 0 167 0;
#X connect 172 0 171 0;
#X connect 173 0 155 3;
#X connect 174 0 97 0;
#X connect 175 0 119 3;
#X connect 176 0 124 0;
#X connect 178 0 11 0;
#X connect 179 0 167 4;
#X connect 180 0 167 3;
#X connect 181 0 131 4;
#X connect 182 0 143 4;
#X restore 362 500 pd The_Ancestors;
#N canvas 164 1118 1512 861 chimes 1;
#X obj 183 37 inlet;
#X obj 198 365 bng 19 250 50 0 empty empty empty 0 -10 0 12 #fcfcfc #000000 #000000;
#X obj 200 403 random 3;
#X floatatom 204 443 5 0 0 0 - - - 0;
#X obj 156 580 readsf~;
#X obj 319 543 del 10;
#X obj 278 580 tgl 19 0 empty empty empty 0 -10 0 12 #fcfcfc #000000 #000000 0 1;
#X obj 594 83 loadbang;
#X obj 456 597 readsf~;
#X obj 619 560 del 10;
#X obj 578 597 tgl 19 0 empty empty empty 0 -10 0 12 #fcfcfc #000000 #000000 0 1;
#X obj 723 610 readsf~;
#X obj 886 573 del 10;
#X obj 845 610 tgl 19 0 empty empty empty 0 -10 0 12 #fcfcfc #000000 #000000 0 1;
#X obj 704 784 outlet~;
#X obj 186 141 random 10;
#X obj 187 98 bng 19 250 50 0 empty empty empty 0 -10 0 12 #fcfcfc #000000 #000000;
#X floatatom 186 169 5 0 0 0 - - - 0;
#X obj 187 232 bng 19 250 50 0 empty empty empty 0 -10 0 12 #fcfcfc #000000 #000000;
#X obj 233 230 bng 19 250 50 0 empty empty empty 0 -10 0 12 #fcfcfc #000000 #000000;
#X msg 233 254 0;
#X obj 188 203 moses 2;
#X obj 188 294 del 10;
#X msg 158 533 open Chime1.wav;
#X msg 458 550 open Chime2.wav;
#X msg 725 563 open Chime3.wav;
#N canvas 0 25 1920 1027 ValhallaSuperMassive 0;
#X obj 453 309 vstplugin~;
#X obj 76 69 inlet~;
#X obj 139 69 inlet~;
#X obj 897 148 loadbang;
#X text 99 36 Audio In;
#X obj 66 704 outlet~;
#X obj 129 704 outlet~;
#X text 89 737 Audio out;
#X msg 26 232 param_list;
#N canvas 101 355 608 488 message-out 0;
#X obj 20 17 inlet;
#X obj 20 83 s \$0-program-data;
#X obj 20 50 route program_data bank_data, f 39;
#X obj 155 83 s \$0-bank-data;
#X obj 342 132 print;
#X obj 342 105 spigot 1;
#X obj 411 105 tgl 19 0 empty empty empty 17 7 0 10 #fcfcfc #000000 #000000 0 1;
#X text 437 104 print messages;
#X obj 310 77 s \$0-out;
#X obj 310 50 t a a;
#X msg 28 188 param_automated <index> <value>;
#X msg 28 224 latency <numsamples>;
#X msg 30 287 midi <bytes...>;
#X msg 29 324 sysex <bytes...>;
#X text 263 182 a parameter has been changed in the GUI (or by changing a linked parameter)., f 40;
#X text 182 224 the plugin's internal processing latency has changed;
#X text 159 287 a MIDI message sent by the plugin;
#X text 159 324 a SysEx message sent by the plugin;
#X text 183 242 NOTE: the value includes the additional latency caused by multithreading (see the "-t" flag for "open"), f 55;
#X msg 29 397 crash;
#X text 381 76 goes to vstpresetbrowser;
#X text 21 111 see [pd preset];
#X text 93 398 the plugin subprocess has crashed.;
#X text 94 416 This is only sent for bridged or sandboxed plugins \, because normal plugins would simply crash Pd., f 52;
#X msg 29 361 update;
#X text 97 362 multiple parameters have changed internally;
#X obj 25 153 cnv 15 70 20 empty empty empty 20 12 0 14 #dcdcdc #404040 0;
#X text 31 154 events:;
#X connect 0 0 2 0;
#X connect 2 0 1 0;
#X connect 2 1 3 0;
#X connect 2 2 9 0;
#X connect 5 0 4 0;
#X connect 6 0 5 1;
#X connect 9 0 8 0;
#X connect 9 1 5 0;
#X restore 713 406 pd message-out;
#X msg 690 246 open -e ValhallaSuperMassive.vst;
#X obj 505 79 inlet;
#X connect 0 0 5 0;
#X connect 0 1 6 0;
#X connect 0 2 9 0;
#X connect 1 0 0 0;
#X connect 2 0 0 1;
#X connect 3 0 10 0;
#X connect 8 0 0 0;
#X connect 10 0 0 0;
#X connect 11 0 0 0;
#X restore 433 800 pd ValhallaSuperMassive;
#X obj 259 479 sel 0 1 2;
#X msg 361 442 0;
#N canvas 0 65 1512 917 ValhallaFreqEcho 0;
#X obj 453 309 vstplugin~;
#X msg 690 246 open -e ValhallaFreqEcho.vst;
#X obj 76 69 inlet~;
#X obj 139 69 inlet~;
#X obj 897 148 loadbang;
#X text 99 36 Audio In;
#X obj 66 704 outlet~;
#X obj 129 704 outlet~;
#X text 89 737 Audio out;
#X msg 26 232 param_list;
#N canvas 101 355 608 488 message-out 0;
#X obj 20 17 inlet;
#X obj 20 83 s \$0-program-data;
#X obj 20 50 route program_data bank_data, f 39;
#X obj 155 83 s \$0-bank-data;
#X obj 342 132 print;
#X obj 342 105 spigot 1;
#X obj 411 105 tgl 19 0 empty empty empty 17 7 0 10 #fcfcfc #000000 #000000 0 1;
#X text 437 104 print messages;
#X obj 310 77 s \$0-out;
#X obj 310 50 t a a;
#X msg 28 188 param_automated <index> <value>;
#X msg 28 224 latency <numsamples>;
#X msg 30 287 midi <bytes...>;
#X msg 29 324 sysex <bytes...>;
#X text 263 182 a parameter has been changed in the GUI (or by changing a linked parameter)., f 40;
#X text 182 224 the plugin's internal processing latency has changed;
#X text 159 287 a MIDI message sent by the plugin;
#X text 159 324 a SysEx message sent by the plugin;
#X text 183 242 NOTE: the value includes the additional latency caused by multithreading (see the "-t" flag for "open"), f 55;
#X msg 29 397 crash;
#X text 381 76 goes to vstpresetbrowser;
#X text 21 111 see [pd preset];
#X text 93 398 the plugin subprocess has crashed.;
#X text 94 416 This is only sent for bridged or sandboxed plugins \, because normal plugins would simply crash Pd., f 52;
#X msg 29 361 update;
#X text 97 362 multiple parameters have changed internally;
#X obj 25 153 cnv 15 70 20 empty empty empty 20 12 0 14 #dcdcdc #404040 0;
#X text 31 154 events:;
#X connect 0 0 2 0;
#X connect 2 0 1 0;
#X connect 2 1 3 0;
#X connect 2 2 9 0;
#X connect 5 0 4 0;
#X connect 6 0 5 1;
#X connect 9 0 8 0;
#X connect 9 1 5 0;
#X restore 713 406 pd message-out;
#X connect 0 0 6 0;
#X connect 0 1 7 0;
#X connect 0 2 10 0;
#X connect 1 0 0 0;
#X connect 2 0 0 0;
#X connect 3 0 0 1;
#X connect 4 0 1 0;
#X connect 9 0 0 0;
#X restore 994 673 pd ValhallaFreqEcho;
#X connect 0 0 16 0;
#X connect 1 0 2 0;
#X connect 2 0 3 0;
#X connect 3 0 27 0;
#X connect 4 0 26 0;
#X connect 5 0 6 0;
#X connect 6 0 4 0;
#X connect 7 0 23 0;
#X connect 7 0 24 0;
#X connect 7 0 25 0;
#X connect 8 0 26 0;
#X connect 9 0 10 0;
#X connect 10 0 8 0;
#X connect 11 0 26 0;
#X connect 12 0 13 0;
#X connect 13 0 11 0;
#X connect 15 0 17 0;
#X connect 16 0 15 0;
#X connect 17 0 21 0;
#X connect 18 0 22 0;
#X connect 18 0 28 0;
#X connect 19 0 20 0;
#X connect 21 0 18 0;
#X connect 21 1 19 0;
#X connect 22 0 1 0;
#X connect 23 0 4 0;
#X connect 24 0 8 0;
#X connect 25 0 11 0;
#X connect 26 0 14 0;
#X connect 27 0 23 0;
#X connect 27 0 5 0;
#X connect 27 1 24 0;
#X connect 27 1 9 0;
#X connect 27 2 25 0;
#X connect 27 2 12 0;
#X connect 28 0 6 0;
#X connect 28 0 10 0;
#X connect 28 0 13 0;
#X restore 101 743 pd chimes;
#X obj 212 764 hsl 162 19 0 0.7 0 0 empty empty empty -2 -10 0 12 #fcfcfc #000000 #000000 0 1;
#X obj 254 866 *~;
#X floatatom 287 820 5 0 0 0 - - - 0;
#X obj 203 675 loadbang;
#X msg 1231 478 open SemanticsWithChimes.wav;
#X msg 266 574 0.117;
#X msg 192 714 0.07;
#X connect 0 0 1 0;
#X connect 1 0 2 0;
#X connect 2 0 12 0;
#X connect 3 0 0 0;
#X connect 3 0 4 0;
#X connect 3 0 6 0;
#X connect 3 0 7 0;
#X connect 7 0 8 0;
#X connect 8 0 9 0;
#X connect 9 0 10 0;
#X connect 10 1 17 0;
#X connect 10 2 18 0;
#X connect 10 3 19 0;
#X connect 10 4 20 0;
#X connect 12 1 13 0;
#X connect 12 2 14 0;
#X connect 12 3 15 0;
#X connect 12 4 16 0;
#X connect 13 0 51 0;
#X connect 13 0 52 0;
#X connect 14 0 51 1;
#X connect 15 0 51 2;
#X connect 16 0 51 3;
#X connect 17 0 50 0;
#X connect 18 0 50 1;
#X connect 18 0 39 0;
#X connect 19 0 50 2;
#X connect 19 0 38 1;
#X connect 20 0 50 3;
#X connect 21 0 23 0;
#X connect 21 1 24 0;
#X connect 22 0 21 0;
#X connect 22 1 21 1;
#X connect 25 0 22 1;
#X connect 30 0 34 0;
#X connect 31 0 35 0;
#X connect 32 0 43 0;
#X connect 33 0 43 1;
#X connect 34 0 32 1;
#X connect 35 0 33 1;
#X connect 36 0 58 0;
#X connect 37 0 46 0;
#X connect 38 0 41 0;
#X connect 39 0 38 0;
#X connect 40 0 42 0;
#X connect 41 0 43 1;
#X connect 42 0 41 1;
#X connect 43 0 29 0;
#X connect 43 0 47 0;
#X connect 43 1 29 1;
#X connect 43 1 47 1;
#X connect 44 0 45 0;
#X connect 45 0 40 0;
#X connect 46 0 31 0;
#X connect 48 0 47 0;
#X connect 49 0 47 0;
#X connect 50 0 33 0;
#X connect 51 0 22 0;
#X connect 51 0 32 0;
#X connect 52 0 54 0;
#X connect 53 0 55 0;
#X connect 54 0 43 0;
#X connect 55 0 54 1;
#X connect 56 0 59 0;
#X connect 57 0 47 0;
#X connect 58 0 30 0;
#X connect 59 0 53 0;
