#N canvas 523 31 1341 967 12;
#X msg 132 178 listen 9000;
#X obj 132 203 netreceive -u -b;
#X obj 132 228 oscparse;
#X msg 289 174 listen 0;
#X obj 132 253 list trim;
#X floatatom 370 329 5 0 0 0 - - - 0;
#X floatatom 70 384 5 0 0 0 - - - 0;
#X floatatom 251 330 5 0 0 0 - - - 0;
#X floatatom 311 329 5 0 0 0 - - - 0;
#X floatatom 431 329 5 0 0 0 - - - 0;
#X obj 132 283 unpack string float float float float float;
#X text 113 385 POSITIVE/NEGATIVE;
#X obj 70 417 sel 0 1;
#X obj 93 452 bng 20 250 50 0 empty empty empty 0 -10 0 12 #fcfcfc #000000 #000000;
#X obj 70 453 bng 20 250 50 0 empty empty empty 0 -10 0 12 #fcfcfc #000000 #000000;
#X obj 132 17 loadbang;
#X msg 153 92 \; pd dsp 1;
#X text 209 19 Onload Turn on Audio and start OSC listening;
#X obj 264 712 phasor~;
#X obj 264 801 *~ 0.5;
#X obj 264 861 dac~;
#X obj 1384 542 hsl 150 19 0 10 0 0 empty empty Delay\ Vol -2 -10 0 12 #ffffff #000000 #000000 0 1;
#X obj 1415 637 hsl 162 19 0 1 0 0 empty empty Feedback\ amt -2 -10 0 12 #fcfcfc #000000 #000000 0 1;
#X obj 395 711 phasor~;
#X obj 258 443 line;
#X obj 158 62 send load;
#X obj 1407 469 receive load;
#X msg 1407 492 6;
#X obj 1455 575 receive load;
#X msg 1454 597 0.6;
#X obj 261 538 mtof;
#X obj 258 476 * 63;
#X obj 268 590 +~;
#X obj 366 577 *~;
#X floatatom 430 544 5 0 0 0 - - - 0;
#X floatatom 372 513 5 0 0 0 - - - 0;
#X obj 264 767 lop~ 300;
#X msg 258 411 \$1 1000;
#X obj 324 710 phasor~;
#X obj 261 505 + 12;
#X obj 324 657 *~ 1.01;
#X obj 396 658 *~ 1.21;
#X obj 435 454 * 10;
#X obj 362 450 * 5;
#X obj 364 420 line;
#X msg 364 396 \$1 2000;
#X obj 435 422 line;
#X msg 435 398 \$1 2000;
#X obj 366 544 phasor~;
#X connect 0 0 1 0;
#X connect 1 0 2 0;
#X connect 2 0 4 0;
#X connect 3 0 1 0;
#X connect 4 0 10 0;
#X connect 5 0 45 0;
#X connect 6 0 12 0;
#X connect 8 0 37 0;
#X connect 9 0 47 0;
#X connect 10 1 6 0;
#X connect 10 2 7 0;
#X connect 10 3 8 0;
#X connect 10 4 5 0;
#X connect 10 5 9 0;
#X connect 12 0 14 0;
#X connect 12 1 13 0;
#X connect 15 0 0 0;
#X connect 15 0 16 0;
#X connect 15 0 25 0;
#X connect 18 0 36 0;
#X connect 19 0 20 0;
#X connect 19 0 20 1;
#X connect 23 0 36 0;
#X connect 24 0 31 0;
#X connect 26 0 27 0;
#X connect 27 0 21 0;
#X connect 28 0 29 0;
#X connect 29 0 22 0;
#X connect 30 0 32 0;
#X connect 31 0 39 0;
#X connect 32 0 18 0;
#X connect 32 0 40 0;
#X connect 32 0 41 0;
#X connect 33 0 32 1;
#X connect 34 0 33 1;
#X connect 35 0 48 0;
#X connect 36 0 19 0;
#X connect 37 0 24 0;
#X connect 38 0 36 0;
#X connect 39 0 30 0;
#X connect 40 0 38 0;
#X connect 41 0 23 0;
#X connect 42 0 34 0;
#X connect 43 0 35 0;
#X connect 44 0 43 0;
#X connect 45 0 44 0;
#X connect 46 0 42 0;
#X connect 47 0 46 0;
#X connect 48 0 33 0;
